<?xml version="1.0" standalone="no"?>
<!DOCTYPE svg PUBLIC "-//W3C//DTD SVG 1.1//EN" "http://www.w3.org/Graphics/SVG/1.1/DTD/svg11.dtd" >
<svg xmlns="http://www.w3.org/2000/svg" xmlns:xlink="http://www.w3.org/1999/xlink" version="1.1">
<metadata>
Created by FontForge 20170731 at Fri Dec 11 19:47:37 2020
 By Aleksey,,,
Copyright (c) 2019 by Noir Blanc Rouge. All rights reserved.
</metadata>
<defs>
<font id="YoungSerif-Regular" horiz-adv-x="1228" >
  <font-face 
    font-family="YoungSerif"
    font-weight="400"
    font-stretch="normal"
    units-per-em="2048"
    panose-1="0 0 7 0 0 0 0 0 0 0"
    ascent="1638"
    descent="-410"
    x-height="1024"
    cap-height="1536"
    bbox="-252 -750 2497 2142"
    underline-thickness="102"
    underline-position="-307"
    unicode-range="U+0020-FB02"
  />
<missing-glyph horiz-adv-x="1024" 
d="M0 1434h1024v-1434h-1024v1434zM860 1331h-696l348 -522zM102 195l349 522l-349 522v-1044zM922 195v1044l-349 -522zM860 102l-348 523l-348 -523h696z" />
    <glyph glyph-name="fi" unicode="fi" horiz-adv-x="1433" 
d="M1378 123q31 0 31 -31v-61q0 -15 -10 -23t-25 -8h-579q-14 0 -23.5 8.5t-9.5 22.5v61l-2 2q0 29 33 29h2q73 0 112 54t37 140v361q0 32 -2.5 56t-12 52t-25.5 46t-45.5 30t-70.5 12h-294v-557q0 -87 38.5 -140.5t110.5 -53.5q31 0 31 -31v-61q0 -31 -31 -31h-588
q-30 0 -30 31v61q0 31 30 31q73 0 112.5 54t37.5 140v351q0 32 -0.5 48.5t-3 45.5t-8 45t-16.5 36.5t-26.5 31.5t-40 18.5t-55.5 7.5q-30 0 -30 31v61q0 31 30 31h154l-2 16q0 77 19 156t63.5 159.5t108.5 142.5t164.5 101t221.5 39q210 0 325.5 -81t115.5 -214
q0 -37 -19 -86q-11 -28 -51 -38l-215 -48l-4 -2q-14 0 -14 21q0 6 4 22q35 63 35 119q0 93 -56.5 144t-150.5 51q-68 0 -119.5 -28.5t-82 -79.5t-45.5 -116t-15 -143v-135h296q197 -2 408 59q8 4 18 4h5q2 0 4 -2v-768q0 -87 39 -140.5t112 -53.5h4z" />
    <glyph glyph-name="fl" unicode="fl" horiz-adv-x="1515" 
d="M1270 317q0 -87 39 -140.5t112 -53.5q31 0 31 -31v-61q0 -31 -31 -31h-587q-31 0 -31 31v61q0 31 31 31q72 0 110.5 53.5t38.5 140.5v863q0 67 -10.5 87t-42.5 13l-215 -47l-4 -2q-11 0 -14.5 14.5t3.5 28.5q39 69 39 135q0 55 -28 86t-68 31q-50 0 -86 -45
q-65 -81 -65 -322v-135h274q31 0 31 -31v-88q0 -31 -31 -31h-272v-557q0 -87 38.5 -140.5t110.5 -53.5q31 0 31 -31v-61q0 -31 -31 -31h-588q-30 0 -30 31v61q0 31 30 31q73 0 112.5 54t37.5 140v351q0 32 -0.5 48.5t-3 45.5t-8 45t-16.5 36.5t-26.5 31.5t-40 18.5
t-55.5 7.5q-30 0 -30 31v61q0 31 30 31h154l-2 16q0 78 14.5 156.5t49.5 159t87.5 142.5t136.5 101t187 39q127 0 205 -39.5t104 -107.5q154 62 260 143q8 4 9 4h6q2 0 4 -4v-1317z" />
    <glyph glyph-name=".notdef" horiz-adv-x="1024" 
d="M0 1434h1024v-1434h-1024v1434zM860 1331h-696l348 -522zM102 195l349 522l-349 522v-1044zM922 195v1044l-349 -522zM860 102l-348 523l-348 -523h696z" />
    <glyph glyph-name=".null" horiz-adv-x="0" 
 />
    <glyph glyph-name="nonmarkingreturn" horiz-adv-x="682" 
 />
    <glyph glyph-name="space" unicode=" " horiz-adv-x="512" 
 />
    <glyph glyph-name="exclam" unicode="!" horiz-adv-x="765" 
d="M285 1548q39 39 77 39q41 0 80 -39l80 -82q39 -36 39 -75q0 -50 -42 -287.5t-54 -386.5q-10 -123 -10 -158q0 -24 -27 -24h-129q-27 0 -27 24q0 35 -10 158q-12 152 -54 388.5t-42 283.5q0 40 37 77zM285 319q36 39 77 39q44 0 80 -39l80 -79q39 -39 39 -80t-39 -80
l-80 -80q-36 -39 -80 -39q-41 0 -77 39l-82 80q-37 40 -37 80t37 80z" />
    <glyph glyph-name="quotedbl" unicode="&#x22;" horiz-adv-x="831" 
d="M324 1597q33 0 30 -32l-49 -465q-3 -31 -33 -31h-90q-29 0 -32 31l-48 465v6q0 26 29 26h193zM700 1597q32 0 29 -32l-49 -465q-3 -31 -31 -31h-92q-30 0 -33 31l-47 465v6q0 26 29 26h194z" />
    <glyph glyph-name="numbersign" unicode="#" horiz-adv-x="1558" 
d="M1309 1384q0 23 -29 23h-139q-27 0 -33 -27l-82 -329h-289l80 323l2 10q0 23 -28 23h-140q-27 0 -33 -27l-81 -329h-285q-27 0 -33 -27l-29 -115l-2 -10q0 -11 8 -18t21 -7h275l-97 -385h-282q-29 0 -35 -26l-29 -117l-2 -10q0 -23 29 -23h276l-69 -278l-2 -10
q0 -25 28 -25h140q26 0 32 27l72 286h289l-70 -278l-2 -10q0 -25 29 -25h139q27 0 33 27l71 286h265q26 0 32 27l29 115l2 10q0 24 -29 24h-254l97 385h262q25 0 35 27l28 117v10q0 23 -26 23h-256l80 323zM694 874h287l-96 -385h-287z" />
    <glyph glyph-name="dollar" unicode="$" horiz-adv-x="1480" 
d="M885 934q69 -21 122.5 -39t115 -44t106.5 -53t89 -63.5t71.5 -77.5t44 -93t16.5 -111q0 -201 -151 -331.5t-414 -137.5v-131q0 -31 -31 -31h-139q-31 0 -31 31v149q-98 21 -164 57q-18 7 -26 7q-12 0 -16.5 -11.5t1.5 -31.5q4 -10 4 -25q0 -26 -32 -23h-103q-36 0 -51 29
l-248 465q-8 11 -8 25q0 21 22 34l91 52q11 8 24 8q19 0 35 -25q200 -306 471 -389v500q-130 40 -226.5 89.5t-151.5 97t-88 103.5t-43.5 102t-10.5 99q0 171 140 271t380 100v141q0 31 31 31h139q31 0 31 -31v-174q87 -26 147 -61l12 -4q23 0 5 61q-2 6 -2 19q0 30 36 30
h74q37 0 51 -35l144 -366q8 -20 8 -29q0 -17 -23 -31l-69 -36q-18 -7 -25 -7q-19 0 -35 23q-152 189 -323 264v-397zM684 1370q-39 -2 -71.5 -11t-61.5 -28t-45.5 -53.5t-16.5 -81.5q0 -120 195 -197v371zM885 147q122 4 190 63t68 150q0 56 -19 98t-57 71.5t-79.5 48.5
t-102.5 38v-469z" />
    <glyph glyph-name="percent" unicode="%" horiz-adv-x="1804" 
d="M287 -23q-27 0 -27 19q0 6 8 18l1135 1473q12 18 37 18h84q26 0 26 -16q0 -10 -8 -21l-1132 -1472q-16 -19 -37 -19h-86zM362 1454q70 31 144 31q107 0 200 -61t140 -164q33 -73 33 -156q0 -108 -56.5 -199.5t-156.5 -136.5q-73 -31 -144 -31q-107 0 -201 61.5
t-139 164.5q-32 71 -32 155q0 108 56.5 199.5t155.5 136.5zM414 1335q-78 -35 -78 -137q0 -70 37 -149q33 -75 82 -123.5t106 -48.5q31 0 53 10q78 35 78 137q0 71 -37 150q-33 75 -83 123.5t-107 48.5q-26 0 -51 -11zM1161 23q-105 41 -167 135.5t-62 206.5q0 69 24 139
q42 111 138.5 176t208.5 65q71 0 127 -22q106 -41 168.5 -135.5t62.5 -206.5q0 -66 -25 -139q-44 -111 -140 -176.5t-208 -65.5q-65 0 -127 23zM1208 143q21 -8 45 -8q59 0 108 51.5t79 130.5q28 70 28 140q0 111 -84 145q-21 8 -47 8q-58 0 -107 -52t-79 -130
q-29 -82 -29 -139q0 -111 86 -146z" />
    <glyph glyph-name="ampersand" unicode="&#x26;" horiz-adv-x="1665" 
d="M1593 1024q31 0 31 -31v-61q0 -31 -31 -31h-14q-76 -4 -140 -59.5t-98 -134.5q-90 -220 -176 -355l90 -102q57 -65 109.5 -93t138.5 -28q9 0 32.5 2t27.5 2q23 0 26 -29l6 -61v-4q0 -26 -26 -29q-65 -10 -125 -10q-149 0 -255.5 29.5t-189.5 111.5q-181 -172 -426 -172
q-79 0 -152.5 13t-143.5 44t-121.5 77t-83 117.5t-31.5 160.5q0 304 397 403l-114 134q-105 120 -105 266q0 75 30 143t86.5 121.5t147 85t203.5 31.5q178 0 283.5 -64.5t105.5 -157.5q0 -40 -20 -98q-8 -17 -19.5 -26t-34.5 -13l-213 -51h-6q-16 0 -16 21q0 12 8 20
q43 58 43 121q0 56 -31 91.5t-102 35.5q-108 0 -163.5 -48t-55.5 -126q0 -109 96 -219l502 -580q53 89 84 177t31 134q0 52 -33.5 84t-87.5 35h-33q-31 0 -31 31v61q0 31 31 31h569zM541 668q-88 -38 -145.5 -107t-57.5 -166q0 -64 22.5 -113.5t61 -78t85 -42.5t99.5 -14
q152 0 287 115z" />
    <glyph glyph-name="quotesingle" unicode="'" horiz-adv-x="440" 
d="M313 1597q32 0 29 -32l-47 -465q-3 -31 -33 -31h-90q-30 0 -33 31l-49 465v6q0 26 31 26h192z" />
    <glyph glyph-name="parenleft" unicode="(" horiz-adv-x="983" 
d="M780 -170q6 9 6 16q0 14 -14 25q-137 109 -241.5 346t-104.5 463q0 225 104.5 461.5t241.5 345.5q14 11 14 24q0 10 -6 19l-39 55q-10 17 -24 17q-2 0 -17 -5q-161 -84 -284 -232.5t-187.5 -326.5t-64.5 -358q0 -276 148 -531.5t390 -381.5q10 -7 19 -7q10 0 24 17z" />
    <glyph glyph-name="parenright" unicode=")" horiz-adv-x="983" 
d="M205 -170q-8 8 -8 16q0 11 14 25q137 109 241.5 346t104.5 463q0 225 -104.5 461.5t-241.5 345.5q-14 14 -14 24q0 11 8 19l37 55q10 17 24 17q7 0 17 -5q161 -84 284 -232.5t187.5 -326.5t64.5 -358q0 -276 -148 -531.5t-390 -381.5q-11 -7 -19 -7q-12 0 -22 17z" />
    <glyph glyph-name="asterisk" unicode="*" 
d="M1077 950q19 -6 19 -22q0 -10 -6 -19l-89 -153q-13 -19 -26 -19q-8 0 -17 6l-153 125q-122 108 -123 109q4 -29 31 -160l30 -196v-7q0 -24 -30 -24h-178q-14 0 -23 8.5t-8 22.5l31 196q23 113 32 160q-42 -34 -123 -109l-155 -125q-6 -6 -17 -6q-13 0 -24 19l-90 153
q-4 12 -4 19q0 16 16 24l186 72q41 13 154 51q-73 28 -154 53l-186 72q-16 5 -16 23q0 6 4 18l90 156q10 16 24 16q11 0 17 -6l155 -125q84 -74 123 -106l-32 159l-31 197v4q0 12 9.5 19.5t21.5 7.5h178q15 0 24 -9t6 -22l-30 -197q-27 -130 -31 -159q18 14 58.5 50t64.5 56
l153 125q9 6 17 6q13 0 26 -16l89 -156q6 -9 6 -18q0 -17 -19 -23l-184 -72q-95 -29 -154 -53q77 -28 154 -51z" />
    <glyph glyph-name="plus" unicode="+" 
d="M1120 659q31 0 31 -30v-176q0 -31 -31 -31h-387v-387q0 -31 -31 -31h-176q-30 0 -30 31v387h-387q-31 0 -31 31v176q0 30 31 30h387v388q0 30 30 30h176q31 0 31 -30v-388h387z" />
    <glyph glyph-name="comma" unicode="," horiz-adv-x="485" 
d="M416 240q43 -43 43 -113q0 -26 -6 -61q-16 -74 -91.5 -167.5t-149.5 -153.5t-99 -60q-16 0 -82 30q73 56 117.5 123t44.5 117q0 31 -17 45l-80 80q-39 39 -39 80q0 44 39 80l80 79q39 39 80 39t80 -39z" />
    <glyph glyph-name="hyphen" unicode="-" horiz-adv-x="1067" 
d="M47 629q0 30 31 30h909q31 0 31 -30v-176q0 -31 -31 -31h-909q-31 0 -31 31v176z" />
    <glyph glyph-name="period" unicode="." horiz-adv-x="724" 
d="M285 319q36 39 77 39q44 0 80 -39l80 -79q39 -39 39 -80t-39 -80l-80 -80q-36 -39 -80 -39q-41 0 -77 39l-82 80q-37 40 -37 80t37 80z" />
    <glyph glyph-name="slash" unicode="/" horiz-adv-x="1024" 
d="M756 1577q8 25 35 25h167q34 0 25 -35l-655 -1821q-8 -25 -35 -25h-168q-37 0 -25 35z" />
    <glyph glyph-name="zero" unicode="0" 
d="M618 1126q153 0 283.5 -77.5t206.5 -211.5t76 -292q0 -119 -45 -226.5t-121 -185.5t-180.5 -124t-219.5 -46q-153 0 -283 77.5t-206 212t-76 292.5q1 158 77 292t205.5 211.5t282.5 77.5zM616 971q-68 0 -122 -37.5t-87 -100t-50 -137.5t-17 -155t18 -156.5t52.5 -139
t89.5 -101t123 -38.5t121 39.5t85 105t48 141.5t16 157q0 109 -29 202.5t-93.5 156.5t-154.5 63z" />
    <glyph glyph-name="one" unicode="1" horiz-adv-x="864" 
d="M592 317q0 -186 137 -194h53q31 0 31 -31v-61q0 -31 -31 -31h-710q-31 0 -31 31v61q0 31 31 31h55q137 8 137 194v416q0 46 -7 78t-26.5 60.5t-59 42.5t-99.5 14q-31 0 -31 30v62q0 31 31 31q359 0 710 61q31 0 31 -31v-61q0 -31 -31 -31l-41 -4q-83 -6 -116 -63.5
t-33 -188.5v-416z" />
    <glyph glyph-name="two" unicode="2" horiz-adv-x="1087" 
d="M1051 285q16 -8 16 -25q0 -6 -4 -18l-154 -252q-10 -17 -24 -17q-7 0 -17 7l-12 10q-10 10 -37 10h-747q-31 0 -31 31v63q0 9 6 27q33 67 93 134.5t123 119.5t130.5 109.5t119.5 107t86 109t34 118.5q0 88 -38.5 134t-107.5 46q-65 0 -113 -34t-48 -105q0 -66 45 -149
q4 -12 4 -23q0 -21 -19 -18l-215 49q-23 4 -34 13t-17 26q-16 40 -16 73q0 113 120.5 200t303.5 87q430 0 430 -301q0 -74 -35 -140t-89 -113t-126 -97t-140 -91t-137.5 -96t-111.5 -110l190 4q6 0 44.5 1t51.5 1.5t51 2.5t55.5 4.5t52 7.5t53.5 11t46.5 15.5t44.5 21t34 27
t28 33.5l6 10q8 17 25 17q10 0 16 -4z" />
    <glyph glyph-name="three" unicode="3" horiz-adv-x="1103" 
d="M127 719q-36 9 -51 39q-15 37 -15 73q0 115 120 201t304 86q209 0 318.5 -75t109.5 -226q0 -233 -272 -332q182 -27 291.5 -128.5t109.5 -266.5q0 -158 -93.5 -269.5t-246.5 -163.5t-350 -52q-96 0 -190 12q-30 3 -33 29l-10 88l-2 6q0 12 9 19.5t24 4.5q87 -20 182 -20
q177 0 286 88t109 264q0 264 -281 264q-76 0 -165 -18h-9q-22 0 -28 25l-13 59v10q0 16 13 23q5 5 14 8q172 55 266 148t94 204q0 88 -37.5 134t-105.5 46q-66 0 -114 -33.5t-48 -105.5q0 -64 43 -149q6 -9 6 -23q0 -21 -20 -18z" />
    <glyph glyph-name="four" unicode="4" horiz-adv-x="1157" 
d="M1106 33q0 -31 -31 -31h-229v-381q0 -31 -31 -31h-180q-31 0 -31 31v381h-573q-31 0 -31 31v127q0 16 10 39q52 80 138 186t142 174.5t100 161t44 178.5q0 91 -47 191q-4 6 -4 20q0 11 4.5 16t13.5 4l295 -61q23 -6 34.5 -15t17.5 -26q10 -25 10 -65q0 -58 -30 -132.5
t-72 -141t-105.5 -148.5t-112.5 -137.5t-112 -126t-86 -97.5h364v209q0 30 27 33l182 35l8 2q25 0 25 -29v-250h229q31 0 31 -30v-117z" />
    <glyph glyph-name="five" unicode="5" horiz-adv-x="1130" 
d="M336 621q55 8 119 8q151 0 271.5 -52t194.5 -160t74 -257q0 -138 -58 -244.5t-160 -171.5t-231.5 -98t-281.5 -33q-96 0 -190 12q-30 3 -33 29l-10 88v6q0 13 8.5 20.5t21.5 4.5q91 -21 179 -21q90 0 164 23.5t132 71.5t90.5 129.5t32.5 189.5q0 95 -31 162.5t-85 102
t-112 49t-126 14.5q-81 0 -176 -21l-10 -2q-12 0 -18 9t-3 22l111 583q6 27 35 27l301 6q344 0 395 86l6 10q10 19 25 19q9 0 18 -6l64 -37q16 -10 16 -25q0 -7 -6 -16l-129 -217q-10 -17 -25 -17q-7 0 -18 7l-10 10q-12 10 -39 10h-436z" />
    <glyph glyph-name="six" unicode="6" horiz-adv-x="1314" 
d="M967 1112q-12 0 -14.5 14t5.5 29q46 88 46 145q0 34 -14.5 59t-39.5 38t-52 18.5t-58 5.5q-90 0 -164 -32t-125.5 -90.5t-86.5 -127.5t-58 -155q55 20 102 28q55 9 106 9q205 0 372 -124.5t214 -318.5q17 -58 17 -125q0 -186 -122.5 -328t-318.5 -177q-52 -9 -102 -9
q-206 0 -373.5 124.5t-218.5 320.5l-6 26q-15 92 -15 179q0 83 10.5 168.5t36 179t64.5 177.5t101 161t139.5 132.5t185 88.5t233.5 33q183 0 302.5 -86t119.5 -201q0 -39 -14 -74q-8 -18 -18.5 -26.5t-32.5 -12.5l-215 -49h-6zM547 895q-86 -14 -131.5 -75t-53.5 -152
q0 -133 19 -201q17 -68 45 -128t66.5 -108.5t90.5 -77t111 -28.5q13 0 45 4q96 18 141.5 91.5t45.5 180.5q0 65 -21 158q-24 92 -65 166t-107 124t-143 50q-29 0 -43 -4z" />
    <glyph glyph-name="seven" unicode="7" horiz-adv-x="1191" 
d="M1120 1118q31 0 31 -31v-116q0 -24 -10 -39q-36 -56 -133 -194.5t-167 -246t-148.5 -244.5t-121.5 -264t-43 -231q0 -92 31 -155q6 -9 6 -21q0 -11 -5 -16t-15 -4l-336 63q-39 5 -51 39q-6 18 -6 43q0 58 39.5 151.5t96 188.5t143.5 218t156.5 214t162 204.5t132 160.5
t93.5 110l-410 -6q-349 -7 -395 -86l-6 -12q-14 -17 -25 -17q-7 0 -18 7l-64 36q-16 10 -16 25q0 7 6 16l129 217q10 17 25 17q9 0 18 -6l10 -11q14 -12 39 -12h31l2 2h819z" />
    <glyph glyph-name="eight" unicode="8" horiz-adv-x="1142" 
d="M580 1567q204 0 331 -109t127 -276q0 -111 -69 -209.5t-172 -153.5q137 -75 210.5 -176.5t73.5 -245.5q0 -190 -146.5 -303.5t-375.5 -113.5q-227 0 -362.5 111.5t-135.5 305.5q0 246 279 363q-246 159 -246 401q0 178 138.5 292t347.5 114zM580 1440q-102 0 -163 -66
t-61 -190q0 -51 25.5 -99.5t66 -84t82 -61t80.5 -38.5q101 29 151 105t50 176q0 68 -23.5 124.5t-77.5 95t-130 38.5zM526 668q-241 -73 -241 -271q0 -78 28 -141.5t91.5 -105t154.5 -41.5q131 0 191.5 66t60.5 196q0 61 -30 114t-77 89t-91.5 58.5t-86.5 35.5z" />
    <glyph glyph-name="nine" unicode="9" horiz-adv-x="1265" 
d="M338 379q13 0 15.5 -14.5t-5.5 -28.5q-45 -83 -45 -146q0 -65 47.5 -92.5t116.5 -27.5q78 0 143.5 25.5t112 68.5t82.5 104.5t58.5 128t37.5 144.5q-64 -29 -129 -41q-82 -11 -131 -11q-194 0 -337 102.5t-189 287.5q-17 77 -17 133q0 184 119 324t313 175q62 11 138 11
q99 0 186.5 -26.5t161 -79t125 -139.5t71.5 -200q13 -63 13 -162q0 -81 -8.5 -164.5t-31.5 -182.5t-58.5 -187t-95 -172t-135 -145t-184 -97.5t-237.5 -36.5q-183 0 -302.5 86t-119.5 201q0 37 15 74q12 29 51 39l215 47zM676 645q59 0 105 18t74 47t46 69t24.5 80t6.5 85
q0 61 -20 131.5t-57 137t-100 110t-139 43.5q-121 0 -178 -76.5t-57 -199.5q0 -70 20 -158q73 -287 275 -287z" />
    <glyph glyph-name="colon" unicode=":" horiz-adv-x="724" 
d="M283 1161q39 39 79 39q41 0 80 -39l80 -80q39 -39 39 -80q0 -40 -39 -79l-80 -80q-39 -39 -80 -39q-40 0 -79 39l-80 80q-39 39 -39 79q0 41 39 80zM283 322q39 36 79 36q41 0 80 -39l80 -79q39 -36 39 -80q0 -41 -39 -80l-80 -80q-40 -37 -80 -37q-39 0 -79 37l-80 80
q-39 39 -39 80q0 44 39 80z" />
    <glyph glyph-name="semicolon" unicode=";" horiz-adv-x="759" 
d="M317 1161q36 39 80 39q41 0 80 -39l80 -80q39 -42 39 -80q0 -37 -39 -79l-80 -80q-39 -39 -80 -39t-80 39l-79 80q-39 39 -39 79q0 41 39 80zM549 240q43 -43 43 -113q0 -30 -8 -61q-15 -74 -90 -167.5t-149 -153.5t-99 -60q-16 0 -82 30q73 56 117.5 123t44.5 117
q0 27 -17 47l-80 80q-39 36 -39 80q0 42 39 78l80 82q36 36 78 36q44 0 80 -39z" />
    <glyph glyph-name="less" unicode="&#x3c;" 
d="M1151 18q12 -4 16 -4q21 0 21 27v141q0 25 -23 35l-733 371l733 370q23 13 23 37v140q0 26 -21 26q-10 0 -16 -4l-1088 -549q-16 -6 -16 -20q0 -11 16 -21z" />
    <glyph glyph-name="equal" unicode="=" 
d="M127 909q0 31 31 31h911q31 0 31 -31v-176q0 -31 -31 -31h-911q-31 0 -31 31v176zM127 436q0 31 31 31h911q31 0 31 -31v-178q0 -31 -31 -31h-911q-31 0 -31 31v178z" />
    <glyph glyph-name="greater" unicode="&#x3e;" 
d="M84 18q-12 -4 -16 -4q-21 0 -21 27v141q0 26 23 35l733 371l-733 370q-23 12 -23 37v140q0 26 21 26q10 0 16 -4l1085 -549q19 -6 19 -20q0 -12 -19 -21z" />
    <glyph glyph-name="question" unicode="?" horiz-adv-x="1083" 
d="M123 1280q-39 10 -51 39q-23 61 -23 102q0 93 105.5 155t267.5 62q227 0 342 -88t115 -223q0 -72 -23.5 -128t-60.5 -91.5t-82 -65t-90 -58.5t-82 -62t-60.5 -85t-23.5 -120q0 -54 -0.5 -89t-1 -49.5t-0.5 -19.5q0 -24 -27 -24h-129q-27 0 -27 24q0 7 -1 19.5t-3.5 49
t-5.5 89.5q-3 70 13 128t44 97.5t63 74.5t70.5 66.5t65 65t48 79.5t18.5 101q0 58 -13.5 98.5t-37.5 61t-49 29t-54 8.5q-43 0 -80 -32t-37 -85q0 -61 39 -135q6 -12 6 -23q0 -9 -5.5 -15t-14.5 -3zM285 319q36 39 77 39q44 0 80 -39l80 -79q39 -39 39 -80t-39 -80l-80 -80
q-39 -39 -80 -39q-38 0 -77 39l-82 80q-37 40 -37 80t37 80z" />
    <glyph glyph-name="at" unicode="@" horiz-adv-x="1972" 
d="M1233 -246q-114 -30 -238 -30q-194 0 -370.5 75.5t-304.5 203.5t-203.5 304.5t-75.5 370.5t75.5 370.5t203.5 304.5t304.5 203.5t370.5 75.5q167 0 314.5 -48.5t259.5 -136t194 -206t124 -262.5t42 -301q0 -61 -13.5 -119.5t-43.5 -113.5t-72.5 -96t-106 -66t-139.5 -25
q-94 0 -167.5 -12t-110.5 -25t-94 -39q-8 -4 -17 -4h-6q-2 0 -2 6l23 178q-10 -25 -28.5 -52t-52.5 -59t-92 -52.5t-130 -20.5q-56 0 -114.5 17t-117.5 57.5t-105 99t-75 149.5t-29 201q0 134 38 236.5t104 163t147.5 91t175.5 30.5q198 0 322 -115q27 11 51 22.5t39.5 19.5
t34.5 20t26.5 17t24 17t20.5 15q1 0 5 3t6 3h4q2 0 2 -4v-648q1 -40 6 -70t16.5 -58.5t35 -45t58.5 -20.5q105 -6 163.5 78.5t58.5 220.5q0 165 -55 311t-153.5 254.5t-246.5 171t-324 62.5q-163 0 -311 -63.5t-254.5 -170.5t-169.5 -255t-63 -310q0 -217 106.5 -401
t290.5 -291t401 -107q97 0 195 25zM1159 885q-7 36 -20 67t-37.5 65.5t-67 54.5t-98.5 20q-69 0 -119 -27t-76 -74.5t-37.5 -102t-11.5 -120.5q0 -190 76 -302t199 -112q41 0 76 13.5t55.5 33t35 38.5t20.5 33l5 13v400z" />
    <glyph glyph-name="A" unicode="A" horiz-adv-x="1609" 
d="M1415 317q4 -10 13 -33.5t13 -33.5t12.5 -29t14 -28t14 -23t17 -20.5t19 -13.5t23 -10t26.5 -3q30 0 30 -31v-61q0 -31 -30 -31h-629q-31 0 -31 31v61q0 31 31 31q65 0 112.5 40.5t47.5 100.5q0 20 -11 53l-63 175h-561l-62 -175q-8 -24 -8 -51q0 -61 47.5 -102
t112.5 -41q31 0 31 -31v-61q0 -31 -31 -31h-510q-31 0 -31 31v61q0 31 31 31q15 0 27.5 2.5t23.5 10t19.5 14t17.5 20t14.5 22.5t13.5 28t12 29t13 34t13 34l440 1192q9 27 35 27h248q25 0 34 -25zM526 670h432l-221 598z" />
    <glyph glyph-name="B" unicode="B" horiz-adv-x="1476" 
d="M752 1536q134 0 248.5 -44.5t185.5 -130.5t71 -196q0 -82 -50.5 -157.5t-155.5 -128.5q340 -99 340 -426q0 -87 -39 -169t-108.5 -145t-173.5 -101t-226 -38h-752q-31 0 -31 31v61q0 31 31 31h2q150 0 150 194v902q0 194 -150 194h-2q-31 0 -31 31v61q0 31 31 31h660z
M686 918q139 0 201.5 67.5t62.5 179.5q0 113 -68.5 180.5t-187.5 67.5h-137v-495h129zM756 123q150 0 238.5 93t88.5 237q0 169 -94 244t-301 75h-119v-455q0 -183 136 -194h51z" />
    <glyph glyph-name="C" unicode="C" horiz-adv-x="1531" 
d="M1495 492q2 -1 5.5 -3t5 -3l4.5 -3l4.5 -3t3.5 -3t2.5 -4t1.5 -4.5t1 -5.5t-1 -6.5t-2 -7.5q-28 -69 -66.5 -131t-99.5 -125.5t-133 -109t-172.5 -74.5t-214.5 -29q-181 0 -326 58.5t-240 162.5t-145.5 244.5t-50.5 306.5q0 77 10.5 152.5t36 156.5t64.5 152.5
t99.5 135.5t136.5 110t180.5 73t227.5 27q105 0 203.5 -25.5t185.5 -75.5t149.5 -134.5t86.5 -193.5l2 -12q0 -32 -35 -41l-262 -92q-20 -4 -27 -4q-12 0 -18.5 5.5t-5.5 14.5l4 31l2 37q0 59 -15 113.5t-47.5 105t-94 81t-144.5 30.5q-71 0 -130.5 -25t-101 -68.5
t-72.5 -98.5t-49.5 -119t-27 -125t-8.5 -121q0 -203 46.5 -350.5t147.5 -233.5t250 -86q87 0 161.5 21.5t125 53.5t93.5 79t68 88.5t48 91.5q12 26 35 26q13 0 26 -8z" />
    <glyph glyph-name="D" unicode="D" horiz-adv-x="1617" 
d="M723 1536q177 0 327.5 -52t260.5 -148.5t172.5 -242t62.5 -323.5q0 -131 -27.5 -244.5t-87.5 -211t-149 -167t-217 -108.5t-285 -39h-688q-31 0 -31 31v61q0 31 31 31h14q138 8 138 194v902q0 194 -150 194h-2q-31 0 -31 31v61q0 31 31 31h631zM569 328q0 -41 1.5 -64
t9.5 -51.5t24 -43.5t45 -25.5t72 -10.5q147 0 248 42t159 127t82.5 198t24.5 270q0 306 -148 474.5t-421 168.5h-97v-1085z" />
    <glyph glyph-name="E" unicode="E" horiz-adv-x="1546" 
d="M1487 438q18 -9 18 -26q0 -8 -6 -17l-192 -405q-6 -19 -25 -19q-9 0 -18 9l-11 10q-12 10 -41 10h-1120q-31 0 -31 31v61q0 31 31 31h2q150 0 150 194v900q0 194 -150 194h-2q-31 0 -31 31v61q0 33 31 33h1026q27 0 39 10l12 10q7 7 17 7q16 0 26 -17l162 -278
q6 -9 6 -19q0 -14 -16 -24l-86 -47q-10 -7 -18 -7q-16 0 -25 19l-6 10q-60 103 -133 147t-195 44h-344v-482h193q186 0 194 138v14q0 31 31 31h61q31 0 31 -31v-465q0 -31 -31 -31h-61q-31 0 -31 31v12q-8 137 -194 137h-181v-405q0 -190 142 -195h133q47 0 79 1.5t75.5 8.5
t76 19t73 34.5t75 55t73.5 80.5t76 109l6 12q13 16 27 16q4 0 16 -4z" />
    <glyph glyph-name="F" unicode="F" horiz-adv-x="1421" 
d="M1374 1268q6 -9 6 -19q0 -14 -16 -24l-86 -47q-12 -4 -18 -4q-15 0 -25 16l-6 12q-113 189 -369 189h-303v-502h193q186 0 194 139v14q0 31 31 31h61q31 0 31 -31v-467q0 -30 -31 -30h-61q-31 0 -31 30v13q-8 139 -194 139h-181v-410q0 -186 140 -194h14q31 0 31 -31v-61
q0 -31 -31 -31h-631q-31 0 -31 31v61q0 31 31 31h12q140 8 140 194v902q0 194 -150 194h-2q-31 0 -31 31v61q0 31 31 31h1026q27 0 39 10l12 10q6 9 17 9q16 0 26 -19z" />
    <glyph glyph-name="G" unicode="G" horiz-adv-x="1581" 
d="M1509 762q31 0 31 -31v-61q0 -31 -31 -31h-16q-29 0 -41 -16t-12 -52v-221q-20 -55 -70 -121q-200 -249 -557 -249q-165 0 -304.5 59t-235 162t-148.5 245t-53 306q0 76 10.5 152t36 156.5t64.5 152t99 136t136 110.5t180.5 73t226.5 27q105 0 203.5 -25.5t185.5 -75.5
t150 -134.5t88 -193.5l2 -14q0 -30 -37 -39l-262 -92q-10 -4 -25 -4q-12 0 -18.5 5.5t-5.5 14.5l4 31l2 37q0 59 -15 113.5t-47.5 105t-94.5 81t-146 30.5q-70 0 -129.5 -25t-100.5 -68.5t-72.5 -98.5t-49.5 -119t-26.5 -125t-8.5 -121q0 -123 27 -239t79.5 -214
t139.5 -157.5t196 -59.5q42 0 81 6.5t74.5 20t57 39t21.5 59.5v106q0 42 -4.5 76t-15.5 58t-21 41t-29.5 28t-32 17.5t-38.5 9.5t-38 4t-40 2h-15q-30 0 -30 31v61q0 31 30 31h645z" />
    <glyph glyph-name="H" unicode="H" horiz-adv-x="1839" 
d="M1597 317q0 -186 138 -194h12q31 0 31 -31v-61q0 -31 -31 -31h-629q-31 0 -31 31v61q0 31 31 31h12q140 8 140 194v390h-701v-390q0 -186 140 -194h12q31 0 31 -31v-61q0 -31 -31 -31h-629q-31 0 -31 31v61q0 31 31 31h12q138 8 138 194v902q0 186 -138 194h-12
q-31 0 -31 31v61q0 31 31 31h629q31 0 31 -31v-61q0 -31 -31 -31h-12q-140 -8 -140 -194v-351h701v351q0 186 -140 194h-12q-31 0 -31 31v61q0 31 31 31h629q31 0 31 -31v-61q0 -31 -31 -31h-12q-138 -8 -138 -194v-902z" />
    <glyph glyph-name="I" unicode="I" horiz-adv-x="833" 
d="M582 317q0 -186 137 -194h12q31 0 31 -31v-61q0 -31 -31 -31h-629q-30 0 -30 31v61q0 31 30 31h15q137 8 137 194v902q0 186 -137 194h-15q-30 0 -30 31v61q0 31 30 31h629q31 0 31 -31v-61q0 -31 -31 -31h-12q-137 -8 -137 -194v-902z" />
    <glyph glyph-name="J" unicode="J" horiz-adv-x="1075" 
d="M993 1536q31 0 31 -31v-61q0 -31 -31 -31h-12q-139 -8 -139 -194v-773q0 -72 -10 -132.5t-40.5 -125t-81 -109t-137 -73.5t-202.5 -29q-77 0 -142 23.5t-104 57.5t-66.5 73.5t-38 70.5t-10.5 50q0 32 33 49l203 109q8 4 12 4q11 0 18.5 -9.5t6.5 -27.5q-7 -44 -7 -78
q0 -80 27.5 -134t87.5 -54q125 0 125 151v957q0 186 -139 194h-15q-30 0 -30 31v61q0 31 30 31h631z" />
    <glyph glyph-name="K" unicode="K" horiz-adv-x="1634" 
d="M1587 123q31 0 31 -31v-61q0 -31 -31 -31h-629q-30 0 -30 31v61q0 31 30 31h13q52 3 81 29t29 67q0 46 -37 98l-299 422l-174 -188v-234q0 -186 138 -194h12q31 0 31 -31v-61q0 -31 -31 -31h-629q-31 0 -31 31v61q0 31 31 31h14q138 8 138 194v902q0 186 -135 194h-17
q-31 0 -31 31v61q0 31 31 31h631q31 0 31 -31v-61q0 -31 -31 -31h-14q-138 -8 -138 -196v-404l402 447l63 69q21 28 21 49q0 37 -41 37h-43q-11 0 -19 8.5t-8 22.5v61q0 13 9 22t22 9h518q28 0 31 -31v-61q0 -14 -8 -22.5t-19 -8.5h-24q-62 0 -108 -27t-120 -108l-301 -326
l426 -637q13 -19 37 -58t36 -55t33 -38.5t44 -31.5t53 -11h12z" />
    <glyph glyph-name="L" unicode="L" horiz-adv-x="1452" 
d="M1393 438q18 -9 18 -26q0 -8 -6 -17l-193 -405q-6 -19 -24 -19q-10 0 -19 9l-10 10q-12 10 -41 10h-1026q-31 0 -31 31v61q0 31 31 31h2q150 0 150 194v900q0 194 -150 194h-2q-31 0 -31 31v61q0 33 31 33h621q16 0 27.5 -9.5t11.5 -23.5v-61q0 -12 -21 -21.5t-37 -9.5
h-125v-1071q0 -190 142 -195h80q53 0 90 3.5t92 20.5t99.5 48.5t99.5 91t106 144.5l6 12q13 16 27 16q4 0 16 -4z" />
    <glyph glyph-name="M" unicode="M" horiz-adv-x="2121" 
d="M1878 317q0 -86 39.5 -140t112.5 -54q30 0 30 -31v-61q0 -31 -30 -31h-506q-31 0 -31 31v61q0 31 31 31q72 0 110.5 53.5t38.5 140.5v777l-483 -979q-10 -23 -35 -23h-188q-24 0 -37 23l-481 979v-777q0 -87 38.5 -140.5t110.5 -53.5q31 0 31 -31v-61q0 -31 -31 -31h-506
q-31 0 -31 31v61q0 31 31 31q73 0 112.5 54t39.5 140v1065q-53 31 -127 31q-31 0 -31 31v61q0 31 31 31h385q22 0 37 -18l522 -1057l522 1057q15 18 37 18h385q31 0 31 -31v-61q0 -31 -31 -31q-74 0 -127 -31v-1065z" />
    <glyph glyph-name="N" unicode="N" horiz-adv-x="1824" 
d="M1774 1536q30 0 30 -31v-61q0 -31 -30 -31q-73 0 -112.5 -53.5t-37.5 -140.5v-1188q0 -31 -31 -31h-141q-22 0 -37 18l-969 1115v-816q0 -86 39.5 -140t112.5 -54q31 0 31 -31v-61q0 -31 -31 -31h-506q-31 0 -31 31v61q0 31 31 31q73 0 111.5 53.5t38.5 140.5v1045
q-60 51 -129 51q-31 0 -31 31v61q0 31 31 31h354q22 0 37 -18l915 -1045v746q0 88 -39 141t-112 53q-31 0 -31 31v61q0 31 31 31h506z" />
    <glyph glyph-name="O" unicode="O" horiz-adv-x="1683" 
d="M674 1544q75 17 155 17q271 0 487.5 -178t276.5 -457q19 -90 19 -170q0 -181 -76 -342t-214.5 -273.5t-315.5 -150.5q-87 -17 -154 -17q-178 0 -337.5 79.5t-272.5 224.5t-152 329q-18 86 -18 170q0 181 75 343t213 275t314 150zM713 1370q-91 -19 -158 -66t-105 -114
t-55.5 -142.5t-17.5 -162.5q0 -103 22 -213q22 -100 60 -188t95 -163.5t139 -120t179 -44.5q39 0 97 10q91 19 158.5 66t105.5 113.5t56 141.5t18 162q0 90 -25 211q-21 100 -59 189t-95.5 165.5t-140 121t-180.5 44.5q-39 0 -94 -10z" />
    <glyph glyph-name="P" unicode="P" horiz-adv-x="1433" 
d="M571 317q0 -186 138 -194h12q31 0 31 -31v-61q0 -31 -31 -31h-629q-31 0 -31 31v61q0 31 31 31h14q138 8 138 194v902q0 194 -148 194h-2q-31 0 -31 31v61q0 31 31 31h752q121 0 225 -38t173.5 -101t109 -145t39.5 -169q0 -102 -35 -183.5t-111 -146.5t-208.5 -100
t-313.5 -35h-154v-301zM690 764q206 0 300.5 75t94.5 244q0 144 -89 237t-240 93h-197v-649h131z" />
    <glyph glyph-name="Q" unicode="Q" horiz-adv-x="1683" 
d="M1528 -293q4 -6 4 -18q0 -15 -16 -25q-124 -62 -229.5 -95.5t-221.5 -33.5q-92 0 -165 16.5t-118.5 42.5t-75 62.5t-41.5 73.5t-12 77q0 104 84 175q-237 36 -416 205.5t-231 418.5q-18 86 -18 170q0 181 75 343t213 275t314 150q90 17 155 17q270 0 487 -178.5
t277 -456.5q19 -90 19 -170q0 -254 -145.5 -461t-381.5 -285q-2 -1 -22.5 -8t-24.5 -8.5t-22 -9t-23 -11t-19.5 -12t-19 -14.5t-14 -16.5t-13 -21t-6.5 -24t-3 -28.5q0 -127 188 -127q51 0 113 13t105.5 27t117.5 40q12 4 16 4q16 0 25 -19zM399 672q22 -101 60 -189
t95 -163.5t139 -119.5t179 -44q53 0 97 10q91 19 158.5 66t105.5 113.5t56 141.5t18 162q0 88 -25 209q-21 101 -59 190t-95.5 165.5t-140 121.5t-180.5 45q-45 0 -94 -12q-91 -19 -158 -66t-105 -113.5t-55.5 -141.5t-17.5 -162q0 -106 22 -213z" />
    <glyph glyph-name="R" unicode="R" horiz-adv-x="1634" 
d="M1587 123q31 0 31 -31v-61q0 -31 -31 -31h-629q-30 0 -30 31v61q0 31 30 31h13q49 3 74.5 30t25.5 70q0 45 -27 94l-186 349q-72 -7 -133 -7h-154v-342q0 -186 138 -194h12q31 0 31 -31v-61q0 -31 -31 -31h-629q-31 0 -31 31v61q0 31 31 31h14q138 8 138 194v902
q0 194 -148 194h-2q-31 0 -31 31v61q0 31 31 31h752q121 0 225 -35t173.5 -94t109 -137.5t39.5 -165.5q0 -112 -59.5 -208.5t-184.5 -156.5l223 -422q21 -39 31.5 -57.5t31.5 -49t39 -45.5t45 -27.5t58 -14.5h10zM690 805q199 0 297 78t98 221q0 142 -88 225.5t-241 83.5
h-185v-608h119z" />
    <glyph glyph-name="S" unicode="S" horiz-adv-x="1480" 
d="M1268 1051q-18 -7 -25 -7q-19 0 -35 23q-124 154 -255.5 229.5t-243.5 75.5q-42 0 -78 -8t-69.5 -26t-53 -54.5t-19.5 -87.5q0 -45 27 -84t76 -67.5t100.5 -49t118.5 -39.5q57 -17 94.5 -28.5t91.5 -29.5t90.5 -33.5t83 -36.5t78 -43t66.5 -49t57 -57t41 -64.5t28 -75.5
t9 -86q0 -207 -159.5 -338t-436.5 -131q-184 0 -334 75q-18 7 -26 7q-12 0 -16.5 -11.5t1.5 -31.5q4 -10 4 -25q0 -26 -32 -23h-103q-36 0 -51 29l-248 465q-8 11 -8 25q0 21 22 34l91 52q11 8 24 8q19 0 35 -25q135 -207 303 -311.5t350 -104.5q130 0 203.5 59t73.5 154
q0 31 -6.5 58t-17 48.5t-29.5 40.5t-37 33t-46.5 28t-51 23.5t-58 21t-61 18.5t-64.5 18t-65 19q-136 40 -237 90t-158.5 98.5t-91.5 105t-45 103t-11 100.5q0 171 140 271t378 100q100 0 198.5 -31.5t151.5 -62.5l12 -4q23 0 5 61q-2 6 -2 19q0 30 36 30h74q37 0 51 -35
l144 -366q8 -20 8 -29q0 -17 -23 -31z" />
    <glyph glyph-name="T" unicode="T" horiz-adv-x="1613" 
d="M1577 1247q6 -9 6 -18q0 -16 -18 -25l-86 -47q-12 -4 -17 -4q-13 0 -26 16l-6 13q-112 188 -367 188h-107v-1053q0 -186 140 -194h14q31 0 31 -31v-61q0 -31 -31 -31h-631q-30 0 -30 31v61q0 31 30 31h13q139 8 139 194v1053h-101q-256 0 -368 -188l-6 -13
q-10 -16 -25 -16q-6 0 -18 4l-86 47q-17 10 -17 25q0 9 6 18l162 299q10 19 27 19q10 0 16 -9l12 -10q12 -10 39 -10h1047q29 0 41 10l10 10q9 9 19 9q15 0 24 -19z" />
    <glyph glyph-name="U" unicode="U" horiz-adv-x="1654" 
d="M1604 1536q30 0 30 -31v-61q0 -31 -30 -31h-15q-137 -8 -137 -194v-656q0 -590 -586 -590q-303 0 -468 150.5t-165 419.5v676q0 186 -137 194h-14q-31 0 -31 31v61q0 31 31 31h629q30 0 30 -31v-61q0 -31 -30 -31h-13q-137 -8 -137 -194v-635q0 -76 7 -133.5t30 -116
t61.5 -96t106 -61t160.5 -23.5q86 0 149 31.5t99.5 91t53.5 135.5t17 172v635q0 186 -137 194h-12q-31 0 -31 31v61q0 31 31 31h508z" />
    <glyph glyph-name="V" unicode="V" horiz-adv-x="1605" 
d="M1565 1542q30 0 30 -31v-61q0 -31 -30 -31q-15 0 -27.5 -2.5t-23.5 -10t-19.5 -13.5t-17.5 -20.5t-14 -22t-14 -28.5t-12 -29.5t-13 -34.5t-13 -35l-440 -1198q-9 -25 -35 -25h-248q-26 0 -35 25l-460 1198q-4 9 -13 34t-13 34t-12.5 29.5t-13.5 28.5t-14.5 22.5
t-17.5 20.5t-18.5 14t-23 10.5t-26.5 2.5q-31 0 -31 31v61q0 31 31 31h629q13 0 21.5 -8.5t8.5 -22.5v-61q0 -31 -30 -31q-65 0 -112.5 -40.5t-47.5 -100.5q0 -22 10 -55l357 -934l329 934q8 24 8 51q0 62 -47.5 103.5t-111.5 41.5q-31 0 -31 31v61q0 13 9 22t22 9h510z" />
    <glyph glyph-name="W" unicode="W" horiz-adv-x="2471" 
d="M2431 1542q31 0 31 -31v-61q0 -31 -31 -31q-26 0 -47 -11.5t-33.5 -24.5t-28 -46t-21.5 -50.5t-22 -63.5l-421 -1198q-9 -25 -35 -25h-246q-26 0 -35 25l-303 823l-289 -823q-9 -25 -35 -25h-247q-26 0 -35 25l-440 1198q-40 109 -59 139q-36 57 -93 57q-31 0 -31 31v61
q0 31 31 31h629q13 0 21.5 -8.5t8.5 -22.5v-61q0 -31 -30 -31q-65 0 -112.5 -41t-47.5 -102q0 -23 10 -53l336 -934l279 841l-35 93q-40 109 -59 139q-36 57 -91 57q-30 0 -30 31v61q0 31 30 31h627q31 0 31 -31v-61q0 -31 -31 -31h-53q-41 0 -76 -32.5t-35 -88.5
q0 -33 12 -63l338 -946l310 934q8 24 8 51q0 62 -47 103.5t-111 41.5q-31 0 -31 31v61q0 31 31 31h508z" />
    <glyph glyph-name="X" unicode="X" horiz-adv-x="1746" 
d="M1694 137q32 0 32 -35v-67q0 -35 -32 -35h-609q-34 0 -34 35v67q0 35 34 35h5q32 0 58 11t26 38q0 28 -33 66l-340 414l-297 -383q-68 -91 -68 -117q0 -29 56 -29h45q34 0 34 -35v-67q0 -35 -34 -35h-500v2q-17 10 -17 33v67q0 24 17 31v4h29q60 0 94.5 26t95.5 103
l12 15l414 530l-363 442q-122 146 -202 146h-4q-35 0 -35 35v67q0 35 35 35h594q34 0 34 -35v-67q0 -35 -32 -35h-4q-84 0 -84 -35q0 -28 38 -72l271 -329l229 292q68 88 68 115q0 29 -56 29h-22q-35 0 -35 35v69q0 35 35 35h481q35 0 35 -35v-69q0 -35 -35 -35h-33
q-27 0 -49.5 -6.5t-37.5 -14t-37.5 -31t-34.5 -38t-43 -54.5l-346 -438l438 -534q119 -146 201 -146h6z" />
    <glyph glyph-name="Y" unicode="Y" horiz-adv-x="1626" 
d="M1575 1542q31 0 31 -31v-61q0 -31 -31 -31q-140 0 -256 -196l-315 -541q-11 -16 -11 -39v-326q0 -186 137 -194h15q31 0 31 -31v-61q0 -31 -31 -31h-631q-31 0 -31 31v61q0 31 31 31h12q140 8 140 194v316q0 17 -13 37l-368 553q-73 109 -122.5 152.5t-111.5 43.5
q-31 0 -31 31v61q0 31 31 31h711q14 0 22.5 -9t8.5 -22v-61q0 -31 -31 -31q-62 0 -103 -23.5t-41 -72.5q0 -43 35 -100l240 -389l221 389q45 80 45 129q0 67 -94 67q-31 0 -31 31v61q0 13 9 22t22 9h510z" />
    <glyph glyph-name="Z" unicode="Z" horiz-adv-x="1525" 
d="M1470 352q17 -10 17 -24q0 -10 -6 -19l-164 -319q-10 -17 -25 -17q-8 0 -18 7l-10 10q-12 10 -39 10h-1164q-30 0 -30 31v135l936 1204h-349q-245 0 -366 -211l-8 -10q-10 -19 -25 -19q-7 0 -18 7l-86 47q-17 10 -17 24q0 10 6 19l162 319q14 17 27 17q7 0 18 -7l11 -10
q12 -10 38 -10h1082q26 0 26 -18q0 -5 -8 -21l-1009 -1317l276 6q283 4 416 46t190 143l8 12q10 16 25 16q6 0 18 -4z" />
    <glyph glyph-name="bracketleft" unicode="[" horiz-adv-x="833" 
d="M639 -252q31 0 31 -31v-96q0 -31 -31 -31h-444q-31 0 -31 31v1923q0 31 31 31h444q31 0 31 -31v-96q0 -31 -31 -31h-236v-1669h236z" />
    <glyph glyph-name="backslash" unicode="\" horiz-adv-x="1024" 
d="M285 1577q-8 25 -35 25h-168q-37 0 -25 -35l656 -1821q8 -25 35 -25h167q37 0 25 35z" />
    <glyph glyph-name="bracketright" unicode="]" horiz-adv-x="833" 
d="M639 1575q31 0 31 -31v-1923q0 -31 -31 -31h-444q-31 0 -31 31v96q0 31 31 31h235v1669h-235q-31 0 -31 31v96q0 31 31 31h444z" />
    <glyph glyph-name="asciicircum" unicode="^" 
d="M41 477q-4 -8 -4 -14q0 -21 26 -21h142q25 0 37 23l370 733l369 -733q11 -23 37 -23h141q27 0 27 21q0 6 -4 14l-549 1088q-8 16 -21 16q-14 0 -22 -16z" />
    <glyph glyph-name="underscore" unicode="_" 
d="M88 -127q6 27 35 27h1022q36 0 26 -33l-45 -180q-9 -25 -34 -25h-1022q-17 0 -24.5 9t-2.5 24z" />
    <glyph glyph-name="grave" unicode="`" 
d="M821 1184q-95 122 -137.5 194t-81.5 174q-10 24 -37 27q-12 2 -39 2q-63 0 -103 -26.5t-40 -77.5q0 -59 33.5 -115t86 -98t106 -71.5t104.5 -47.5q6 -2 14 -2q5 0 21 4z" />
    <glyph glyph-name="a" unicode="a" horiz-adv-x="1267" 
d="M1092 379q1 -41 6 -71.5t17 -60t36.5 -47.5t60.5 -22q25 -2 25 -26v-68q0 -29 -31 -29q-94 0 -169 -12.5t-111.5 -25.5t-96.5 -40q-8 -4 -18 -4h-4q-2 0 -2 7l22 182q-9 -21 -21 -41.5t-38 -48.5t-58.5 -48.5t-83.5 -35.5t-110 -15t-119 17.5t-121 59t-108.5 102
t-77 154.5t-29.5 208q0 110 26 201t71 152.5t107 103.5t131 61t145 19q196 0 331 -119q24 10 44.5 19t39 19.5t30.5 16.5t28 17t21 14.5t22 15.5t18 13q4 4 8 4h7q2 0 2 -4v-668zM805 700q-6 36 -19.5 69t-38.5 67.5t-68.5 55.5t-100.5 21q-72 0 -123 -27.5t-78 -76
t-39 -105t-12 -124.5q0 -195 77.5 -310.5t204.5 -115.5q43 0 78.5 14t56.5 33.5t36 39.5t21 34l5 14v411z" />
    <glyph glyph-name="b" unicode="b" horiz-adv-x="1247" 
d="M156 1085q0 40 -1.5 67t-8.5 60t-19.5 53.5t-35.5 36.5t-56 19q-25 3 -25 27v69q0 11 6.5 16.5t22.5 10.5q234 78 385 190q8 4 10 4h4q2 0 2 -4v-684q29 43 97 72t151 29q69 0 136.5 -17.5t134 -59t116 -102t80.5 -154t31 -208.5q0 -238 -145.5 -386.5t-391.5 -148.5
q-106 0 -192.5 26t-155.5 79.5t-107 145t-38 214.5v645zM440 397q0 -142 67 -215t163 -73q58 0 102.5 19t72.5 50t45.5 75t24.5 90.5t7 100.5q0 199 -84.5 312.5t-239.5 113.5q-88 0 -158 -53v-420z" />
    <glyph glyph-name="c" unicode="c" horiz-adv-x="1052" 
d="M967 276q23 -18 12 -43q-103 -221 -373 -249q-18 -2 -55 -2q-112 0 -209 49.5t-160.5 130t-95.5 185.5t-23 214q8 99 42.5 181t85.5 138t116 95t133.5 56.5t139.5 17.5l38 -2q90 -6 159 -32.5t111 -67t66 -85t35 -96.5l2 -8q0 -23 -24 -29l-236 -61q-12 -4 -16 -4
q-9 0 -14 4t-3 10l2 22q6 89 -36 137t-132 48q-91 0 -142.5 -72.5t-61.5 -185.5q-2 -27 -2 -78q0 -63 9 -119t29.5 -107t52 -87.5t79.5 -58t108 -21.5q6 0 19 1t20 1q62 6 123.5 43.5t103.5 103.5q11 14 25 14q9 0 18 -6z" />
    <glyph glyph-name="d" unicode="d" horiz-adv-x="1267" 
d="M1092 379q1 -41 6 -71.5t17 -60t36.5 -47.5t60.5 -22q25 -2 25 -26v-68q0 -29 -31 -29q-94 0 -169 -12.5t-111.5 -25.5t-96.5 -40q-8 -4 -16 -4h-6q-2 0 -2 7l22 182q-9 -21 -21 -41.5t-38 -48.5t-58.5 -48.5t-83.5 -35.5t-110 -15t-119 17.5t-121 59t-108.5 102
t-77 154.5t-29.5 208q0 110 26 201t71 152.5t107 103.5t131 61t145 19q153 0 264 -97v131q0 40 -1.5 67t-8.5 60t-19.5 53.5t-35.5 36.5t-56 19q-25 3 -25 27v69q0 17 31 27q236 79 385 190q4 4 8 4h7q2 0 2 -4v-1255zM805 664q-11 100 -70.5 165.5t-156.5 65.5
q-252 0 -252 -315q0 -195 77.5 -310.5t204.5 -115.5q43 0 78.5 18t56.5 43.5t36 51t21 43.5l5 18v336z" />
    <glyph glyph-name="e" unicode="e" horiz-adv-x="1054" 
d="M358 367q39 -95 118 -158.5t190 -63.5q70 0 140 38.5t122 113.5q5 8 16 8q16 0 82 -39q8 -5 8 -16q0 -15 -12 -35q-131 -240 -412 -240q-124 0 -228.5 43.5t-174 118.5t-108 174.5t-38.5 210.5q0 137 41.5 241t112.5 164.5t155 90t179 29.5q78 0 147.5 -26t118.5 -68.5
t85 -95t53.5 -105.5t17.5 -101q0 -19 -19 -24zM664 659q0 98 -47.5 162t-118.5 64q-83 0 -133 -66t-50 -168q0 -99 19 -157z" />
    <glyph glyph-name="f" unicode="f" horiz-adv-x="823" 
d="M223 1040q0 78 13.5 156t47 159.5t84.5 143t133 100.5t185 39q157 0 239.5 -60t82.5 -157q0 -49 -21 -102q-12 -29 -51 -39l-215 -47l-4 -2q-13 0 -15.5 14.5t5.5 28.5q38 72 38 135q0 54 -28.5 85.5t-67.5 31.5q-50 0 -86 -45q-37 -44 -51 -121t-14 -201v-135h274
q31 0 31 -31v-88q0 -31 -31 -31h-274v-557q0 -87 39 -140.5t112 -53.5q31 0 31 -31v-61q0 -31 -31 -31h-577q-31 0 -31 31v61q0 31 31 31q73 0 112 54t37 140v351q0 31 -0.5 48.5t-3.5 45.5t-8.5 45t-16.5 37t-26.5 31t-39 18.5t-54.5 7.5t-31 31v61q0 31 31 31h151v16z" />
    <glyph glyph-name="g" unicode="g" horiz-adv-x="1069" 
d="M1036 1087q27 0 27 -30q7 -97 -33.5 -153t-111.5 -58q49 -82 49 -189q0 -168 -123 -279.5t-328 -111.5q-141 0 -248 58q-26 -20 -26 -52q0 -34 21.5 -53.5t87.5 -33t190 -19.5q81 -4 142.5 -12.5t127.5 -29t108 -52t69.5 -85t27.5 -124.5q0 -80 -44.5 -141t-119.5 -95
t-162 -50.5t-184 -16.5q-129 0 -231.5 26t-168 83.5t-65.5 140.5q0 123 123 192q-105 66 -105 186q0 67 34.5 117t92.5 74q-120 111 -120 278q2 167 123.5 279.5t326.5 112.5q165 0 283 -78l10 -4q12 -4 18 -4q40 0 37 53v6q0 26 23 31l141 32zM516 928q-56 0 -97 -25
t-62.5 -66.5t-31.5 -86.5t-10 -93q0 -49 10 -93.5t31.5 -86t62.5 -66.5t97 -24q56 0 94.5 24.5t57.5 67t26.5 85.5t7.5 93t-7.5 93.5t-26.5 86t-57.5 67t-94.5 24.5zM508 -299q150 0 231.5 28t81.5 76q0 32 -20.5 53.5t-66.5 34.5t-100.5 19t-139.5 10q-106 6 -191 25
q-57 -39 -57 -109q0 -56 61 -96.5t201 -40.5z" />
    <glyph glyph-name="h" unicode="h" horiz-adv-x="1394" 
d="M1343 123q31 0 31 -31v-61q0 -31 -31 -31h-557q-30 0 -30 31v61q0 31 30 31h7q55 0 81.5 53t24.5 141v310v24v39t-1.5 37t-3.5 34.5t-7 30.5t-12.5 26t-18.5 22t-25.5 16.5t-34.5 10t-44 3.5q-77 0 -149.5 -44.5t-100.5 -110.5v-398q0 -87 39 -140.5t112 -53.5h4
q31 0 31 -31v-61q0 -31 -31 -31h-596q-30 0 -30 31v61q0 31 30 31h5q73 0 112 54t37 140v768q0 40 -1.5 67t-8.5 60t-19.5 53.5t-35.5 36.5t-56 19q-24 2 -24 27v69q0 11 6.5 16.5t21.5 10.5q234 78 385 190q8 4 11 4h4q2 0 2 -4v-786q16 31 43.5 63t69 65t101.5 54t126 21
q85 0 148 -20.5t100.5 -54t60 -84t30.5 -101t9 -115.5v-359q0 -87 38.5 -140.5t110.5 -53.5h6z" />
    <glyph glyph-name="i" unicode="i" horiz-adv-x="716" 
d="M356 1208q-53 0 -102 52q-51 48 -51 102q0 51 51 102q49 52 102 52q51 0 103 -52q51 -51 51 -102q0 -54 -51 -102q-52 -52 -103 -52zM655 123q31 0 31 -31v-61q0 -15 -10 -23t-25 -8h-579q-15 0 -25 8t-10 23v61q0 31 31 31h4q73 0 111 53.5t36 140.5v218q0 43 -3.5 72.5
t-14.5 64.5t-37 55.5t-66 24.5q-24 2 -24 26v70q0 11 6.5 16t23.5 10q259 87 377 209q4 4 8 4h5q4 0 6 -2v-768q0 -87 38.5 -140.5t110.5 -53.5h6z" />
    <glyph glyph-name="j" unicode="j" horiz-adv-x="620" 
d="M365 1208q-54 0 -103 52q-51 48 -51 102q0 51 51 102q49 52 103 52q50 0 102 -52q51 -51 51 -102q0 -54 -51 -102q-52 -52 -102 -52zM506 1090q1 0 6 -5v-958q0 -58 -5 -111.5t-18 -111.5t-34 -106.5t-55 -93t-78 -75.5t-105.5 -49t-136.5 -18q-71 0 -130.5 17t-95.5 42
t-61 54t-35 51t-10 36q0 26 23 43l145 105q8 4 14 4q20 0 23 -29q0 -41 6.5 -75.5t21.5 -66t44 -49.5t69 -18q30 0 52.5 10.5t36.5 34.5t22.5 48t12 65.5t4.5 72.5t1 83v545q0 43 -3.5 72.5t-14.5 64.5t-37 55.5t-66 24.5q-24 2 -24 26v70q0 11 7 16t24 10q271 91 385 209
q4 4 8 4z" />
    <glyph glyph-name="k" unicode="k" horiz-adv-x="1292" 
d="M1251 123q27 0 27 -31v-61q0 -31 -31 -31h-502q-30 0 -30 31v63q0 29 26 29h31q22 0 38.5 8.5t16.5 22.5t-16 30l-270 293l-43 -39v-121q0 -124 18.5 -159t91.5 -35q31 0 31 -31v-61q0 -31 -31 -31h-547q-30 0 -30 31v61q0 31 30 31q73 0 112.5 54t37.5 140v768
q0 40 -1.5 67t-8.5 60t-20 53.5t-36.5 36.5t-56.5 19q-25 3 -22 27v69q0 11 6.5 16.5t21.5 10.5q234 78 385 190l8 4h7q2 0 4 -4v-1016l250 228q16 13 16 28q0 27 -41 27h-61q-13 0 -20.5 8.5t-6.5 22.5v61q0 31 31 31h454q31 0 31 -31v-61q0 -31 -27 -31h-24
q-39 0 -75 -16.5t-62.5 -37.5t-94.5 -79l-157 -141l438 -441q37 -37 56 -50t40 -13h6z" />
    <glyph glyph-name="l" unicode="l" horiz-adv-x="710" 
d="M498 317q0 -87 39 -140.5t112 -53.5q31 0 31 -31v-61q0 -31 -31 -31h-588q-30 0 -30 31v61q0 31 30 31q73 0 112.5 54t37.5 140v768q0 40 -1.5 67t-8.5 60t-20 53.5t-36.5 36.5t-56.5 19q-25 3 -22 27v69q0 11 6.5 16.5t21.5 10.5q234 78 385 190l8 4h7q2 0 4 -4v-1317z
" />
    <glyph glyph-name="m" unicode="m" horiz-adv-x="2111" 
d="M2060 123q31 0 31 -31v-61q0 -31 -31 -31h-577q-31 0 -31 31v61q0 31 31 31h10q62 0 84 45t22 149v310v20v41t-1.5 38.5t-5.5 38.5t-10.5 33t-17.5 30t-26 22t-37 15.5t-49 4.5q-163 0 -266 -194v-359q0 -108 33 -151t98 -43h16q31 0 31 -31v-61q0 -31 -31 -31h-557
q-31 0 -31 31v61q0 31 31 31h15q111 0 108 194v310v20v40.5t-1.5 37t-4 35.5t-7 30t-12 27.5t-18.5 21.5t-25.5 17.5t-34.5 9.5t-44 4q-74 0 -148.5 -54t-101.5 -122v-377q0 -85 36 -139.5t95 -54.5h4q31 0 31 -31v-61q0 -31 -31 -31h-576q-30 0 -30 31v61q0 31 30 31h5
q72 0 110.5 53.5t38.5 140.5v258q0 39 -1.5 66t-8.5 60t-20 54t-36.5 37t-56.5 19q-25 3 -22 27v69q0 21 28 27q131 21 241 65.5t165 83.5l8 4h6q2 0 2 -2l-37 -270q146 236 355 236q265 0 325 -201q155 201 377 201q85 0 148.5 -23t101 -59t60 -90t30.5 -106.5t8 -117.5
v-338q0 -86 39.5 -140t110.5 -54h22z" />
    <glyph glyph-name="n" unicode="n" horiz-adv-x="1398" 
d="M1348 123q30 0 30 -31v-61q0 -31 -30 -31h-557q-31 0 -31 31v61q0 31 33 31q56 0 82 52.5t24 141.5v310v20v41t-1.5 38.5t-5.5 38.5t-10.5 33t-17.5 30t-26 22t-37 15.5t-49 4.5q-73 0 -147 -54t-101 -122v-377q0 -87 38.5 -140.5t110.5 -53.5h4q31 0 31 -31v-61
q0 -31 -31 -31h-596q-30 0 -30 31v61q0 31 30 31h5q72 0 110.5 53.5t38.5 140.5v258q0 50 -3.5 83t-14.5 70t-37 58t-66 25q-24 2 -24 27v69q0 21 30 27q131 21 241.5 66t162.5 83q8 4 10 4h4q4 0 4 -2l-37 -270q146 236 355 236q85 0 148.5 -23t101 -59t60 -90t30.5 -106.5
t8 -117.5v-338q0 -87 38.5 -140.5t110.5 -53.5h11z" />
    <glyph glyph-name="o" unicode="o" horiz-adv-x="1175" 
d="M369 1006q101 43 206 43q155 0 289.5 -87t200.5 -237q49 -110 49 -223q0 -156 -82 -287t-225 -195q-99 -45 -207 -45q-156 0 -290 87t-201 237q-48 115 -48 225q0 155 82 287t226 195zM430 866q-125 -54 -125 -215q0 -109 57 -239q54 -118 133 -195.5t169 -77.5
q35 0 81 19q123 55 123 215q0 112 -57 239q-51 117 -130.5 195t-168.5 78q-39 0 -82 -19z" />
    <glyph glyph-name="p" unicode="p" horiz-adv-x="1292" 
d="M465 864q9 21 21 41.5t38.5 48.5t59 48.5t83.5 35.5t111 15q58 0 118 -17.5t121 -59t108 -102t76.5 -154.5t29.5 -208q0 -110 -26 -201t-70.5 -152.5t-105.5 -103.5t-130 -61t-145 -19q-156 0 -267 97v-164q0 -87 39 -141t111 -54q31 0 31 -30v-62q0 -31 -31 -31h-586
q-31 0 -31 31v62q0 30 33 30q73 0 111.5 54t36.5 141v704q0 33 -1 55t-4.5 51t-12 48.5t-21 38.5t-33.5 29.5t-49 13.5q-26 3 -23 26v70q0 27 29 27q95 0 171.5 13.5t108 25t97.5 39.5q8 4 16 4h6q2 0 2 -6zM487 365q11 -105 72 -180.5t158 -75.5q71 0 122 28t78.5 77.5
t39.5 106.5t12 125q0 195 -79 310.5t-206 115.5q-43 0 -78.5 -14t-56.5 -34t-36 -39.5t-21 -33.5l-5 -14v-372z" />
    <glyph glyph-name="q" unicode="q" horiz-adv-x="1280" 
d="M1239 -287q31 0 31 -30v-62q0 -31 -31 -31h-588q-30 0 -30 31v62q0 30 30 30h4q72 0 111 54t39 141v211q-93 -146 -289 -146q-59 0 -119 17.5t-121 59t-108.5 102t-77 154.5t-29.5 208q0 110 26 200.5t71 151.5t107 102.5t131 60t145 18.5q197 0 329 -117q28 12 53 24.5
t40.5 20.5t37 22t27 18t26 18.5t21.5 15.5q6 6 8 6h7q2 0 2 -4v-1143q-2 -87 36.5 -141t110.5 -54zM805 289v260q0 36 -3 70.5t-11 78t-24.5 80t-40 68t-62 49.5t-86.5 18q-72 0 -123 -27.5t-78 -76t-39 -105t-12 -124.5q0 -195 77.5 -310.5t204.5 -115.5q43 0 78.5 14
t56.5 33.5t36 39.5t21 34z" />
    <glyph glyph-name="r" unicode="r" horiz-adv-x="1085" 
d="M473 809q54 116 151.5 179t209.5 63q100 0 165.5 -55.5t65.5 -155.5q0 -55 -10 -86t-43 -45l-193 -78q-6 -4 -18 -4q-19 0 -19 18q0 7 4 19q19 46 19 102q0 53 -26 79.5t-70 26.5q-65 0 -122.5 -56t-82.5 -122v-377q0 -87 38.5 -140.5t110.5 -53.5h4q31 0 31 -31v-61
q0 -31 -31 -31h-596q-30 0 -30 31v61q0 31 30 31h5q72 0 110.5 53.5t38.5 140.5v258q0 50 -3.5 83t-14.5 70t-37 58t-66 25q-24 2 -24 27v69q0 21 30 27q131 21 241.5 66t162.5 83q8 4 10 4h4q4 0 4 -2z" />
    <glyph glyph-name="s" unicode="s" horiz-adv-x="1110" 
d="M922 705q-8 -5 -17 -5q-14 0 -26 15q-85 108 -184.5 159.5t-182.5 51.5q-61 0 -102 -25.5t-41 -79.5q0 -32 18.5 -57.5t55.5 -43.5t70.5 -29.5t84.5 -24.5q178 -44 255 -79q206 -95 206 -278q0 -147 -117 -240.5t-313 -93.5q-130 0 -238 54q-12 6 -18 6q-9 0 -12 -8.5
t1 -22.5q5 -15 5 -16q0 -20 -25 -17h-74q-23 0 -35 21l-176 330q-6 9 -6 18q0 15 17 25l63 36q15 5 19 5q12 0 22 -17q183 -276 465 -276q197 0 197 116q0 17 -5.5 32.5t-18.5 29t-25.5 24.5t-35.5 21.5t-39 18t-45.5 17t-45.5 14.5t-48.5 14.5t-46.5 13.5
q-98 29 -169.5 62.5t-113.5 66.5t-67 72t-33 74t-8 79q0 125 95.5 203t254.5 78q83 0 157 -21.5t116 -44.5q4 -4 8 -4q17 0 2 43q0 3 -1 7.5t-1 6.5q0 21 27 21h53q26 0 35 -23l102 -260q6 -12 6 -20q0 -15 -16 -23z" />
    <glyph glyph-name="t" unicode="t" horiz-adv-x="839" 
d="M813 147q6 -9 6 -18q0 -13 -16 -23l-62 -38q-150 -95 -288 -95q-105 0 -170.5 73.5t-65.5 242.5v379q0 31 -0.5 48.5t-3.5 45.5t-8.5 45t-16.5 37t-26.5 31t-39 18.5t-54.5 7.5t-31 31v61q0 31 31 31h149v137q0 26 19 37q153 85 249 170q8 4 11 4h2q6 0 6 -4v-344h274
q31 0 31 -31v-88q0 -31 -31 -31h-274v-585q0 -139 86 -139q51 0 145 59h2q9 6 19 6q13 0 24 -14z" />
    <glyph glyph-name="u" unicode="u" horiz-adv-x="1349" 
d="M1184 414q0 -50 3.5 -83t14.5 -70t37 -58t66 -25q25 -3 22 -26v-68q0 -29 -29 -29q-94 0 -169 -12.5t-111 -25.5t-96 -40q-8 -4 -17 -4h-6q-2 0 -2 7l33 258q-23 -47 -56.5 -90.5t-79 -84.5t-107 -65.5t-128.5 -24.5q-85 0 -148.5 23t-101 59t-60 90t-30.5 106.5
t-8 117.5v338q0 86 -39.5 140t-112.5 54h-8q-31 0 -31 31v61q0 31 31 31h416q31 0 31 -31v-596v-17v-47t3 -44t8 -43.5t16 -35.5t26 -30.5t39 -18t55 -7.5q74 0 148.5 53.5t101.5 120.5v379q0 86 -39.5 140t-110.5 54h-4q-30 0 -30 31v61q0 31 30 31h412q31 0 31 -31v-579z
" />
    <glyph glyph-name="v" unicode="v" 
d="M1186 1024q31 0 31 -31v-61q0 -14 -8.5 -22.5t-22.5 -8.5h-31q-33 0 -59 -26.5t-60 -100.5l-346 -751q-10 -23 -35 -23h-108q-24 0 -37 23l-344 749q-35 78 -57.5 103.5t-61.5 25.5h-4q-31 0 -31 31v61q0 31 31 31h473q31 0 31 -31v-61q0 -31 -31 -31h-4q-70 0 -70 -59
q0 -47 43 -135l189 -400l172 400q49 107 49 151q0 43 -45 43h-41q-13 0 -22 8.5t-9 22.5v61q0 31 31 31h377z" />
    <glyph glyph-name="w" unicode="w" horiz-adv-x="1908" 
d="M1866 1024q30 0 30 -31v-61q0 -14 -8.5 -22.5t-21.5 -8.5h-31q-33 0 -59 -26.5t-60 -100.5l-325 -751q-9 -23 -35 -23h-109q-24 0 -37 23l-270 626l-270 -626q-9 -23 -35 -23h-109q-24 0 -37 23l-323 749q-33 77 -56.5 103t-62.5 26h-4q-31 0 -31 31v61q0 31 31 31h473
q31 0 31 -31v-61q0 -31 -31 -31h-4q-70 0 -70 -59q0 -47 43 -135l164 -383l176 436q27 64 27 98q0 43 -43 43h-45q-27 3 -27 31v61q0 31 29 31h491q31 0 31 -31v-61q0 -31 -31 -31h-24q-70 0 -70 -59q0 -44 41 -135l166 -383l176 436q27 64 27 98q0 43 -43 43h-41
q-31 0 -31 31v61q0 31 31 31h377z" />
    <glyph glyph-name="x" unicode="x" horiz-adv-x="1234" 
d="M1188 123q31 0 31 -31v-61q0 -31 -31 -31h-524q-31 0 -31 31v61q0 14 8.5 22.5t22.5 8.5h4q27 0 51 10t24 33q0 26 -30 59l-176 213l-144 -186q-61 -81 -61 -105t51 -24h39q31 0 31 -31v-61q0 -31 -31 -31h-389v2q-17 7 -17 29v61q0 20 15 27v4h24q58 0 90 25t93 102
l221 282l-199 240q-108 129 -180 129h-4q-31 0 -31 31v61q0 31 31 31h514q31 0 31 -31v-61q0 -14 -8.5 -22.5t-22.5 -8.5h-4q-76 0 -76 -29q0 -22 37 -65l137 -168l102 133q62 78 62 105q0 24 -49 24h-21q-30 0 -30 31v61q0 31 30 31h375q31 0 31 -31v-61q0 -31 -31 -31h-29
q-25 0 -45.5 -6t-33 -11.5t-33.5 -27.5t-30 -33t-40 -49l-178 -231l240 -291q106 -129 180 -129h4z" />
    <glyph glyph-name="y" unicode="y" horiz-adv-x="1183" 
d="M1141 1024q30 0 30 -31v-61q0 -31 -30 -31h-29q-33 0 -59 -26.5t-60 -100.5l-594 -1196q-13 -26 -41 -14l-104 53q-29 13 -16 41l229 492l-301 622q-37 79 -59 104t-60 25h-4q-31 0 -31 31v61q0 31 31 31h473q31 0 31 -31v-61q0 -31 -31 -31h-4q-66 0 -66 -53
q0 -37 48 -139l137 -299l147 303q51 100 51 145q0 43 -47 43h-37q-30 0 -30 31v61q0 31 30 31h396z" />
    <glyph glyph-name="z" unicode="z" horiz-adv-x="1114" 
d="M1077 303q17 -9 17 -24q0 -7 -4 -19l-160 -270q-10 -17 -25 -17q-5 0 -16 7l-12 10q-10 10 -37 10h-789q-31 0 -31 31v88q0 11 7 22l645 752l-197 -10q-104 -4 -177 -46t-130 -130l-8 -15q-8 -16 -25 -16q-6 0 -18 4l-70 41q-10 5 -14 16l-2 8q0 7 6 19l168 268
q15 19 26 19q8 0 17 -9l8 -8q10 -10 37 -10h758q26 0 26 -18q0 -11 -8 -19l-721 -850l158 4q159 5 234 22q159 38 227 154l6 11q10 16 24 16q5 0 17 -4z" />
    <glyph glyph-name="braceleft" unicode="{" horiz-adv-x="927" 
d="M164 592q0 -31 31 -31q247 -11 247 -186q0 -40 -22 -100t-44 -134t-22 -149q0 -62 22.5 -113.5t54 -83t77.5 -58t78.5 -38.5t72.5 -23l13 -2q12 0 28 13l21 16q12 9 12 21q0 13 -22 22q-87 33 -126.5 71t-39.5 74q0 41 26 97t57 103.5t57 109t26 112.5q0 74 -24 128.5
t-71.5 90t-99 56.5t-125.5 39q74 17 125.5 37.5t99 55.5t71.5 89.5t24 128.5q0 51 -26 112.5t-57 109t-57 103.5t-26 97q0 36 39.5 74.5t126.5 72.5q22 6 22 23q0 9 -12 18l-21 19q-17 14 -41 8q-294 -79 -305 -293q-3 -64 10.5 -128t30.5 -106t32 -89t15 -80
q0 -179 -247 -187q-31 -3 -31 -30v-70z" />
    <glyph glyph-name="bar" unicode="|" 
d="M514 1554q0 31 31 31h139q31 0 31 -31v-1824q0 -31 -31 -31h-139q-31 0 -31 31v1824z" />
    <glyph glyph-name="braceright" unicode="}" horiz-adv-x="927" 
d="M764 592q0 -31 -31 -31q-248 -12 -248 -186q0 -40 22 -100t44 -134t22 -149q0 -62 -22.5 -113.5t-54 -83t-77.5 -58t-78.5 -38.5t-72.5 -23l-12 -2q-13 0 -29 13l-20 16q-12 9 -12 21q0 13 22 22q87 33 126.5 71t39.5 74q0 41 -25.5 97t-56.5 103.5t-56.5 109
t-25.5 112.5q0 74 24 128.5t71 90t98.5 56.5t124.5 39q-73 17 -124.5 37.5t-98.5 55.5t-71 89.5t-24 128.5q0 51 25.5 112.5t56.5 109t56.5 103.5t25.5 97q0 36 -39.5 74.5t-126.5 72.5q-22 6 -22 23q0 9 12 18l20 19q17 14 41 8q296 -78 305 -293q3 -64 -10.5 -128
t-30.5 -106t-32 -89t-15 -80q0 -179 248 -187q31 -3 31 -30v-70z" />
    <glyph glyph-name="asciitilde" unicode="~" horiz-adv-x="1443" 
d="M1350 705q29 0 32 -31q2 -41 -3 -81.5t-23 -87t-48.5 -81t-85.5 -57.5t-128 -23q-85 0 -165.5 25t-143.5 61t-122.5 72t-125.5 61t-129 25q-119 0 -119 -144q0 -36 -31 -36h-162q-30 0 -30 30q0 34 1.5 60t9 67.5t20 72.5t38.5 65.5t61 57t89.5 37.5t122.5 15
q93 0 177 -25t146 -61t117 -72t112.5 -61t110.5 -25q86 0 86 97q0 39 29 39h164z" />
    <glyph glyph-name="exclamdown" unicode="&#xa1;" horiz-adv-x="765" 
d="M285 764q37 -37 77 -37q44 0 80 39l80 80q39 36 39 80q0 42 -39 78l-80 81q-37 37 -80 37q-40 0 -77 -37l-82 -81q-37 -37 -37 -78q0 -43 37 -80zM285 -463q36 -39 77 -39q44 0 80 39l80 80q39 36 39 78q0 48 -42 286.5t-54 385.5q-10 123 -10 157q0 25 -27 25h-129
q-27 0 -27 -25q0 -34 -10 -157q-12 -151 -54 -388t-42 -284q0 -41 37 -78z" />
    <glyph glyph-name="cent" unicode="&#xa2;" horiz-adv-x="1019" 
d="M731 668q-12 -4 -16 -4q-9 0 -14 4t-3 10l2 22q6 89 -36 137t-132 48q-91 0 -142.5 -72.5t-61.5 -185.5q-2 -27 -2 -78q0 -63 9 -119t29.5 -107t52 -87.5t79.5 -58t108 -21.5q6 0 19 1t20 1q62 6 123.5 43.5t103.5 103.5q11 14 25 14q9 0 18 -6l54 -37q23 -18 12 -43
q-97 -206 -332 -243v-359q0 -13 -8.5 -21.5t-22.5 -8.5h-139q-31 0 -31 30v361q-114 26 -202.5 104.5t-135.5 187.5t-47 230q0 31 2 47q11 131 68 232t137 157t178 80v381q0 31 31 31h139q31 0 31 -31v-367q157 -19 238 -95.5t104 -182.5l2 -8q0 -23 -24 -29z" />
    <glyph glyph-name="sterling" unicode="&#xa3;" horiz-adv-x="1427" 
d="M1370 438q16 -10 16 -24q0 -10 -6 -19l-190 -405q-10 -19 -25 -19q-9 0 -18 9l-12 10q-12 10 -39 10h-1028q-31 0 -31 31v61q0 31 31 31h2q88 0 173.5 55.5t139 146t53.5 185.5q0 31 -2 45h-221q-31 0 -31 31v116q0 31 31 31h158q-15 26 -45 70.5t-49.5 77t-41 77.5
t-32 97t-10.5 112q0 87 30 154.5t77 108t112.5 67t129.5 36t134 9.5q32 0 63.5 -3.5t55 -7.5t51 -13t43 -14.5t39 -17.5t31.5 -16t28 -15.5t21 -12.5q8 -4 12 -4q12 0 12 20q0 9 -8 41q-2 6 -2 19q0 30 35 30h76q38 0 49 -35l145 -366q8 -20 8 -29q0 -16 -24 -31l-70 -36
q-14 -7 -22 -7q-17 0 -37 23q-129 161 -244 233t-238 72q-32 0 -64 -10.5t-61.5 -32t-48 -61.5t-18.5 -92q0 -80 26 -151t73 -155t67 -137h450q31 0 31 -31v-116q0 -14 -8.5 -22.5t-22.5 -8.5h-409v-47q0 -54 -16.5 -106t-42.5 -91.5t-60 -73.5t-65.5 -56t-61.5 -36
q75 0 125.5 1t111.5 4t102.5 9.5t91 17.5t84.5 27t74.5 39t71 53t63.5 69t62 88l7 12q10 16 24 16q7 0 19 -4z" />
    <glyph glyph-name="yen" unicode="&#xa5;" horiz-adv-x="1626" 
d="M1575 1542q31 0 31 -31v-61q0 -31 -31 -31q-140 0 -256 -196l-156 -269h267q30 0 30 -30v-140q0 -30 -30 -30h-386l-40 -72q-11 -16 -11 -39v-33h437q30 0 30 -30v-138q0 -30 -30 -30h-437v-95q0 -186 137 -194h15q31 0 31 -31v-61q0 -31 -31 -31h-631q-31 0 -31 31v61
q0 31 31 31h12q140 8 140 194v95h-480q-30 0 -30 30v138q0 30 30 30h480v23q0 17 -13 37l-55 84h-412q-30 0 -30 30v140q0 30 30 30h277l-178 269q-73 109 -122.5 152.5t-111.5 43.5q-31 0 -31 31v61q0 31 31 31h711q14 0 22.5 -9t8.5 -22v-61q0 -31 -31 -31
q-62 0 -103 -23.5t-41 -72.5q0 -43 35 -100l240 -389l221 389q45 80 45 129q0 67 -94 67q-31 0 -31 31v61q0 13 9 22t22 9h510z" />
    <glyph glyph-name="brokenbar" unicode="&#xa6;" 
d="M514 1554q0 31 31 31h139q31 0 31 -31v-673q0 -31 -31 -31h-139q-31 0 -31 31v673zM514 403q0 31 31 31h139q31 0 31 -31v-673q0 -31 -31 -31h-139q-31 0 -31 31v673z" />
    <glyph glyph-name="section" unicode="&#xa7;" horiz-adv-x="1503" 
d="M1253 1217q-15 -9 -24 -9q-19 0 -35 23q-123 154 -255 229.5t-245 75.5q-33 0 -62 -4.5t-59 -16.5t-51 -31t-34 -51t-13 -73q0 -45 27 -84t76 -67.5t100.5 -49t118.5 -39.5q62 -18 105 -31t101 -33.5t99 -38.5t89.5 -43.5t81.5 -51t66 -59.5t53 -70.5t32 -81.5t12 -95
q0 -204 -156 -335q156 -119 156 -301q0 -207 -159.5 -338t-436.5 -131q-184 0 -334 75q-13 8 -27 8q-12 0 -16 -12.5t2 -32.5q4 -8 4 -24q0 -23 -33 -23h-102q-36 0 -51 29l-248 465q-8 13 -8 27q0 19 22 32l90 54q12 6 25 6q21 0 35 -23q135 -209 303 -313.5t350 -104.5
q130 0 203 59t73 154q0 35 -7 64.5t-23 53t-33.5 42t-46.5 35t-53.5 28t-63 24t-65.5 20.5t-72 20.5t-72 20.5q-136 41 -236.5 91t-158 98t-92 105t-45 103t-10.5 100q0 99 48 175t138 124q-186 132 -186 338q0 171 140 271t378 100q100 0 198.5 -31.5t151.5 -62.5l12 -4
q22 0 4 61q-2 6 -2 18q0 31 37 31h74q37 0 51 -35l143 -366q9 -22 9 -29q0 -17 -23 -31zM475 723q0 -37 19 -69.5t48 -56.5t74 -46t86.5 -37t94.5 -31q185 -52 280 -92q51 54 51 133q0 39 -10.5 72t-26 56.5t-45 45t-53.5 35t-67.5 29t-72 23.5t-80.5 22.5t-81 23.5
q-54 16 -129 43q-88 -43 -88 -151z" />
    <glyph glyph-name="dieresis" unicode="&#xa8;" 
d="M381 1516q50 0 102 -52t52 -102q0 -53 -52 -102q-52 -52 -102 -52q-53 0 -102 52q-52 49 -52 102q0 50 52 102q49 52 102 52zM856 1516q53 0 105 -52q51 -54 51 -102q0 -51 -51 -102q-52 -52 -105 -52q-50 0 -102 52t-52 102q0 47 52 102q52 52 102 52z" />
    <glyph glyph-name="copyright" unicode="&#xa9;" horiz-adv-x="1613" 
d="M807 -16q-158 0 -302 61.5t-247.5 165.5t-165 247.5t-61.5 301.5t61.5 301.5t165 247.5t247.5 165.5t302 61.5t301.5 -61.5t247.5 -165.5t165.5 -247.5t61.5 -301.5t-61.5 -301.5t-165.5 -247.5t-247.5 -165.5t-301.5 -61.5zM807 127q128 0 245 50t202 135t135.5 202
t50.5 246q0 128 -50.5 245.5t-135 202t-202 135t-245.5 50.5q-129 0 -246 -50.5t-202 -135.5t-135 -202t-50 -245q0 -129 50 -246t135 -202t202 -135t246 -50zM1126 596q18 -14 9 -31q-82 -171 -283 -190q-14 -2 -43 -2q-113 0 -202 64t-132.5 164.5t-34.5 211.5
q7 79 35 143.5t70 107.5t95 71.5t108.5 39.5t111.5 7q131 -10 198.5 -69t84.5 -144l2 -6q0 -15 -19 -23l-180 -47q-12 -3 -19 -0.5t-5 8.5l2 17q5 69 -28 109t-99 40q-69 0 -108.5 -59t-47.5 -146q-2 -20 -2 -59q0 -65 12.5 -119.5t39.5 -99.5t75 -67.5t113 -16.5
q46 5 93 36t81 82q14 22 32 7z" />
    <glyph glyph-name="ordfeminine" unicode="&#xaa;" horiz-adv-x="1060" 
d="M915 991q1 -46 8.5 -77.5t31 -57.5t63.5 -31q21 -3 18 -22v-58q0 -22 -24 -22q-78 0 -140 -10.5t-94 -22t-80 -33.5q-8 -4 -14 -4h-4q-5 0 -2 6l18 152q-9 -22 -24.5 -44.5t-45 -50.5t-79 -45.5t-111.5 -17.5q-49 0 -99 15t-101 49.5t-90 85t-64 128.5t-25 173
q0 115 33 203t90 139.5t127 77.5t150 26q169 0 276 -98q96 39 170 96q4 4 6 4h4q2 0 2 -4v-557zM678 1260q-5 30 -16.5 58t-32.5 56.5t-57.5 46t-84.5 17.5q-208 0 -208 -279q0 -163 64 -258.5t171 -95.5q36 0 66 11.5t47 28t29.5 33.5t17.5 28l4 12v342z" />
    <glyph glyph-name="guillemotleft" unicode="&#xab;" horiz-adv-x="1388" 
d="M588 117q11 -11 22 -11q10 0 21 11l55 51q10 13 10 22q0 13 -8 21l-262 338l264 332q8 11 8 20q0 15 -10 25l-57 55q-10 10 -21 10q-13 0 -22 -12l-398 -410q-10 -10 -10 -20t10 -23zM1098 117q15 -11 22 -11q8 0 23 11l53 51q12 12 12 22q0 13 -8 21l-262 338l264 332
q8 11 8 20q0 13 -12 25l-55 55q-13 10 -23 10t-22 -12l-396 -410q-10 -7 -10 -20t10 -23z" />
    <glyph glyph-name="logicalnot" unicode="&#xac;" 
d="M1145 659q31 0 31 -30v-594q0 -31 -31 -31h-178q-31 0 -31 31v387h-827q-31 0 -31 31v176q0 30 31 30h1036z" />
    <glyph glyph-name="registered" unicode="&#xae;" horiz-adv-x="1613" 
d="M807 1536q158 0 301.5 -61.5t247.5 -165.5t165.5 -247.5t61.5 -301.5t-61.5 -301.5t-165.5 -247.5t-247.5 -165.5t-301.5 -61.5t-301.5 61.5t-247.5 165.5t-165.5 247.5t-61.5 301.5t61.5 301.5t165.5 247.5t247.5 165.5t301.5 61.5zM807 127q129 0 246 50t202 135
t135 202t50 246q0 128 -50 245t-135 202t-202 135.5t-246 50.5q-128 0 -245.5 -50.5t-202 -135t-135 -202t-50.5 -245.5q0 -129 50.5 -246t135.5 -202t202 -135t245 -50zM1229 461q14 0 14 -17v-47q0 -14 -14 -14h-338q-17 0 -17 14v47q0 17 17 17h6q51 0 51 41q0 19 -12 43
l-92 172h-137v-172q0 -42 15.5 -62.5t53.5 -21.5h8q15 0 15 -17v-47q0 -14 -15 -14h-333q-17 0 -17 14v47q0 17 17 17h8q38 1 53.5 21.5t15.5 62.5v463q0 33 -15 57.5t-48 28.5h-14q-15 0 -15 16v45q0 16 15 16h417q123 0 191.5 -64t68.5 -159q0 -138 -120 -194l110 -209
q22 -41 44.5 -62t58.5 -22h8zM768 809q182 0 182 139q0 127 -149 127h-94v-266h61z" />
    <glyph glyph-name="macron" unicode="&#xaf;" 
d="M903 1280q0 -31 -31 -31h-546q-31 0 -31 31v123q0 31 31 31h546q31 0 31 -31v-123z" />
    <glyph glyph-name="degree" unicode="&#xb0;" horiz-adv-x="727" 
d="M362 1085q-112 0 -196 76.5t-84 179.5t84 179.5t196 76.5q114 0 198.5 -76.5t84.5 -179.5t-84.5 -179.5t-198.5 -76.5zM362 1229q53 0 89 32.5t36 79.5q0 46 -36.5 79.5t-88.5 33.5q-51 0 -86.5 -33.5t-35.5 -79.5q0 -47 35.5 -79.5t86.5 -32.5z" />
    <glyph glyph-name="plusminus" unicode="&#xb1;" 
d="M109 647q-31 0 -31 31v176q0 31 31 31h387v243q0 31 30 31h176q31 0 31 -31v-243h387q31 0 31 -31v-176q0 -31 -31 -31h-387v-244q0 -30 -31 -30h-176q-30 0 -30 30v244h-387zM1130 240q31 0 31 -31v-178q0 -31 -31 -31h-1032q-30 0 -30 31v178q0 31 30 31h1032z" />
    <glyph glyph-name="uni00B2" unicode="&#xb2;" horiz-adv-x="872" 
d="M817 997q19 -11 10 -32l-118 -193q-5 -11 -14 -13t-17 5l-10 8q-8 6 -29 6h-573q-25 0 -25 25v47q0 4 6 22q30 60 88 121t117.5 109t116 97t92 102.5t35.5 107.5q0 68 -29 103.5t-82 35.5q-50 0 -87.5 -26t-37.5 -80q0 -50 33 -115q6 -9 6 -18q0 -18 -16 -15l-166 37
q-27 7 -39 31q-10 22 -10 55q0 89 91 155t232 66q332 0 332 -231q0 -68 -36.5 -125.5t-96.5 -102t-123.5 -83.5t-130.5 -88.5t-105 -98.5l148 4q161 3 230 20q91 24 122 77l6 8q13 19 33 8z" />
    <glyph glyph-name="uni00B3" unicode="&#xb3;" horiz-adv-x="835" 
d="M92 1335q-30 7 -39 31q-12 27 -12 57q0 88 92 153.5t234 65.5q329 0 329 -231q0 -177 -211 -256q142 -21 226 -99t84 -204q0 -91 -41 -163t-113.5 -117.5t-168 -69t-208.5 -23.5q-79 0 -147 8q-22 3 -25 23l-8 68v4q0 23 25 20q75 -16 139 -16q137 0 221 67.5t84 202.5
q0 205 -217 205q-48 0 -127 -14h-6q-18 0 -21 18l-10 47v6q0 14 10 19q4 4 11 4q133 44 205.5 115.5t72.5 156.5q0 68 -30 103.5t-83 35.5q-50 0 -87.5 -26t-37.5 -80q0 -52 35 -115q4 -12 4 -18q0 -8 -3.5 -12t-10.5 -3z" />
    <glyph glyph-name="acute" unicode="&#xb4;" 
d="M383 1184q95 120 137 192t82 176q10 24 37 27q12 2 39 2q63 0 103 -26.5t40 -77.5q0 -59 -33.5 -115t-86 -98t-105.5 -71.5t-104 -47.5q-4 -2 -15 -2q-6 0 -18 4z" />
    <glyph glyph-name="paragraph" unicode="&#xb6;" 
d="M1098 1434q30 0 30 -31v-62q0 -30 -30 -30h-13q-139 -8 -139 -195v-1352q0 -30 -31 -30h-100q-31 0 -31 30v1547h-135v-1547q0 -30 -31 -30h-102q-31 0 -31 30v1020h-67q-106 0 -187 95t-81 223q0 64 19.5 121t60 105.5t112 77t166.5 28.5h590z" />
    <glyph glyph-name="periodcentered" unicode="&#xb7;" 
d="M532 891q39 39 80 39t80 -39l80 -80q39 -39 39 -80t-39 -80l-80 -80q-42 -39 -80 -39t-80 39l-79 80q-39 39 -39 80t39 80z" />
    <glyph glyph-name="cedilla" unicode="&#xb8;" 
d="M451 61q12 21 36 21h107q12 0 19.5 -5.5t7.5 -13.5t-9 -20l-139 -166q49 17 94 17q92 0 162 -53t70 -154q0 -92 -74 -151.5t-193 -59.5q-101 0 -204 43q-41 17 -41 116q0 29 32 19q101 -33 175 -33q98 0 98 66q0 51 -43 76.5t-115 25.5q-21 0 -60.5 -6t-56.5 -6
q-20 0 -20 16q0 10 6 19z" />
    <glyph glyph-name="uni00B9" unicode="&#xb9;" horiz-adv-x="675" 
d="M465 1049q0 -145 106 -150h41q23 0 23 -25v-47q0 -22 -23 -22h-526q-25 0 -25 22v47q0 25 25 25h41q106 5 106 150v319q0 74 -29.5 112t-117.5 38q-25 0 -25 22v47q0 25 25 25q250 0 526 47q23 0 23 -23v-49q0 -22 -23 -22l-32 -4q-64 -4 -89.5 -48t-25.5 -145v-319z" />
    <glyph glyph-name="ordmasculine" unicode="&#xba;" horiz-adv-x="937" 
d="M315 1511q78 37 174 37q129 0 240.5 -72t167.5 -198q41 -90 41 -186q0 -129 -68.5 -239t-187.5 -163q-84 -37 -174 -37q-128 0 -240 73.5t-168 197.5q-39 88 -39 186q0 129 68 238.5t186 162.5zM367 1397q-103 -46 -103 -180q0 -92 47 -199q45 -99 111 -163t141 -64
q36 0 68 14q102 48 102 180q0 97 -47 199q-45 100 -110.5 164.5t-139.5 64.5q-29 0 -69 -16z" />
    <glyph glyph-name="guillemotright" unicode="&#xbb;" horiz-adv-x="1388" 
d="M291 117q-11 -11 -21 -11q-7 0 -22 11l-53 51q-13 13 -13 22q0 13 8 21l263 338l-265 332q-8 11 -8 20q0 12 10 25l58 55q13 10 22 10q11 0 23 -12l395 -410q10 -8 10 -20q0 -13 -10 -23zM803 117q-11 -11 -23 -11q-9 0 -20 11l-55 51q-11 11 -11 22q0 13 8 21l263 338
l-265 332q-8 11 -8 20q0 15 10 25l58 55q10 10 20 10q14 0 23 -12l397 -410q10 -10 10 -20t-10 -23z" />
    <glyph glyph-name="onequarter" unicode="&#xbc;" horiz-adv-x="1589" 
d="M88 805q-25 0 -25 22v47q0 25 25 25h41q107 5 107 150v319q0 74 -30 112t-118 38q-25 0 -25 22v47q0 25 25 25q280 0 526 47q25 0 25 -23v-49q0 -22 -25 -22l-32 -4q-64 -4 -89.5 -48t-25.5 -145v-319q0 -145 106 -150h41q25 0 25 -25v-47q0 -22 -25 -22h-526zM1346 1505
q26 0 26 -16q0 -5 -8 -21l-1135 -1472q-13 -19 -36 -19h-84q-27 0 -27 19q0 10 8 18l1133 1473q15 18 37 18h86zM1526 113q22 0 22 -25v-82q0 -24 -22 -24h-176v-273q0 -22 -25 -22h-137q-25 0 -25 22v273h-409q-25 0 -25 24v90q0 12 10 29q38 60 105.5 146.5t109.5 142
t75.5 131.5t33.5 145q0 76 -35 150q-4 8 -4 16q0 17 16 14l195 -47q31 -8 39 -30q8 -21 8 -52q0 -40 -15 -87.5t-46.5 -101t-60 -98t-76 -103.5t-73 -90t-73 -85t-55.5 -63h280v188q0 22 21 25l139 26l8 2q19 0 19 -22v-219h176z" />
    <glyph glyph-name="onehalf" unicode="&#xbd;" horiz-adv-x="1708" 
d="M86 805q-25 0 -25 22v47q0 25 25 25h41q106 5 106 150v319q0 74 -29.5 112t-117.5 38q-25 0 -25 22v47q0 25 25 25q280 0 526 47q23 0 23 -23v-49q0 -22 -23 -22l-32 -4q-64 -4 -89.5 -48t-25.5 -145v-319q0 -145 106 -150h41q23 0 23 -25v-47q0 -22 -23 -22h-526z
M1346 1505q26 0 26 -16q0 -5 -8 -21l-1135 -1472q-13 -19 -36 -19h-84q-27 0 -27 19q0 10 8 18l1133 1473q15 18 37 18h86zM1655 201q22 -10 8 -31l-117 -195q-14 -24 -33 -8l-8 8q-9 7 -28 7h-576q-22 0 -22 24v49q0 9 4 21q30 60 88.5 121t118.5 109t116 96.5t91.5 102
t35.5 107.5q0 68 -28.5 104t-81.5 36q-49 0 -87 -26.5t-38 -80.5q0 -55 32 -115q5 -8 5 -18q0 -17 -15 -14l-166 37q-31 8 -39 30q-12 27 -12 58q0 88 92 153.5t234 65.5q332 0 332 -232q0 -68 -36.5 -125.5t-96.5 -101.5t-123.5 -83t-130.5 -88.5t-105 -98.5l148 4
q8 0 38 1t44.5 1.5t44.5 2.5t47.5 5t43.5 7.5t43 11.5t36 16.5t32.5 22t22.5 28.5l6 8q11 21 31 8z" />
    <glyph glyph-name="threequarters" unicode="&#xbe;" horiz-adv-x="1939" 
d="M92 1335q-30 7 -39 31q-12 27 -12 57q0 88 92 153.5t234 65.5q329 0 329 -231q0 -177 -211 -256q142 -21 226 -99t84 -204q0 -91 -41 -163t-113.5 -117.5t-168 -69t-208.5 -23.5q-79 0 -147 8q-22 3 -25 23l-8 68v4q0 23 25 20q75 -16 139 -16q137 0 221 67.5t84 202.5
q0 205 -217 205q-48 0 -127 -14h-6q-18 0 -21 18l-10 47v6q0 14 10 19q4 4 11 4q133 44 205.5 115.5t72.5 156.5q0 68 -30 103.5t-83 35.5q-50 0 -87.5 -26t-37.5 -80q0 -52 35 -115q4 -12 4 -18q0 -8 -3.5 -12t-10.5 -3zM1671 1505q27 0 27 -16q0 -10 -8 -21l-1133 -1472
q-16 -19 -37 -19h-84q-26 0 -26 19q0 10 8 18l1132 1473q15 18 37 18h84zM1874 113q24 0 24 -25v-82q0 -24 -24 -24h-176v-273q0 -22 -23 -22h-139q-25 0 -25 22v273h-409q-23 0 -23 24v90q0 16 8 29q38 60 105.5 146.5t109.5 142t75.5 131.5t33.5 145q0 76 -35 150
q-4 8 -4 16q0 17 17 14l194 -47q30 -7 39 -30q8 -21 8 -52q0 -40 -15 -87.5t-46.5 -101t-60 -98t-76 -103.5t-73 -90t-73 -85t-55.5 -63h280v188q0 21 21 25l139 26l8 2q19 0 19 -22v-219h176z" />
    <glyph glyph-name="questiondown" unicode="&#xbf;" horiz-adv-x="1083" 
d="M643 766q-36 -39 -78 -39q-44 0 -80 39l-82 80q-38 41 -38 80t38 80l82 79q39 39 78 39q41 0 80 -39l80 -79q39 -39 39 -80t-39 -80zM805 -197q23 -4 34 -13t17 -26q23 -57 23 -100q0 -94 -105.5 -156.5t-267.5 -62.5q-227 0 -342 88t-115 225q0 72 23.5 128t60.5 91
t82 65t90 58.5t82 62t60.5 85.5t23.5 119q0 54 0.5 89.5t1 49.5t0.5 18q0 27 27 27h129q26 0 26 -27q0 -5 1.5 -18t4 -49.5t5.5 -89.5q3 -70 -13 -127.5t-44.5 -97t-63.5 -74.5t-70.5 -67t-65.5 -65.5t-48.5 -80t-18.5 -101.5q0 -58 14 -98.5t38.5 -60.5t49.5 -28.5t54 -8.5
q41 0 78.5 32.5t37.5 85.5q0 59 -39 136q-6 9 -6 22q0 10 5.5 16t15.5 3z" />
    <glyph glyph-name="Agrave" unicode="&#xc0;" horiz-adv-x="1609" 
d="M881 1657q-16 -8 -33 -2q-51 17 -104.5 46.5t-106 71t-86 98.5t-33.5 116q0 52 40 78t104 26q24 0 38 -2q28 -3 35 -27q39 -103 82 -176t137 -194zM1415 317q4 -10 13 -33.5t13 -33.5t12.5 -29t14 -28t14 -23t17 -20.5t19 -13.5t23 -10t26.5 -3q30 0 30 -31v-61
q0 -31 -30 -31h-629q-31 0 -31 31v61q0 31 31 31q65 0 112.5 40.5t47.5 100.5q0 20 -11 53l-63 175h-561l-62 -175q-8 -24 -8 -51q0 -61 47.5 -102t112.5 -41q31 0 31 -31v-61q0 -31 -31 -31h-510q-31 0 -31 31v61q0 31 31 31q15 0 27.5 2.5t23.5 10t19.5 14t17.5 20
t14.5 22.5t13.5 28t12 29t13 34t13 34l440 1192q9 27 35 27h248q25 0 34 -25zM526 670h432l-221 598z" />
    <glyph glyph-name="Aacute" unicode="&#xc1;" horiz-adv-x="1609" 
d="M651 1692q94 121 137 194t82 176q7 24 35 27q14 2 39 2q64 0 103.5 -26t39.5 -78q0 -59 -33.5 -116t-86 -98.5t-105.5 -71t-104 -46.5q-4 -2 -15 -2q-12 0 -18 4zM1415 317q4 -10 13 -33.5t13 -33.5t12.5 -29t14 -28t14 -23t17 -20.5t19 -13.5t23 -10t26.5 -3
q30 0 30 -31v-61q0 -31 -30 -31h-629q-31 0 -31 31v61q0 31 31 31q65 0 112.5 40.5t47.5 100.5q0 20 -11 53l-63 175h-561l-62 -175q-8 -24 -8 -51q0 -61 47.5 -102t112.5 -41q31 0 31 -31v-61q0 -31 -31 -31h-510q-31 0 -31 31v61q0 31 31 31q15 0 27.5 2.5t23.5 10
t19.5 14t17.5 20t14.5 22.5t13.5 28t12 29t13 34t13 34l440 1192q9 27 35 27h248q25 0 34 -25zM526 670h432l-221 598z" />
    <glyph glyph-name="Acircumflex" unicode="&#xc2;" horiz-adv-x="1609" 
d="M510 1647q-51 0 -77.5 40t-26.5 103q0 11 4 39q3 28 24 37q105 40 178 81.5t193 135.5q120 -94 193 -135.5t178 -81.5q21 -11 24 -37q4 -28 4 -39q0 -63 -26.5 -103t-77.5 -40q-91 0 -167 70t-128 171q-51 -100 -128 -170.5t-167 -70.5zM1415 317q4 -10 13 -33.5
t13 -33.5t12.5 -29t14 -28t14 -23t17 -20.5t19 -13.5t23 -10t26.5 -3q30 0 30 -31v-61q0 -31 -30 -31h-629q-31 0 -31 31v61q0 31 31 31q65 0 112.5 40.5t47.5 100.5q0 20 -11 53l-63 175h-561l-62 -175q-8 -24 -8 -51q0 -61 47.5 -102t112.5 -41q31 0 31 -31v-61
q0 -31 -31 -31h-510q-31 0 -31 31v61q0 31 31 31q15 0 27.5 2.5t23.5 10t19.5 14t17.5 20t14.5 22.5t13.5 28t12 29t13 34t13 34l440 1192q9 27 35 27h248q25 0 34 -25zM526 670h432l-221 598z" />
    <glyph glyph-name="Atilde" unicode="&#xc3;" horiz-adv-x="1609" 
d="M592 1649q-31 0 -68 49t-37 108q0 96 60 155.5t141 59.5q26 0 49 -4.5t40 -9.5t34.5 -17t27.5 -19t24 -23t19 -22.5t17 -23.5t14 -20q23 -32 36 -43.5t30 -11.5q39 0 39 47t-31 86q20 24 52 43.5t61 19.5q31 0 67.5 -49.5t36.5 -107.5q0 -96 -60 -155.5t-140 -59.5
q-23 0 -43.5 2.5t-38 9t-31 12t-27.5 17t-22.5 18t-20 21t-16 19.5t-15 20t-12.5 18q-24 34 -36.5 45.5t-28.5 11.5q-20 0 -29.5 -14.5t-9.5 -32.5q0 -49 31 -88q-20 -23 -51.5 -42t-61.5 -19zM1415 317q4 -10 13 -33.5t13 -33.5t12.5 -29t14 -28t14 -23t17 -20.5t19 -13.5
t23 -10t26.5 -3q30 0 30 -31v-61q0 -31 -30 -31h-629q-14 0 -22.5 9t-8.5 22v61q0 31 31 31q65 0 112.5 40.5t47.5 100.5q0 20 -11 53l-63 175h-561l-62 -175q-8 -21 -8 -49q0 -62 47.5 -103.5t112.5 -41.5q31 0 31 -31v-61q0 -13 -9 -22t-22 -9h-510q-31 0 -31 31v61
q0 31 31 31q15 0 27.5 2.5t23.5 10t19.5 14t17.5 20t14.5 22.5t13.5 28t12 29t13 34t13 34l440 1194q9 25 35 25h248q25 0 34 -25zM526 670h432l-221 600z" />
    <glyph glyph-name="Adieresis" unicode="&#xc4;" horiz-adv-x="1609" 
d="M569 1716q-48 0 -102 51q-51 51 -51 105q0 51 51 102q54 51 102 51q49 0 103 -51q51 -51 51 -102q0 -54 -51 -105q-54 -51 -103 -51zM1047 1716q-52 0 -103 51t-51 105q0 51 51 102t103 51q48 0 102 -51q51 -51 51 -102q0 -54 -51 -105q-54 -51 -102 -51zM1415 317
q4 -10 13 -33.5t13 -33.5t12.5 -29t14 -28t14 -23t17 -20.5t19 -13.5t23 -10t26.5 -3q30 0 30 -31v-61q0 -31 -30 -31h-629q-31 0 -31 31v61q0 31 31 31q65 0 112.5 40.5t47.5 100.5q0 20 -11 53l-63 175h-561l-62 -175q-8 -24 -8 -51q0 -61 47.5 -102t112.5 -41
q31 0 31 -31v-61q0 -31 -31 -31h-510q-31 0 -31 31v61q0 31 31 31q15 0 27.5 2.5t23.5 10t19.5 14t17.5 20t14.5 22.5t13.5 28t12 29t13 34t13 34l440 1192q9 27 35 27h248q25 0 34 -25zM526 670h432l-221 598z" />
    <glyph glyph-name="Aring" unicode="&#xc5;" horiz-adv-x="1609" 
d="M1415 317q4 -10 13 -33.5t13 -33.5t12.5 -29t14 -28t14 -23t17 -20.5t19 -13.5t23 -10t26.5 -3q30 0 30 -31v-61q0 -31 -30 -31h-629q-31 0 -31 31v61q0 31 31 31q65 0 112.5 40.5t47.5 100.5q0 20 -11 53l-63 175h-561l-62 -175q-8 -24 -8 -51q0 -61 47.5 -102
t112.5 -41q31 0 31 -31v-61q0 -31 -31 -31h-510q-31 0 -31 31v61q0 31 31 31q15 0 27.5 2.5t23.5 10t19.5 14t17.5 20t14.5 22.5t13.5 28t12 29t13 34t13 34l440 1192q6 22 25 25q-68 33 -110 94t-42 131q0 103 84 179.5t197 76.5q114 0 198 -76.5t84 -179.5q0 -69 -41 -130
t-108 -95q20 0 30 -23zM791 1872q-51 0 -87 -33.5t-36 -79.5q0 -47 36 -79.5t87 -32.5q52 0 88 32.5t36 79.5q0 46 -36 79.5t-88 33.5zM526 670h432l-221 598z" />
    <glyph glyph-name="AE" unicode="&#xc6;" horiz-adv-x="2398" 
d="M2341 438q16 -10 16 -24q0 -10 -6 -19l-192 -405q-6 -19 -25 -19q-9 0 -18 9l-11 10q-12 10 -39 10h-1128q-31 0 -31 31v78q0 13 8.5 21.5t22.5 8.5q149 0 149 178v172h-487l-96 -172q-37 -69 -37 -112q0 -33 21.5 -52.5t64.5 -19.5q13 0 22 -8.5t9 -22.5v-71
q0 -31 -31 -31h-510q-31 0 -31 31v71q0 31 31 31q51 0 90.5 13.5t70 43t50 56t45.5 71.5l559 969q31 64 31 84q0 22 -21.5 31.5t-70.5 9.5h-2q-31 0 -31 31v61q0 33 31 33h1175q29 0 39 10l12 10q11 7 17 7q16 0 26 -17l164 -278q4 -6 4 -19q0 -16 -16 -24l-86 -47
q-10 -7 -19 -7q-15 0 -24 19l-6 10q-60 103 -132.5 147t-193.5 44h-344v-482h191q189 0 194 140v12q0 31 31 31h61q31 0 31 -31v-465q0 -31 -31 -31h-61q-31 0 -31 31v12q-5 137 -194 137h-179v-405q0 -190 142 -195h131q47 0 79 1.5t75.5 8.5t76 19t73 34.5t75 55
t73.5 80.5t76 109l8 12q10 16 25 16q6 0 18 -4zM700 668h385v686z" />
    <glyph glyph-name="Ccedilla" unicode="&#xc7;" horiz-adv-x="1531" 
d="M1495 492q2 -1 5.5 -3t5 -3l4.5 -3l4.5 -3t3.5 -3t2.5 -4t1.5 -4.5t1 -5.5t-1 -6.5t-2 -7.5q-28 -67 -65 -127.5t-95.5 -123t-127.5 -108.5t-165 -76.5t-205 -33.5l-84 -103q46 17 92 17q93 0 162.5 -53t69.5 -154q0 -92 -73.5 -151.5t-192.5 -59.5q-100 0 -203 43
q-43 17 -43 116q0 13 10 18.5t25 0.5q97 -33 172 -33q98 0 98 66q0 51 -42.5 76.5t-115.5 25.5q-21 0 -59.5 -6t-56.5 -6q-19 0 -19 16q0 7 4 19l105 176q-303 36 -471 245t-168 519q0 77 10.5 152.5t36 156.5t64.5 152.5t99.5 135.5t136.5 110t180.5 73t227.5 27
q105 0 203.5 -25.5t185.5 -75.5t149.5 -134.5t86.5 -193.5l2 -12q0 -32 -35 -41l-262 -92q-20 -4 -27 -4q-12 0 -18.5 5.5t-5.5 14.5l4 31l2 37q0 59 -15 113.5t-47.5 105t-94 81t-144.5 30.5q-71 0 -130.5 -25t-101 -68.5t-72.5 -98.5t-49.5 -119t-27 -125t-8.5 -121
q0 -203 46.5 -350.5t147.5 -233.5t250 -86q87 0 161.5 21.5t125 53.5t93.5 79t68 88.5t48 91.5q12 26 35 26q13 0 26 -8z" />
    <glyph glyph-name="Egrave" unicode="&#xc8;" horiz-adv-x="1546" 
d="M862 1659q-16 -8 -35 -2q-50 18 -103 47.5t-106 71.5t-86.5 98t-33.5 115q0 51 40 77.5t103 26.5q27 0 39 -2q27 -3 37 -27q39 -102 81.5 -174t137.5 -194zM1487 438q18 -9 18 -26q0 -8 -6 -17l-192 -405q-6 -19 -25 -19q-9 0 -18 9l-11 10q-12 10 -41 10h-1120
q-31 0 -31 31v61q0 31 31 31h2q150 0 150 194v900q0 194 -150 194h-2q-31 0 -31 31v61q0 33 31 33h1026q27 0 39 10l12 10q7 7 17 7q16 0 26 -17l162 -278q6 -9 6 -19q0 -14 -16 -24l-86 -47q-10 -7 -18 -7q-16 0 -25 19l-6 10q-60 103 -133 147t-195 44h-344v-482h193
q186 0 194 138v14q0 31 31 31h61q31 0 31 -31v-465q0 -31 -31 -31h-61q-31 0 -31 31v12q-8 137 -194 137h-181v-405q0 -190 142 -195h133q47 0 79 1.5t75.5 8.5t76 19t73 34.5t75 55t73.5 80.5t76 109l6 12q13 16 27 16q4 0 16 -4z" />
    <glyph glyph-name="Eacute" unicode="&#xc9;" horiz-adv-x="1546" 
d="M631 1696q95 120 137 192t82 176q10 24 37 27q12 2 39 2q63 0 103 -26.5t40 -77.5q0 -59 -33.5 -115t-86 -98t-106 -71.5t-104.5 -47.5q-6 -2 -14 -2q-6 0 -18 4zM1487 438q18 -9 18 -26q0 -8 -6 -17l-192 -405q-6 -19 -25 -19q-9 0 -18 9l-11 10q-12 10 -41 10h-1120
q-31 0 -31 31v61q0 31 31 31h2q150 0 150 194v900q0 194 -150 194h-2q-31 0 -31 31v61q0 33 31 33h1026q27 0 39 10l12 10q7 7 17 7q16 0 26 -17l162 -278q6 -9 6 -19q0 -14 -16 -24l-86 -47q-10 -7 -18 -7q-16 0 -25 19l-6 10q-60 103 -133 147t-195 44h-344v-482h193
q186 0 194 138v14q0 31 31 31h61q31 0 31 -31v-465q0 -31 -31 -31h-61q-31 0 -31 31v12q-8 137 -194 137h-181v-405q0 -190 142 -195h133q47 0 79 1.5t75.5 8.5t76 19t73 34.5t75 55t73.5 80.5t76 109l6 12q13 16 27 16q4 0 16 -4z" />
    <glyph glyph-name="Ecircumflex" unicode="&#xca;" horiz-adv-x="1546" 
d="M492 1649q-51 0 -78 40.5t-27 102.5q0 27 2 39q6 28 27 37q105 40 178 82.5t192 136.5q120 -95 192 -137t177 -82q24 -10 27 -37q2 -12 2 -39q0 -62 -27 -102.5t-78 -40.5q-90 0 -167 70.5t-126 170.5q-52 -101 -128 -171t-166 -70zM1487 438q18 -9 18 -26q0 -8 -6 -17
l-192 -405q-6 -19 -25 -19q-9 0 -18 9l-11 10q-12 10 -41 10h-1120q-31 0 -31 31v61q0 31 31 31h2q150 0 150 194v900q0 194 -150 194h-2q-31 0 -31 31v61q0 33 31 33h1026q27 0 39 10l12 10q7 7 17 7q16 0 26 -17l162 -278q6 -9 6 -19q0 -14 -16 -24l-86 -47q-10 -7 -18 -7
q-16 0 -25 19l-6 10q-60 103 -133 147t-195 44h-344v-482h193q186 0 194 138v14q0 31 31 31h61q31 0 31 -31v-465q0 -31 -31 -31h-61q-31 0 -31 31v12q-8 137 -194 137h-181v-405q0 -190 142 -195h133q47 0 79 1.5t75.5 8.5t76 19t73 34.5t75 55t73.5 80.5t76 109l6 12
q13 16 27 16q4 0 16 -4z" />
    <glyph glyph-name="Edieresis" unicode="&#xcb;" horiz-adv-x="1546" 
d="M551 1720q-53 0 -102 52q-52 49 -52 102q0 50 52 102q49 52 102 52q50 0 102 -52t52 -102q0 -53 -52 -102q-52 -52 -102 -52zM1026 1720q-50 0 -102 52q-52 49 -52 102q0 50 52 102t102 52q53 0 102 -52q52 -52 52 -102q0 -53 -52 -102q-49 -52 -102 -52zM1487 438
q18 -9 18 -26q0 -8 -6 -17l-192 -405q-6 -19 -25 -19q-9 0 -18 9l-11 10q-12 10 -41 10h-1120q-31 0 -31 31v61q0 31 31 31h2q150 0 150 194v900q0 194 -150 194h-2q-31 0 -31 31v61q0 33 31 33h1026q27 0 39 10l12 10q7 7 17 7q16 0 26 -17l162 -278q6 -9 6 -19
q0 -14 -16 -24l-86 -47q-10 -7 -18 -7q-16 0 -25 19l-6 10q-60 103 -133 147t-195 44h-344v-482h193q186 0 194 138v14q0 31 31 31h61q31 0 31 -31v-465q0 -31 -31 -31h-61q-31 0 -31 31v12q-8 137 -194 137h-181v-405q0 -190 142 -195h133q47 0 79 1.5t75.5 8.5t76 19
t73 34.5t75 55t73.5 80.5t76 109l6 12q13 16 27 16q4 0 16 -4z" />
    <glyph glyph-name="Igrave" unicode="&#xcc;" horiz-adv-x="833" 
d="M494 1659q-16 -8 -33 -2q-51 18 -104.5 47.5t-106 71.5t-86 98t-33.5 115q0 52 39.5 78t103.5 26q25 0 39 -2q28 -3 35 -27q39 -102 81.5 -174t137.5 -194zM582 317q0 -186 137 -194h12q31 0 31 -31v-61q0 -31 -31 -31h-629q-30 0 -30 31v61q0 31 30 31h15q137 8 137 194
v902q0 186 -137 194h-15q-30 0 -30 31v61q0 31 30 31h629q31 0 31 -31v-61q0 -31 -31 -31h-12q-137 -8 -137 -194v-902z" />
    <glyph glyph-name="Iacute" unicode="&#xcd;" horiz-adv-x="833" 
d="M264 1696q95 122 137.5 194t81.5 174q7 24 35 27q14 2 39 2q64 0 103.5 -26t39.5 -78q0 -59 -33.5 -115t-86 -98t-105.5 -71.5t-104 -47.5q-4 -2 -15 -2q-6 0 -18 4zM582 317q0 -186 137 -194h12q31 0 31 -31v-61q0 -31 -31 -31h-629q-30 0 -30 31v61q0 31 30 31h15
q137 8 137 194v902q0 186 -137 194h-15q-30 0 -30 31v61q0 31 30 31h629q31 0 31 -31v-61q0 -31 -31 -31h-12q-137 -8 -137 -194v-902z" />
    <glyph glyph-name="Icircumflex" unicode="&#xce;" horiz-adv-x="833" 
d="M813 1831q4 -24 4 -39q0 -63 -26.5 -103t-77.5 -40q-90 0 -167 70.5t-128 170.5q-51 -100 -128 -170.5t-167 -70.5q-51 0 -78 40.5t-27 102.5q0 9 5 39q3 26 24 37q106 40 178.5 82t192.5 137q121 -95 193 -137t177 -82q22 -11 25 -37zM731 1536q31 0 31 -31v-61
q0 -31 -31 -31h-12q-137 -8 -137 -194v-902q0 -186 137 -194h12q31 0 31 -31v-61q0 -31 -31 -31h-629q-30 0 -30 31v61q0 31 30 31h15q137 8 137 194v902q0 186 -137 194h-15q-30 0 -30 31v61q0 31 30 31h629z" />
    <glyph glyph-name="Idieresis" unicode="&#xcf;" horiz-adv-x="833" 
d="M182 1720q-50 0 -102 52q-51 48 -51 102q0 51 51 102q52 52 102 52q51 0 103 -52q51 -51 51 -102q0 -54 -51 -102q-52 -52 -103 -52zM659 1720q-53 0 -102 52q-51 48 -51 102q0 51 51 102q49 52 102 52q51 0 103 -52q51 -51 51 -102q0 -54 -51 -102q-52 -52 -103 -52z
M731 1536q31 0 31 -31v-61q0 -31 -31 -31h-12q-137 -8 -137 -194v-902q0 -186 137 -194h12q31 0 31 -31v-61q0 -31 -31 -31h-629q-30 0 -30 31v61q0 31 30 31h15q137 8 137 194v902q0 186 -137 194h-15q-30 0 -30 31v61q0 31 30 31h629z" />
    <glyph glyph-name="Eth" unicode="&#xd0;" horiz-adv-x="1617" 
d="M723 1536q177 0 327.5 -52t260.5 -148.5t172.5 -242t62.5 -323.5q0 -131 -27.5 -244.5t-87.5 -211t-149 -167t-217 -108.5t-285 -39h-688q-31 0 -31 31v61q0 31 31 31h14q138 8 138 194v304h-152q-31 0 -31 30v178q0 31 31 31h152v359q0 194 -150 194h-2q-31 0 -31 31v61
q0 31 31 31h631zM569 328q0 -41 1.5 -64t9.5 -51.5t24 -43.5t45 -25.5t72 -10.5q147 0 248 42t159 127t82.5 198t24.5 270q0 306 -148 474.5t-421 168.5h-97v-553h435q30 0 30 -31v-178q0 -30 -30 -30h-435v-293z" />
    <glyph glyph-name="Ntilde" unicode="&#xd1;" horiz-adv-x="1824" 
d="M725 1651q-31 0 -67.5 49t-36.5 108q0 96 59 155.5t141 59.5q29 0 54.5 -4.5t46.5 -15t35 -18t30.5 -25.5t22.5 -24.5t21 -27t16 -22.5q24 -34 36.5 -45.5t28.5 -11.5q37 0 37 47t-31 86q20 24 52 43.5t63 19.5t66.5 -49.5t35.5 -107.5q0 -96 -59 -155.5t-139 -59.5
q-34 0 -64.5 7.5t-49 16t-40 27.5t-29.5 28t-25.5 32t-19.5 26q-21 32 -34.5 44.5t-30.5 12.5q-37 0 -37 -47t31 -86q-20 -24 -52 -43.5t-61 -19.5zM1774 1538q30 0 30 -31v-61q0 -31 -30 -31q-73 0 -112.5 -54.5t-37.5 -141.5v-1188q0 -31 -31 -31h-141q-22 0 -37 18
l-969 1115v-816q0 -86 39.5 -140t112.5 -54q31 0 31 -31v-61q0 -13 -8.5 -22t-22.5 -9h-506q-31 0 -31 31v61q0 31 31 31q73 0 111.5 53.5t38.5 140.5v1045q-60 51 -129 51q-31 0 -31 31v61q0 31 31 31h354q24 0 37 -16l915 -1045v744q0 88 -39 142t-112 54q-31 0 -31 31v61
q0 31 31 31h506z" />
    <glyph glyph-name="Ograve" unicode="&#xd2;" horiz-adv-x="1683" 
d="M991 1696q-95 122 -137.5 194t-81.5 174q-7 24 -37 27q-12 2 -39 2q-63 0 -103 -26.5t-40 -77.5q0 -59 33.5 -115t87 -98t106.5 -71.5t103 -47.5q6 -2 14 -2q5 0 21 4zM674 1544q75 17 155 17q271 0 487.5 -178t276.5 -457q19 -90 19 -170q0 -181 -76 -342t-214.5 -273.5
t-315.5 -150.5q-87 -17 -154 -17q-178 0 -337.5 79.5t-272.5 224.5t-152 329q-18 86 -18 170q0 181 75 343t213 275t314 150zM713 1370q-91 -19 -158 -66t-105 -114t-55.5 -142.5t-17.5 -162.5q0 -103 22 -213q22 -100 60 -188t95 -163.5t139 -120t179 -44.5q39 0 97 10
q91 19 158.5 66t105.5 113.5t56 141.5t18 162q0 90 -25 211q-21 100 -59 189t-95.5 165.5t-140 121t-180.5 44.5q-39 0 -94 -10z" />
    <glyph glyph-name="Oacute" unicode="&#xd3;" horiz-adv-x="1683" 
d="M686 1696q95 120 137 192t82 176q10 24 37 27q12 2 39 2q63 0 103 -26.5t40 -77.5q0 -59 -33.5 -115t-86 -98t-105.5 -71.5t-104 -47.5q-4 -2 -15 -2q-6 0 -18 4zM674 1544q75 17 155 17q271 0 487.5 -178t276.5 -457q19 -90 19 -170q0 -181 -76 -342t-214.5 -273.5
t-315.5 -150.5q-87 -17 -154 -17q-178 0 -337.5 79.5t-272.5 224.5t-152 329q-18 86 -18 170q0 181 75 343t213 275t314 150zM713 1370q-91 -19 -158 -66t-105 -114t-55.5 -142.5t-17.5 -162.5q0 -103 22 -213q22 -100 60 -188t95 -163.5t139 -120t179 -44.5q39 0 97 10
q91 19 158.5 66t105.5 113.5t56 141.5t18 162q0 90 -25 211q-21 100 -59 189t-95.5 165.5t-140 121t-180.5 44.5q-39 0 -94 -10z" />
    <glyph glyph-name="Ocircumflex" unicode="&#xd4;" horiz-adv-x="1683" 
d="M547 1649q-51 0 -78 40.5t-27 102.5q0 27 2 39q6 28 27 37q106 41 179 83t192 136q120 -95 192 -137t176 -82q24 -10 27 -37q2 -12 2 -39q0 -63 -26.5 -103t-77.5 -40q-90 0 -167 70.5t-126 170.5q-51 -100 -128 -170.5t-167 -70.5zM1593 926q19 -90 19 -170
q0 -181 -76 -342t-214.5 -273.5t-315.5 -150.5q-87 -17 -154 -17q-178 0 -337.5 79.5t-272.5 224.5t-152 329q-18 86 -18 170q0 181 75 343t213 275t314 150q75 17 155 17q271 0 487.5 -178t276.5 -457zM969 166q91 19 158.5 66t105.5 113.5t56 141.5t18 162q0 90 -25 211
q-21 100 -59 189t-95.5 165.5t-140 121t-180.5 44.5q-39 0 -94 -10q-91 -19 -158 -66t-105 -114t-55.5 -142.5t-17.5 -162.5q0 -103 22 -213q22 -100 60 -188t95 -163.5t139 -120t179 -44.5q39 0 97 10z" />
    <glyph glyph-name="Otilde" unicode="&#xd5;" horiz-adv-x="1683" 
d="M950 1886q23 -33 36.5 -45t29.5 -12q37 0 37 47t-31 86q20 24 52.5 43.5t62.5 19.5q31 0 67.5 -49.5t36.5 -107.5q0 -96 -60 -155.5t-141 -59.5q-34 0 -64 7.5t-49 16t-40 27.5t-29 28t-25 31.5t-20 26.5q-21 32 -34.5 44.5t-30.5 12.5q-37 0 -37 -47q0 -48 30 -86
q-21 -24 -52 -43.5t-62 -19.5q-30 0 -66.5 49.5t-36.5 105.5q0 97 59.5 157t141.5 60q29 0 54.5 -4.5t46 -15t35 -18.5t30.5 -25.5t22.5 -24.5t20.5 -26.5t16 -22.5zM674 1546q79 15 155 15q271 0 487.5 -178t276.5 -457q19 -90 19 -170q0 -274 -169.5 -491t-436.5 -275
q-87 -17 -154 -17q-270 0 -486 177.5t-276 455.5q-18 86 -18 170q0 181 75 343t213 275.5t314 151.5zM713 1370q-91 -19 -158 -66t-105 -114t-55.5 -142.5t-17.5 -162.5q0 -104 22 -211q22 -101 60 -189t95 -164t139 -120.5t179 -44.5q44 0 97 12q91 19 158.5 66
t105.5 113.5t56 141.5t18 162q0 88 -25 209q-21 100 -59 189t-95.5 165.5t-140 121t-180.5 44.5q-53 0 -94 -10z" />
    <glyph glyph-name="Odieresis" unicode="&#xd6;" horiz-adv-x="1683" 
d="M606 2028q51 0 103 -52q51 -51 51 -102q0 -54 -51 -102q-52 -52 -103 -52q-53 0 -102 52q-51 48 -51 102q0 51 51 102q49 52 102 52zM1081 2028q53 0 105 -52q51 -54 51 -102q0 -51 -51 -102q-52 -52 -105 -52q-50 0 -102 52q-51 51 -51 102q0 48 51 102q52 52 102 52z
M674 1544q75 17 155 17q271 0 487.5 -178t276.5 -457q19 -90 19 -170q0 -181 -76 -342t-214.5 -273.5t-315.5 -150.5q-87 -17 -154 -17q-178 0 -337.5 79.5t-272.5 224.5t-152 329q-18 86 -18 170q0 181 75 343t213 275t314 150zM713 1370q-91 -19 -158 -66t-105 -114
t-55.5 -142.5t-17.5 -162.5q0 -103 22 -213q22 -100 60 -188t95 -163.5t139 -120t179 -44.5q39 0 97 10q91 19 158.5 66t105.5 113.5t56 141.5t18 162q0 90 -25 211q-21 100 -59 189t-95.5 165.5t-140 121t-180.5 44.5q-39 0 -94 -10z" />
    <glyph glyph-name="multiply" unicode="&#xd7;" 
d="M1145 178q10 -10 10 -22q0 -11 -10 -21l-127 -125q-9 -12 -21 -12q-10 0 -22 12l-361 361l-360 -361q-13 -10 -23 -10t-20 10l-127 127q-10 10 -10 21q0 9 10 22l360 361l-360 360q-10 10 -10 23q0 10 10 20l127 125q9 12 20 12q10 0 23 -10l360 -362l361 362
q10 10 22 10q11 0 21 -10l125 -127q12 -9 12 -20t-12 -23l-361 -360z" />
    <glyph glyph-name="Oslash" unicode="&#xd8;" horiz-adv-x="1683" 
d="M1186 1470q153 -81 261 -223t146 -321q19 -90 19 -170q0 -181 -76 -342t-214.5 -273.5t-315.5 -150.5q-87 -17 -154 -17q-100 0 -195 25l-41 -113q-8 -24 -34 -24h-168q-37 0 -25 35l68 188q-139 85 -236 220.5t-131 301.5q-18 86 -18 170q0 181 75 343t213 275t314 150
q75 17 155 17q82 0 154 -17l61 172q9 25 35 25h168q35 0 25 -35zM918 1364q-56 16 -111 16q-39 0 -94 -10q-91 -19 -158 -66t-105 -114t-55.5 -142.5t-17.5 -162.5q0 -103 22 -213q47 -211 148 -342zM725 184q67 -28 147 -28q39 0 97 10q91 19 158.5 66t105.5 113.5
t56 141.5t18 162q0 90 -25 211q-52 244 -178 381z" />
    <glyph glyph-name="Ugrave" unicode="&#xd9;" horiz-adv-x="1654" 
d="M967 1659q-14 -8 -33 -2q-51 18 -104.5 47.5t-106 71.5t-86 98t-33.5 115q0 51 40.5 77.5t103.5 26.5q26 0 38 -2q27 -3 37 -27q40 -104 82 -176t137 -192zM1604 1536q30 0 30 -31v-61q0 -31 -30 -31h-15q-137 -8 -137 -194v-656q0 -590 -586 -590q-303 0 -468 150.5
t-165 419.5v676q0 186 -137 194h-14q-31 0 -31 31v61q0 31 31 31h629q30 0 30 -31v-61q0 -31 -30 -31h-13q-137 -8 -137 -194v-635q0 -76 7 -133.5t30 -116t61.5 -96t106 -61t160.5 -23.5q86 0 149 31.5t99.5 91t53.5 135.5t17 172v635q0 186 -137 194h-12q-31 0 -31 31v61
q0 31 31 31h508z" />
    <glyph glyph-name="Uacute" unicode="&#xda;" horiz-adv-x="1654" 
d="M737 1696q95 122 137.5 194t81.5 174q7 24 37 27q12 2 39 2q63 0 103.5 -26.5t40.5 -77.5q0 -59 -33.5 -115t-87 -98t-106.5 -71.5t-103 -47.5q-6 -2 -15 -2q-4 0 -20 4zM1604 1536q30 0 30 -31v-61q0 -31 -30 -31h-15q-137 -8 -137 -194v-656q0 -590 -586 -590
q-303 0 -468 150.5t-165 419.5v676q0 186 -137 194h-14q-31 0 -31 31v61q0 31 31 31h629q30 0 30 -31v-61q0 -31 -30 -31h-13q-137 -8 -137 -194v-635q0 -76 7 -133.5t30 -116t61.5 -96t106 -61t160.5 -23.5q86 0 149 31.5t99.5 91t53.5 135.5t17 172v635q0 186 -137 194
h-12q-31 0 -31 31v61q0 31 31 31h508z" />
    <glyph glyph-name="Ucircumflex" unicode="&#xdb;" horiz-adv-x="1654" 
d="M598 1649q-51 0 -77.5 40t-26.5 103q0 27 2 39q3 27 26 37q105 40 177 82t192 137q119 -94 192 -136t179 -83q20 -9 26 -37q2 -12 2 -39q0 -63 -26.5 -103t-77.5 -40q-90 0 -167 70.5t-128 170.5q-49 -100 -126 -170.5t-167 -70.5zM1604 1536q30 0 30 -31v-61
q0 -31 -30 -31h-15q-137 -8 -137 -194v-656q0 -590 -586 -590q-303 0 -468 150.5t-165 419.5v676q0 186 -137 194h-14q-31 0 -31 31v61q0 31 31 31h629q30 0 30 -31v-61q0 -31 -30 -31h-13q-137 -8 -137 -194v-635q0 -76 7 -133.5t30 -116t61.5 -96t106 -61t160.5 -23.5
q86 0 149 31.5t99.5 91t53.5 135.5t17 172v635q0 186 -137 194h-12q-31 0 -31 31v61q0 31 31 31h508z" />
    <glyph glyph-name="Udieresis" unicode="&#xdc;" horiz-adv-x="1654" 
d="M655 1720q-50 0 -102 52q-51 51 -51 102q0 48 51 102q52 52 102 52q53 0 105 -52q51 -54 51 -102q0 -51 -51 -102q-52 -52 -105 -52zM1133 1720q-51 0 -103 52q-51 48 -51 102q0 51 51 102q52 52 103 52q50 0 102 -52q51 -51 51 -102q0 -54 -51 -102q-52 -52 -102 -52z
M1604 1536q30 0 30 -31v-61q0 -31 -30 -31h-15q-137 -8 -137 -194v-656q0 -590 -586 -590q-303 0 -468 150.5t-165 419.5v676q0 186 -137 194h-14q-31 0 -31 31v61q0 31 31 31h629q30 0 30 -31v-61q0 -31 -30 -31h-13q-137 -8 -137 -194v-635q0 -76 7 -133.5t30 -116
t61.5 -96t106 -61t160.5 -23.5q86 0 149 31.5t99.5 91t53.5 135.5t17 172v635q0 186 -137 194h-12q-31 0 -31 31v61q0 31 31 31h508z" />
    <glyph glyph-name="Yacute" unicode="&#xdd;" horiz-adv-x="1626" 
d="M770 1696q95 122 137.5 194t81.5 174q10 24 37 27q12 2 39 2q63 0 103 -26.5t40 -77.5q0 -59 -33.5 -115t-86 -98t-105.5 -71.5t-104 -47.5q-6 -2 -15 -2q-6 0 -18 4zM1575 1542q31 0 31 -31v-61q0 -31 -31 -31q-140 0 -256 -196l-315 -541q-11 -16 -11 -39v-326
q0 -186 137 -194h15q31 0 31 -31v-61q0 -31 -31 -31h-631q-31 0 -31 31v61q0 31 31 31h12q140 8 140 194v316q0 17 -13 37l-368 553q-73 109 -122.5 152.5t-111.5 43.5q-31 0 -31 31v61q0 31 31 31h711q14 0 22.5 -9t8.5 -22v-61q0 -31 -31 -31q-62 0 -103 -23.5t-41 -72.5
q0 -43 35 -100l240 -389l221 389q45 80 45 129q0 67 -94 67q-31 0 -31 31v61q0 13 9 22t22 9h510z" />
    <glyph glyph-name="Thorn" unicode="&#xde;" horiz-adv-x="1433" 
d="M571 317q0 -186 138 -194h12q31 0 31 -31v-61q0 -31 -31 -31h-629q-31 0 -31 31v61q0 31 31 31h14q138 8 138 194v902q0 194 -148 194h-2q-31 0 -31 31v61q0 31 31 31h596q31 0 31 -31v-61q0 -31 -31 -31h-131v-117h287q121 0 225 -38t173.5 -100.5t109 -145t39.5 -170.5
q0 -81 -21.5 -148.5t-71 -127t-125 -101t-190 -65t-260.5 -23.5h-154v-60zM690 522q205 0 300 76t95 244q0 145 -89 237t-240 92h-197v-649h131z" />
    <glyph glyph-name="germandbls" unicode="&#xdf;" horiz-adv-x="1484" 
d="M948 881q147 0 266 -61.5t184.5 -166t65.5 -229.5q0 -95 -28.5 -172.5t-76.5 -128.5t-113.5 -85.5t-136 -49.5t-146.5 -15q-197 0 -328 131q-12 12 -12 23l32 66q5 12 19 12q13 0 26 -10q82 -56 185 -56q120 0 200 73t80 212q0 310 -370 313q-4 0 -7 0.5t-6 2l-5 2.5
t-5 4.5t-4 4.5t-5 5.5t-5 5.5q-11 12 -23.5 26t-19.5 21.5t-14.5 16t-11.5 13.5t-7.5 10.5t-4.5 9t-1 7.5q0 17 18 17h8q19 0 37 18l258 248q15 13 15 39q-7 96 -64.5 144t-140.5 48q-100 0 -180 -64t-80 -163v-1122q0 -31 -31 -31h-428q-31 0 -31 31v61q0 31 31 31h6
q146 3 146 194v349q0 50 -3.5 83t-14.5 70t-37 57.5t-66 24.5q-25 3 -25 27v69q0 21 31 27h115v31q0 37 3.5 71.5t17 85t36 92.5t64.5 86.5t98 75.5t142 50.5t192 19.5q196 0 324.5 -94.5t135.5 -253.5v-4q0 -22 -16 -35z" />
    <glyph glyph-name="agrave" unicode="&#xe0;" horiz-adv-x="1267" 
d="M649 1147q-14 -8 -33 -2q-51 18 -104 47.5t-105.5 71.5t-86 98t-33.5 115q0 51 40 77.5t103 26.5q27 0 39 -2q27 -3 37 -27q40 -104 82 -176t137 -192zM1092 379q1 -41 6 -71.5t17 -60t36.5 -47.5t60.5 -22q25 -2 25 -26v-68q0 -29 -31 -29q-94 0 -169 -12.5
t-111.5 -25.5t-96.5 -40q-8 -4 -18 -4h-4q-2 0 -2 7l22 182q-9 -21 -21 -41.5t-38 -48.5t-58.5 -48.5t-83.5 -35.5t-110 -15t-119 17.5t-121 59t-108.5 102t-77 154.5t-29.5 208q0 110 26 201t71 152.5t107 103.5t131 61t145 19q196 0 331 -119q24 10 44.5 19t39 19.5
t30.5 16.5t28 17t21 14.5t22 15.5t18 13q4 4 8 4h7q2 0 2 -4v-668zM805 700q-6 36 -19.5 69t-38.5 67.5t-68.5 55.5t-100.5 21q-72 0 -123 -27.5t-78 -76t-39 -105t-12 -124.5q0 -195 77.5 -310.5t204.5 -115.5q43 0 78.5 14t56.5 33.5t36 39.5t21 34l5 14v411z" />
    <glyph glyph-name="aacute" unicode="&#xe1;" horiz-adv-x="1267" 
d="M420 1184q95 122 137.5 194t81.5 174q7 24 35 27q14 2 41 2q62 0 101.5 -26.5t39.5 -77.5q0 -59 -33.5 -115t-86 -98t-105.5 -71.5t-103 -47.5q-6 -2 -14 -2q-4 0 -20 4zM1092 379q1 -41 6 -71.5t17 -60t36.5 -47.5t60.5 -22q25 -2 25 -26v-68q0 -29 -31 -29
q-94 0 -169 -12.5t-111.5 -25.5t-96.5 -40q-8 -4 -18 -4h-4q-2 0 -2 7l22 182q-9 -21 -21 -41.5t-38 -48.5t-58.5 -48.5t-83.5 -35.5t-110 -15t-119 17.5t-121 59t-108.5 102t-77 154.5t-29.5 208q0 110 26 201t71 152.5t107 103.5t131 61t145 19q196 0 331 -119
q24 10 44.5 19t39 19.5t30.5 16.5t28 17t21 14.5t22 15.5t18 13q4 4 8 4h7q2 0 2 -4v-668zM805 700q-6 36 -19.5 69t-38.5 67.5t-68.5 55.5t-100.5 21q-72 0 -123 -27.5t-78 -76t-39 -105t-12 -124.5q0 -195 77.5 -310.5t204.5 -115.5q43 0 78.5 14t56.5 33.5t36 39.5t21 34
l5 14v411z" />
    <glyph glyph-name="acircumflex" unicode="&#xe2;" horiz-adv-x="1267" 
d="M279 1137q-50 0 -76.5 40.5t-26.5 102.5q0 27 2 39q3 27 27 37q104 40 176 82t192 137q120 -95 192.5 -137t178.5 -82q21 -9 27 -37q0 -6 1 -19.5t1 -19.5q0 -62 -27 -102.5t-78 -40.5q-90 0 -167 70.5t-128 170.5q-52 -101 -127.5 -171t-166.5 -70zM1092 379
q1 -41 6 -71.5t17 -60t36.5 -47.5t60.5 -22q25 -2 25 -26v-68q0 -29 -31 -29q-94 0 -169 -12.5t-111.5 -25.5t-96.5 -40q-8 -4 -18 -4h-4q-2 0 -2 7l22 182q-9 -21 -21 -41.5t-38 -48.5t-58.5 -48.5t-83.5 -35.5t-110 -15t-119 17.5t-121 59t-108.5 102t-77 154.5t-29.5 208
q0 110 26 201t71 152.5t107 103.5t131 61t145 19q196 0 331 -119q24 10 44.5 19t39 19.5t30.5 16.5t28 17t21 14.5t22 15.5t18 13q4 4 8 4h7q2 0 2 -4v-668zM805 700q-6 36 -19.5 69t-38.5 67.5t-68.5 55.5t-100.5 21q-72 0 -123 -27.5t-78 -76t-39 -105t-12 -124.5
q0 -195 77.5 -310.5t204.5 -115.5q43 0 78.5 14t56.5 33.5t36 39.5t21 34l5 14v411z" />
    <glyph glyph-name="atilde" unicode="&#xe3;" horiz-adv-x="1267" 
d="M360 1139q-30 0 -67 49.5t-37 107.5q0 96 60 155.5t141 59.5q23 0 43.5 -2.5t38 -9.5t31.5 -12.5t28 -17t22 -17.5t20 -21t15.5 -19.5t14.5 -20t12 -17.5q23 -33 36.5 -45t29.5 -12q38 0 38 47q0 48 -30 86q21 24 52 43.5t62 19.5q29 0 66 -50t37 -107
q0 -96 -59.5 -155.5t-141.5 -59.5q-29 0 -54.5 4.5t-46 15t-35 18.5t-30.5 25.5t-22.5 24.5t-20.5 26.5t-16 22.5q-23 33 -36.5 45t-29.5 12q-20 0 -29.5 -14.5t-9.5 -32.5q0 -47 31 -86q-17 -23 -49.5 -43t-63.5 -20zM1092 379q1 -40 6 -70.5t17 -60.5t36.5 -47t60.5 -21
q25 -2 25 -26v-70q0 -27 -31 -27q-72 0 -128 -6t-104 -20t-73 -23.5t-72 -30.5q-8 -4 -18 -4h-4q-2 0 -2 7l22 182q-9 -20 -21 -40.5t-38.5 -48.5t-58.5 -49t-83 -36t-110 -15t-119 18t-121 59.5t-108.5 102t-77 154t-29.5 207.5q0 110 26 201t71 152.5t107 103.5t131 61
t145 19q200 0 331 -119q24 10 44.5 19t39 19.5t30.5 16.5t28 17t21 14.5t22 15.5t18 13q4 4 8 4h7q2 0 2 -2v-670zM805 700q-5 28 -13.5 54.5t-26.5 56.5t-42 51.5t-61.5 36t-83.5 14.5q-72 0 -123 -27.5t-78 -76t-39 -105t-12 -124.5q0 -195 77.5 -309.5t204.5 -114.5
q43 0 78.5 13.5t56.5 33t36 39.5t21 34l5 13v411z" />
    <glyph glyph-name="adieresis" unicode="&#xe4;" horiz-adv-x="1267" 
d="M338 1208q-50 0 -102 52q-52 49 -52 102q0 50 52 102t102 52q53 0 102 -52q52 -52 52 -102q0 -53 -52 -102q-49 -52 -102 -52zM815 1208q-50 0 -102 52q-51 48 -51 102q0 51 51 102q52 52 102 52q51 0 103 -52q51 -51 51 -102q0 -54 -51 -102q-52 -52 -103 -52zM1092 379
q1 -41 6 -71.5t17 -60t36.5 -47.5t60.5 -22q25 -2 25 -26v-68q0 -29 -31 -29q-94 0 -169 -12.5t-111.5 -25.5t-96.5 -40q-8 -4 -18 -4h-4q-2 0 -2 7l22 182q-9 -21 -21 -41.5t-38 -48.5t-58.5 -48.5t-83.5 -35.5t-110 -15t-119 17.5t-121 59t-108.5 102t-77 154.5t-29.5 208
q0 110 26 201t71 152.5t107 103.5t131 61t145 19q196 0 331 -119q24 10 44.5 19t39 19.5t30.5 16.5t28 17t21 14.5t22 15.5t18 13q4 4 8 4h7q2 0 2 -4v-668zM805 700q-6 36 -19.5 69t-38.5 67.5t-68.5 55.5t-100.5 21q-72 0 -123 -27.5t-78 -76t-39 -105t-12 -124.5
q0 -195 77.5 -310.5t204.5 -115.5q43 0 78.5 14t56.5 33.5t36 39.5t21 34l5 14v411z" />
    <glyph glyph-name="aring" unicode="&#xe5;" horiz-adv-x="1267" 
d="M1092 379q1 -41 6 -71.5t17 -60t36.5 -47.5t60.5 -22q25 -2 25 -26v-68q0 -29 -31 -29q-94 0 -169 -12.5t-111.5 -25.5t-96.5 -40q-8 -4 -18 -4h-4q-2 0 -2 7l22 182q-9 -21 -21 -41.5t-38 -48.5t-58.5 -48.5t-83.5 -35.5t-110 -15t-119 17.5t-121 59t-108.5 102
t-77 154.5t-29.5 208q0 225 100.5 356.5t262.5 167.5q-58 34 -93.5 91t-35.5 120q0 103 84.5 179.5t198.5 76.5q112 0 196 -76.5t84 -179.5q0 -69 -41 -130t-108 -95q87 -26 163 -92q24 10 44.5 19t39 19.5t30.5 16.5t28 17t21 14.5t22 15.5t18 13q4 4 8 4h7q2 0 2 -4v-668z
M578 1362q-52 0 -88.5 -33t-36.5 -80t36 -79.5t89 -32.5q51 0 86.5 32.5t35.5 79.5t-35.5 80t-86.5 33zM805 700q-6 36 -19.5 69t-38.5 67.5t-68.5 55.5t-100.5 21q-72 0 -123 -27.5t-78 -76t-39 -105t-12 -124.5q0 -195 77.5 -310.5t204.5 -115.5q43 0 78.5 14t56.5 33.5
t36 39.5t21 34l5 14v411z" />
    <glyph glyph-name="ae" unicode="&#xe6;" horiz-adv-x="1837" 
d="M1122 367q39 -95 118 -158.5t190 -63.5q70 0 140 38.5t122 113.5q5 8 16 8q16 0 82 -39q8 -5 8 -16q0 -15 -12 -35q-131 -240 -412 -240q-167 0 -291 76q-55 -6 -106.5 -19.5t-74 -22.5t-73.5 -32q-8 -4 -18 -4h-4q-2 0 -2 7l22 182q-9 -21 -21 -41.5t-38 -48.5
t-58.5 -48.5t-83.5 -35.5t-110 -15t-119 17.5t-121 59t-108.5 102t-77 154.5t-29.5 208q0 110 26 201t71 152.5t107 103.5t131 61t145 19q198 0 327 -117q24 11 45 22.5t40 25t31 22t29 23.5t22 20l21.5 21.5l18.5 18.5q5 5 8 5h7q2 0 2 -5l-5 -88q102 48 226 48
q78 0 147.5 -26t118.5 -68.5t85 -95t53.5 -105.5t17.5 -101q0 -19 -19 -24zM805 700q-6 36 -19.5 69t-38.5 67.5t-68.5 55.5t-100.5 21q-72 0 -123 -27.5t-78 -76t-39 -105t-12 -124.5q0 -195 77.5 -310.5t204.5 -115.5q43 0 78.5 14t56.5 33.5t36 39.5t21 34l5 14v411z
M1427 659q0 98 -47 162t-116 64q-83 0 -134 -66t-51 -168q0 -99 19 -157z" />
    <glyph glyph-name="ccedilla" unicode="&#xe7;" horiz-adv-x="1052" 
d="M731 668q-12 -4 -16 -4q-9 0 -14 4t-3 10l2 22q6 89 -36 137t-132 48q-91 0 -142.5 -72.5t-61.5 -185.5q-2 -27 -2 -78q0 -63 9 -119t29.5 -107t52 -87.5t79.5 -58t108 -21.5q6 0 19 1t20 1q62 6 123.5 43.5t103.5 103.5q11 14 25 14q9 0 18 -6l54 -37q23 -18 12 -43
q-105 -222 -369 -249l-88 -107q46 17 92 17q93 0 162.5 -53t69.5 -154q0 -92 -73.5 -151.5t-192.5 -59.5q-100 0 -203 43q-43 17 -43 116q0 13 10 18.5t25 0.5q97 -33 172 -33q98 0 98 66q0 51 -42.5 76.5t-115.5 25.5q-21 0 -59.5 -6t-56.5 -6q-19 0 -19 16q0 7 4 19
l107 178q-176 36 -286 186.5t-110 337.5q0 31 2 47q8 99 42.5 181t85.5 138t116 95t133.5 56.5t139.5 17.5l38 -2q90 -6 159 -32.5t111 -67t66 -85t35 -96.5l2 -8q0 -23 -24 -29z" />
    <glyph glyph-name="egrave" unicode="&#xe8;" horiz-adv-x="1054" 
d="M696 1184q-95 122 -137.5 194t-81.5 174q-7 24 -35 27q-14 2 -39 2q-64 0 -103.5 -26t-39.5 -78q0 -59 33.5 -115t86 -98t106 -71.5t104.5 -47.5q4 -2 14 -2q7 0 19 4zM358 367q39 -95 118 -158.5t190 -63.5q70 0 140 38.5t122 113.5q5 8 16 8q16 0 82 -39q8 -5 8 -16
q0 -15 -12 -35q-131 -240 -412 -240q-124 0 -228.5 43.5t-174 118.5t-108 174.5t-38.5 210.5q0 137 41.5 241t112.5 164.5t155 90t179 29.5q78 0 147.5 -26t118.5 -68.5t85 -95t53.5 -105.5t17.5 -101q0 -19 -19 -24zM664 659q0 98 -47.5 162t-118.5 64q-83 0 -133 -66
t-50 -168q0 -99 19 -157z" />
    <glyph glyph-name="eacute" unicode="&#xe9;" horiz-adv-x="1054" 
d="M393 1184q95 122 137.5 194t81.5 174q7 24 35 27q14 2 39 2q64 0 103.5 -26t39.5 -78q0 -59 -33.5 -115t-86 -98t-105.5 -71.5t-104 -47.5q-4 -2 -15 -2q-6 0 -18 4zM358 367q39 -95 118 -158.5t190 -63.5q70 0 140 38.5t122 113.5q5 8 16 8q16 0 82 -39q8 -5 8 -16
q0 -15 -12 -35q-131 -240 -412 -240q-124 0 -228.5 43.5t-174 118.5t-108 174.5t-38.5 210.5q0 137 41.5 241t112.5 164.5t155 90t179 29.5q78 0 147.5 -26t118.5 -68.5t85 -95t53.5 -105.5t17.5 -101q0 -19 -19 -24zM664 659q0 98 -47.5 162t-118.5 64q-83 0 -133 -66
t-50 -168q0 -99 19 -157z" />
    <glyph glyph-name="ecircumflex" unicode="&#xea;" horiz-adv-x="1054" 
d="M252 1137q-51 0 -78 40.5t-27 102.5q0 9 5 39q3 26 24 37q106 40 178.5 82t192.5 137q120 -95 192.5 -137t178.5 -82q21 -11 24 -37q4 -24 4 -39q0 -63 -26.5 -103t-77.5 -40q-90 0 -167 70.5t-128 170.5q-51 -100 -128 -170.5t-167 -70.5zM358 367q39 -95 118 -158.5
t190 -63.5q70 0 140 38.5t122 113.5q5 8 16 8q16 0 82 -39q8 -5 8 -16q0 -15 -12 -35q-131 -240 -412 -240q-124 0 -228.5 43.5t-174 118.5t-108 174.5t-38.5 210.5q0 137 41.5 241t112.5 164.5t155 90t179 29.5q78 0 147.5 -26t118.5 -68.5t85 -95t53.5 -105.5t17.5 -101
q0 -19 -19 -24zM664 659q0 98 -47.5 162t-118.5 64q-83 0 -133 -66t-50 -168q0 -99 19 -157z" />
    <glyph glyph-name="edieresis" unicode="&#xeb;" horiz-adv-x="1054" 
d="M311 1516q51 0 103 -52q51 -51 51 -102q0 -54 -51 -102q-52 -52 -103 -52q-50 0 -102 52q-51 48 -51 102q0 51 51 102q52 52 102 52zM788 1516q51 0 103 -52q51 -51 51 -102q0 -54 -51 -102q-52 -52 -103 -52q-53 0 -102 52q-51 48 -51 102q0 51 51 102q49 52 102 52z
M358 367q39 -95 118 -158.5t190 -63.5q70 0 140 38.5t122 113.5q5 8 16 8q16 0 82 -39q8 -5 8 -16q0 -15 -12 -35q-131 -240 -412 -240q-124 0 -228.5 43.5t-174 118.5t-108 174.5t-38.5 210.5q0 137 41.5 241t112.5 164.5t155 90t179 29.5q78 0 147.5 -26t118.5 -68.5
t85 -95t53.5 -105.5t17.5 -101q0 -19 -19 -24zM664 659q0 98 -47.5 162t-118.5 64q-83 0 -133 -66t-50 -168q0 -99 19 -157z" />
    <glyph glyph-name="igrave" unicode="&#xec;" horiz-adv-x="716" 
d="M432 1147q-16 -8 -35 -2q-50 18 -103 47.5t-105 71.5t-85.5 98t-33.5 115q0 51 39.5 77.5t101.5 26.5q27 0 41 -2q28 -3 35 -27q39 -102 81.5 -174t137.5 -194zM655 123q31 0 31 -31v-61q0 -15 -10 -23t-25 -8h-579q-15 0 -25 8t-10 23v61q0 31 31 31h4q73 0 111 53.5
t36 140.5v218q0 43 -3.5 72.5t-14.5 64.5t-37 55.5t-66 24.5q-24 2 -24 26v70q0 11 6.5 16t23.5 10q259 87 377 209q4 4 8 4h5q4 0 6 -2v-768q0 -87 38.5 -140.5t110.5 -53.5h6z" />
    <glyph glyph-name="iacute" unicode="&#xed;" horiz-adv-x="716" 
d="M201 1184q95 120 137 192t82 176q10 24 37 27q12 2 39 2q63 0 103 -26.5t40 -77.5q0 -59 -33.5 -115t-86 -98t-106 -71.5t-104.5 -47.5q-4 -2 -14 -2q-7 0 -19 4zM655 123q31 0 31 -31v-61q0 -15 -10 -23t-25 -8h-579q-15 0 -25 8t-10 23v61q0 31 31 31h4q73 0 111 53.5
t36 140.5v218q0 43 -3.5 72.5t-14.5 64.5t-37 55.5t-66 24.5q-24 2 -24 26v70q0 11 6.5 16t23.5 10q259 87 377 209q4 4 8 4h5q4 0 6 -2v-768q0 -87 38.5 -140.5t110.5 -53.5h6z" />
    <glyph glyph-name="icircumflex" unicode="&#xee;" horiz-adv-x="716" 
d="M752 1319q2 -12 2 -39q0 -62 -27 -102.5t-78 -40.5q-90 0 -165.5 70t-127.5 171q-51 -100 -128 -170.5t-167 -70.5q-51 0 -77.5 40t-26.5 103q0 6 1 19.5t1 19.5q6 28 27 37q105 40 177 82t193 137q120 -95 192 -137t177 -82q24 -10 27 -37zM655 123q31 0 31 -31v-61
q0 -15 -10 -23t-25 -8h-579q-15 0 -25 8t-10 23v61q0 31 31 31h4q73 0 111 53.5t36 140.5v218q0 43 -3.5 72.5t-14.5 64.5t-37 55.5t-66 24.5q-24 2 -24 26v70q0 11 6.5 16t23.5 10q259 87 377 209q4 4 8 4h5q4 0 6 -2v-768q0 -87 38.5 -140.5t110.5 -53.5h6z" />
    <glyph glyph-name="idieresis" unicode="&#xef;" horiz-adv-x="716" 
d="M223 1260q-52 -52 -102 -52q-54 0 -103 52q-51 48 -51 102q0 51 51 102q49 52 103 52q50 0 102 -52q51 -51 51 -102q0 -54 -51 -102zM700 1464q52 -55 52 -102q0 -50 -52 -102t-102 -52q-52 0 -104 52t-52 102q0 47 52 102q52 52 104 52q50 0 102 -52zM655 123
q31 0 31 -31v-61q0 -15 -10 -23t-25 -8h-579q-15 0 -25 8t-10 23v61q0 31 31 31h4q73 0 111 53.5t36 140.5v218q0 43 -3.5 72.5t-14.5 64.5t-37 55.5t-66 24.5q-24 2 -24 26v70q0 11 6.5 16t23.5 10q259 87 377 209q4 4 8 4h5q4 0 6 -2v-768q0 -87 38.5 -140.5t110.5 -53.5
h6z" />
    <glyph glyph-name="eth" unicode="&#xf0;" horiz-adv-x="1173" 
d="M621 1444q220 -150 354 -393.5t135 -520.5q11 -191 -99 -346t-294 -200q-70 -17 -123 -17q-180 0 -324.5 114.5t-189.5 297.5q-17 64 -17 133q0 184 108.5 329t285.5 189q57 14 123 14q58 0 116 -12q-86 154 -207 254l-81 -98q-9 -12 -23 -12q-12 0 -20 8l-103 76
q-12 9 -12 22t8 21l70 83q-109 46 -209 52q-31 3 -31 32v115q0 14 8 22.5t21 8.5q154 0 338 -78l88 104q10 13 22 13q10 0 21 -8l100 -76q14 -8 14 -23q0 -12 -8 -20zM680 129q166 43 166 272q0 68 -21 164q-35 138 -108 231t-172 93q-27 0 -51 -6q-86 -21 -126 -93.5
t-40 -177.5q0 -74 20 -166q35 -138 108.5 -230.5t172.5 -92.5q27 0 51 6z" />
    <glyph glyph-name="ntilde" unicode="&#xf1;" horiz-adv-x="1398" 
d="M489 1139q-31 0 -67.5 49t-36.5 108q0 96 59.5 155.5t141.5 59.5q29 0 54.5 -4.5t46 -15t35 -18.5t30.5 -25.5t22.5 -24.5t20.5 -26.5t16 -22.5q23 -33 36.5 -45t29.5 -12q38 0 38 47q0 49 -32 86q20 24 52 43.5t62 19.5q31 0 68 -50t37 -107q0 -96 -60 -155.5
t-141 -59.5q-29 0 -54.5 4.5t-46 15t-35 18.5t-30.5 25.5t-22.5 24.5t-20.5 26.5t-16 22.5q-23 33 -36.5 45t-29.5 12q-39 0 -39 -47t31 -86q-20 -24 -52 -43.5t-61 -19.5zM1348 123q30 0 30 -31v-61q0 -14 -8.5 -22.5t-21.5 -8.5h-557q-13 0 -22 9t-9 22v61q0 31 33 31
q56 0 82 52.5t24 141.5v310v20v41t-1.5 38.5t-5.5 38.5t-10.5 33t-17.5 30t-26 22t-37 15.5t-49 4.5q-73 0 -147 -53.5t-101 -120.5v-379q0 -87 38.5 -140.5t110.5 -53.5h4q31 0 31 -31v-61q0 -31 -31 -31h-596q-30 0 -30 31v61q0 31 30 31h5q72 0 110.5 53.5t38.5 140.5
v258q0 40 -1.5 67t-8.5 60t-19.5 53.5t-35.5 36.5t-56 19q-24 2 -24 27v69q0 24 30 27q131 21 241.5 66t162.5 83q2 1 5 4t5 3h4q4 0 4 -5l-37 -268q148 234 355 234q85 0 148.5 -23t101 -59t60 -90t30.5 -106.5t8 -117.5v-338q0 -87 38.5 -140.5t110.5 -53.5h11z" />
    <glyph glyph-name="ograve" unicode="&#xf2;" horiz-adv-x="1175" 
d="M737 1184q-95 122 -137.5 194t-81.5 174q-10 24 -37 27q-12 2 -39 2q-63 0 -103 -26.5t-40 -77.5q0 -59 33.5 -115t86 -98t106 -71.5t104.5 -47.5q6 -2 14 -2q5 0 21 4zM369 1006q101 43 206 43q155 0 289.5 -87t200.5 -237q49 -110 49 -223q0 -156 -82 -287t-225 -195
q-99 -45 -207 -45q-156 0 -290 87t-201 237q-48 115 -48 225q0 155 82 287t226 195zM430 866q-125 -54 -125 -215q0 -109 57 -239q54 -118 133 -195.5t169 -77.5q35 0 81 19q123 55 123 215q0 112 -57 239q-51 117 -130.5 195t-168.5 78q-39 0 -82 -19z" />
    <glyph glyph-name="oacute" unicode="&#xf3;" horiz-adv-x="1175" 
d="M432 1184q95 120 137 192t82 176q10 24 37 27q12 2 39 2q63 0 103 -26.5t40 -77.5q0 -59 -33.5 -115t-86 -98t-105.5 -71.5t-104 -47.5q-6 -2 -15 -2q-6 0 -18 4zM369 1006q101 43 206 43q155 0 289.5 -87t200.5 -237q49 -110 49 -223q0 -156 -82 -287t-225 -195
q-99 -45 -207 -45q-156 0 -290 87t-201 237q-48 115 -48 225q0 155 82 287t226 195zM430 866q-125 -54 -125 -215q0 -109 57 -239q54 -118 133 -195.5t169 -77.5q35 0 81 19q123 55 123 215q0 112 -57 239q-51 117 -130.5 195t-168.5 78q-39 0 -82 -19z" />
    <glyph glyph-name="ocircumflex" unicode="&#xf4;" horiz-adv-x="1175" 
d="M293 1137q-51 0 -78 40.5t-27 102.5q0 27 2 39q3 27 27 37q106 41 179 83t192 136q120 -95 192 -137t176 -82q24 -10 27 -37q2 -12 2 -39q0 -63 -26.5 -103t-77.5 -40q-90 0 -167 70.5t-126 170.5q-51 -100 -128 -170.5t-167 -70.5zM1065 725q49 -110 49 -223
q0 -156 -82 -287t-225 -195q-99 -45 -207 -45q-156 0 -290 87t-201 237q-48 115 -48 225q0 155 82 287t226 195q101 43 206 43q155 0 289.5 -87t200.5 -237zM745 158q123 55 123 215q0 112 -57 239q-51 117 -130.5 195t-168.5 78q-39 0 -82 -19q-125 -54 -125 -215
q0 -109 57 -239q54 -118 133 -195.5t169 -77.5q35 0 81 19z" />
    <glyph glyph-name="otilde" unicode="&#xf5;" horiz-adv-x="1175" 
d="M696 1374q21 -32 35 -44.5t31 -12.5q37 0 37 47t-31 86q20 24 52 43.5t63 19.5t66.5 -49.5t35.5 -107.5q0 -96 -59.5 -155.5t-141.5 -59.5q-34 0 -63.5 7.5t-48.5 16t-39.5 27t-28.5 28t-25 32t-20 26.5q-21 32 -34.5 44.5t-30.5 12.5q-37 0 -37 -47q0 -48 30 -86
q-21 -24 -52 -43.5t-62 -19.5q-30 0 -66.5 49.5t-36.5 105.5q0 97 59.5 157t141.5 60q25 0 48 -4.5t40 -10t34.5 -16.5t28 -18.5t24 -23t19 -22t17 -23t14.5 -19.5zM369 1006q99 45 206 45q154 0 288.5 -88t201.5 -238q49 -107 49 -223q0 -155 -82 -286.5t-225 -195.5
q-99 -45 -207 -45q-156 0 -290 88t-201 238q-48 111 -48 223q0 155 82 287t226 195zM430 868q-125 -57 -125 -217q0 -110 57 -237q54 -119 133 -197t169 -78q35 0 81 19q123 57 123 217q0 110 -57 237q-51 118 -130.5 196.5t-168.5 78.5q-39 0 -82 -19z" />
    <glyph glyph-name="odieresis" unicode="&#xf6;" horiz-adv-x="1175" 
d="M352 1516q51 0 103 -52q51 -51 51 -102q0 -54 -51 -102q-52 -52 -103 -52q-52 0 -104 52q-51 51 -51 102q0 48 51 102q52 52 104 52zM827 1516q54 0 103 -52q51 -51 51 -102q0 -54 -51 -102q-49 -52 -103 -52q-50 0 -102 52q-51 48 -51 102q0 51 51 102q52 52 102 52z
M369 1006q101 43 206 43q155 0 289.5 -87t200.5 -237q49 -110 49 -223q0 -156 -82 -287t-225 -195q-99 -45 -207 -45q-156 0 -290 87t-201 237q-48 115 -48 225q0 155 82 287t226 195zM430 866q-125 -54 -125 -215q0 -109 57 -239q54 -118 133 -195.5t169 -77.5q35 0 81 19
q123 55 123 215q0 112 -57 239q-51 117 -130.5 195t-168.5 78q-39 0 -82 -19z" />
    <glyph glyph-name="divide" unicode="&#xf7;" 
d="M565 1161q36 39 78 39q44 0 80 -39l80 -80q39 -39 39 -80q0 -40 -39 -79l-80 -80q-36 -39 -80 -39q-42 0 -78 39l-82 80q-39 42 -39 79q0 38 39 80zM37 668q0 13 8.5 21.5t22.5 8.5h1085q31 0 31 -30v-179q0 -30 -31 -30h-1085q-31 0 -31 30v179zM565 322q36 36 78 36
q44 0 80 -39l80 -79q39 -36 39 -80q0 -41 -39 -80l-80 -80q-37 -37 -80 -37q-41 0 -78 37l-82 80q-39 42 -39 80q0 41 39 80z" />
    <glyph glyph-name="oslash" unicode="&#xf8;" horiz-adv-x="1175" 
d="M844 975q151 -89 221 -250q49 -110 49 -223q0 -156 -82 -287t-225 -195q-99 -45 -207 -45q-51 0 -111 13l-133 -373q-11 -25 -37 -25h-165q-37 0 -25 35l162 451q-118 85 -182 223q-48 115 -48 225q0 155 82 287t226 195q101 43 206 43q39 0 64 -5l145 402q9 27 35 27
h166q17 0 24 -10t1 -27zM578 874q-42 11 -66 11q-39 0 -82 -19q-125 -54 -125 -215q0 -109 57 -239l29 -56zM555 170q60 -31 109 -31q35 0 81 19q123 55 123 215q0 112 -57 239q-20 45 -57 107z" />
    <glyph glyph-name="ugrave" unicode="&#xf9;" horiz-adv-x="1349" 
d="M762 1147q-16 -8 -35 -2q-50 18 -103 47.5t-105.5 71.5t-86 98t-33.5 115q0 51 40 77.5t102 26.5q27 0 41 -2q27 -3 34 -27q39 -101 81.5 -173t138.5 -195zM1184 414q0 -50 3.5 -83t14.5 -70t37 -58t66 -25q25 -3 22 -26v-68q0 -29 -29 -29q-94 0 -169 -12.5t-111 -25.5
t-96 -40q-8 -4 -17 -4h-6q-2 0 -2 7l33 258q-23 -47 -56.5 -90.5t-79 -84.5t-107 -65.5t-128.5 -24.5q-85 0 -148.5 23t-101 59t-60 90t-30.5 106.5t-8 117.5v338q0 86 -39.5 140t-112.5 54h-8q-31 0 -31 31v61q0 31 31 31h416q31 0 31 -31v-596v-17v-47t3 -44t8 -43.5
t16 -35.5t26 -30.5t39 -18t55 -7.5q74 0 148.5 53.5t101.5 120.5v379q0 86 -39.5 140t-110.5 54h-4q-30 0 -30 31v61q0 31 30 31h412q31 0 31 -31v-579z" />
    <glyph glyph-name="uacute" unicode="&#xfa;" horiz-adv-x="1349" 
d="M530 1184q96 121 138 193t82 175q10 24 36 27q12 2 39 2q63 0 103.5 -26.5t40.5 -77.5q0 -59 -33.5 -115t-86 -98t-106 -71.5t-104.5 -47.5q-4 -2 -14 -2q-7 0 -19 4zM1184 414q0 -50 3.5 -83t14.5 -70t37 -58t66 -25q25 -3 22 -26v-68q0 -29 -29 -29q-94 0 -169 -12.5
t-111 -25.5t-96 -40q-8 -4 -17 -4h-6q-2 0 -2 7l33 258q-23 -47 -56.5 -90.5t-79 -84.5t-107 -65.5t-128.5 -24.5q-85 0 -148.5 23t-101 59t-60 90t-30.5 106.5t-8 117.5v338q0 86 -39.5 140t-112.5 54h-8q-31 0 -31 31v61q0 31 31 31h416q31 0 31 -31v-596v-17v-47t3 -44
t8 -43.5t16 -35.5t26 -30.5t39 -18t55 -7.5q74 0 148.5 53.5t101.5 120.5v379q0 86 -39.5 140t-110.5 54h-4q-30 0 -30 31v61q0 31 30 31h412q31 0 31 -31v-579z" />
    <glyph glyph-name="ucircumflex" unicode="&#xfb;" horiz-adv-x="1349" 
d="M391 1137q-51 0 -77.5 40t-26.5 103q0 6 1 19.5t1 19.5q6 28 26 37q106 40 178.5 82t192.5 137q120 -95 192 -137t177 -82q23 -10 26 -37q2 -12 2 -39q0 -63 -26.5 -103t-77.5 -40q-90 0 -165.5 70t-127.5 171q-51 -100 -128 -170.5t-167 -70.5zM1184 414q0 -50 3.5 -83
t14.5 -70t37 -58t66 -25q25 -3 22 -26v-68q0 -29 -29 -29q-94 0 -169 -12.5t-111 -25.5t-96 -40q-8 -4 -17 -4h-6q-2 0 -2 7l33 258q-23 -47 -56.5 -90.5t-79 -84.5t-107 -65.5t-128.5 -24.5q-85 0 -148.5 23t-101 59t-60 90t-30.5 106.5t-8 117.5v338q0 86 -39.5 140
t-112.5 54h-8q-31 0 -31 31v61q0 31 31 31h416q31 0 31 -31v-596v-17v-47t3 -44t8 -43.5t16 -35.5t26 -30.5t39 -18t55 -7.5q74 0 148.5 53.5t101.5 120.5v379q0 86 -39.5 140t-110.5 54h-4q-30 0 -30 31v61q0 31 30 31h412q31 0 31 -31v-579z" />
    <glyph glyph-name="udieresis" unicode="&#xfc;" horiz-adv-x="1349" 
d="M451 1208q-54 0 -103 52q-51 48 -51 102q0 51 51 102q49 52 103 52q50 0 102 -52q51 -51 51 -102q0 -54 -51 -102q-52 -52 -102 -52zM928 1208q-53 0 -105 52q-51 51 -51 102q0 48 51 102q52 52 105 52q50 0 102 -52q51 -54 51 -102q0 -51 -51 -102q-52 -52 -102 -52z
M1184 414q0 -50 3.5 -83t14.5 -70t37 -58t66 -25q25 -3 22 -26v-68q0 -29 -29 -29q-94 0 -169 -12.5t-111 -25.5t-96 -40q-8 -4 -17 -4h-6q-2 0 -2 7l33 258q-23 -47 -56.5 -90.5t-79 -84.5t-107 -65.5t-128.5 -24.5q-85 0 -148.5 23t-101 59t-60 90t-30.5 106.5t-8 117.5
v338q0 86 -39.5 140t-112.5 54h-8q-31 0 -31 31v61q0 31 31 31h416q31 0 31 -31v-596v-17v-47t3 -44t8 -43.5t16 -35.5t26 -30.5t39 -18t55 -7.5q74 0 148.5 53.5t101.5 120.5v379q0 86 -39.5 140t-110.5 54h-4q-30 0 -30 31v61q0 31 30 31h412q31 0 31 -31v-579z" />
    <glyph glyph-name="yacute" unicode="&#xfd;" horiz-adv-x="1183" 
d="M449 1184q95 120 137 192t82 176q10 24 37 27q14 2 38 2q63 0 103.5 -26.5t40.5 -77.5q0 -59 -33.5 -115t-86 -98t-106 -71.5t-104.5 -47.5q-4 -2 -14 -2q-7 0 -19 4zM1141 1024q30 0 30 -31v-61q0 -31 -30 -31h-29q-33 0 -59 -26.5t-60 -100.5l-594 -1196
q-13 -26 -41 -14l-104 53q-29 13 -16 41l229 492l-301 622q-37 79 -59 104t-60 25h-4q-31 0 -31 31v61q0 31 31 31h473q31 0 31 -31v-61q0 -31 -31 -31h-4q-66 0 -66 -53q0 -37 48 -139l137 -299l147 303q51 100 51 145q0 43 -47 43h-37q-30 0 -30 31v61q0 31 30 31h396z
" />
    <glyph glyph-name="thorn" unicode="&#xfe;" horiz-adv-x="1292" 
d="M465 864q9 21 21 41.5t38.5 48.5t59 48.5t83.5 35.5t111 15q58 0 118 -17.5t121 -59t108 -102t76.5 -154.5t29.5 -208q0 -110 -26 -201t-70.5 -152.5t-105.5 -103.5t-130 -61t-145 -19q-156 0 -267 97v-164q0 -87 39 -141t111 -54q31 0 31 -30v-62q0 -31 -31 -31h-586
q-31 0 -31 31v62q0 30 33 30q72 0 110 54t38 141v1196q0 40 -1.5 66.5t-8 60t-19 53.5t-36 36t-56.5 19q-26 3 -23 27v70q0 26 29 26q95 0 171 13.5t109.5 26t96.5 40.5q8 4 16 4h6q2 0 2 -6v-475zM487 365q11 -105 72 -180.5t158 -75.5q71 0 122 28t78.5 77.5t39.5 106.5
t12 125q0 195 -79 310.5t-206 115.5q-43 0 -78.5 -14t-56.5 -34t-36 -39.5t-21 -33.5l-5 -14v-372z" />
    <glyph glyph-name="ydieresis" unicode="&#xff;" horiz-adv-x="1183" 
d="M369 1208q-51 0 -103 52q-51 48 -51 102q0 51 51 102q52 52 103 52q50 0 102 -52q51 -51 51 -102q0 -54 -51 -102q-52 -52 -102 -52zM846 1208q-53 0 -105 52q-51 51 -51 102q0 48 51 102q52 52 105 52q50 0 102 -52q51 -51 51 -102q0 -54 -51 -102q-52 -52 -102 -52z
M1141 1024q30 0 30 -31v-61q0 -31 -30 -31h-29q-33 0 -59 -26.5t-60 -100.5l-594 -1196q-13 -26 -41 -14l-104 53q-29 13 -16 41l229 492l-301 622q-37 79 -59 104t-60 25h-4q-31 0 -31 31v61q0 31 31 31h473q31 0 31 -31v-61q0 -31 -31 -31h-4q-66 0 -66 -53q0 -37 48 -139
l137 -299l147 303q51 100 51 145q0 43 -47 43h-37q-30 0 -30 31v61q0 31 30 31h396z" />
    <glyph glyph-name="Amacron" unicode="&#x100;" horiz-adv-x="1609" 
d="M532 1759q-30 0 -30 31v123q0 31 30 31h549q31 0 31 -31v-123q0 -31 -31 -31h-549zM1415 317q4 -10 13 -33.5t13 -33.5t12.5 -29t14 -28t14 -23t17 -20.5t19 -13.5t23 -10t26.5 -3q30 0 30 -31v-61q0 -31 -30 -31h-629q-31 0 -31 31v61q0 31 31 31q65 0 112.5 40.5
t47.5 100.5q0 20 -11 53l-63 175h-561l-62 -175q-8 -24 -8 -51q0 -61 47.5 -102t112.5 -41q31 0 31 -31v-61q0 -31 -31 -31h-510q-31 0 -31 31v61q0 31 31 31q15 0 27.5 2.5t23.5 10t19.5 14t17.5 20t14.5 22.5t13.5 28t12 29t13 34t13 34l440 1192q9 27 35 27h248
q25 0 34 -25zM526 670h432l-221 598z" />
    <glyph glyph-name="amacron" unicode="&#x101;" horiz-adv-x="1267" 
d="M301 1249q-31 0 -31 31v123q0 31 31 31h549q31 0 31 -31v-123q0 -31 -31 -31h-549zM1092 379q1 -41 6 -71.5t17 -60t36.5 -47.5t60.5 -22q25 -2 25 -26v-68q0 -29 -31 -29q-94 0 -169 -12.5t-111.5 -25.5t-96.5 -40q-8 -4 -18 -4h-4q-2 0 -2 7l22 182q-9 -21 -21 -41.5
t-38 -48.5t-58.5 -48.5t-83.5 -35.5t-110 -15t-119 17.5t-121 59t-108.5 102t-77 154.5t-29.5 208q0 110 26 201t71 152.5t107 103.5t131 61t145 19q196 0 331 -119q24 10 44.5 19t39 19.5t30.5 16.5t28 17t21 14.5t22 15.5t18 13q4 4 8 4h7q2 0 2 -4v-668zM805 700
q-6 36 -19.5 69t-38.5 67.5t-68.5 55.5t-100.5 21q-72 0 -123 -27.5t-78 -76t-39 -105t-12 -124.5q0 -195 77.5 -310.5t204.5 -115.5q43 0 78.5 14t56.5 33.5t36 39.5t21 34l5 14v411z" />
    <glyph glyph-name="Abreve" unicode="&#x102;" horiz-adv-x="1609" 
d="M1110 2013q18 -2 27 -12t6 -27q-15 -114 -113 -194t-225 -80t-225 80t-113 194v6q0 14 9 23t24 10l118 17h9q29 0 32 -31q24 -133 146 -133t143 133q6 34 43 31zM1415 317q4 -10 13 -33.5t13 -33.5t12.5 -29t14 -28t14 -23t17 -20.5t19 -13.5t23 -10t26.5 -3q30 0 30 -31
v-61q0 -31 -30 -31h-629q-31 0 -31 31v61q0 31 31 31q65 0 112.5 40.5t47.5 100.5q0 20 -11 53l-63 175h-561l-62 -175q-8 -24 -8 -51q0 -61 47.5 -102t112.5 -41q31 0 31 -31v-61q0 -31 -31 -31h-510q-31 0 -31 31v61q0 31 31 31q15 0 27.5 2.5t23.5 10t19.5 14t17.5 20
t14.5 22.5t13.5 28t12 29t13 34t13 34l440 1192q9 27 35 27h248q25 0 34 -25zM526 670h432l-221 598z" />
    <glyph glyph-name="abreve" unicode="&#x103;" horiz-adv-x="1267" 
d="M879 1505q38 -7 32 -41q-15 -114 -113 -194t-225 -80t-224.5 80t-112.5 194v6q0 29 32 35l119 15h8q29 0 35 -31q21 -133 143 -133t146 133q6 37 41 31zM1092 379q1 -41 6 -71.5t17 -60t36.5 -47.5t60.5 -22q25 -2 25 -26v-68q0 -29 -31 -29q-94 0 -169 -12.5
t-111.5 -25.5t-96.5 -40q-8 -4 -18 -4h-4q-2 0 -2 7l22 182q-9 -21 -21 -41.5t-38 -48.5t-58.5 -48.5t-83.5 -35.5t-110 -15t-119 17.5t-121 59t-108.5 102t-77 154.5t-29.5 208q0 110 26 201t71 152.5t107 103.5t131 61t145 19q196 0 331 -119q24 10 44.5 19t39 19.5
t30.5 16.5t28 17t21 14.5t22 15.5t18 13q4 4 8 4h7q2 0 2 -4v-668zM805 700q-6 36 -19.5 69t-38.5 67.5t-68.5 55.5t-100.5 21q-72 0 -123 -27.5t-78 -76t-39 -105t-12 -124.5q0 -195 77.5 -310.5t204.5 -115.5q43 0 78.5 14t56.5 33.5t36 39.5t21 34l5 14v411z" />
    <glyph glyph-name="Aogonek" unicode="&#x104;" horiz-adv-x="1609" 
d="M1597 31q0 -28 -24 -31h-4q-83 -13 -141 -65.5t-58 -127.5q0 -74 43.5 -120.5t118.5 -46.5q45 0 110 26.5t70 26.5q19 0 19 -25l4 -82q0 -19 -19 -32q-112 -72 -225 -72q-80 0 -144.5 29.5t-102 75.5t-57.5 97.5t-20 100.5q0 127 99 215h-328q-31 0 -31 31v61q0 31 31 31
q65 0 112.5 40.5t47.5 100.5q0 20 -11 53l-63 175h-561l-62 -175q-8 -24 -8 -51q0 -61 47.5 -102t112.5 -41q31 0 31 -31v-61q0 -31 -31 -31h-510q-31 0 -31 31v61q0 31 31 31q15 0 27.5 2.5t23.5 10t19.5 14t17.5 20t14.5 22.5t13.5 28t12 29t13 34t13 34l440 1192
q9 27 35 27h248q25 0 34 -25l461 -1194q4 -10 13 -33.5t13 -33.5t12.5 -29t14 -28t14 -23t17 -20.5t19 -13.5t23 -10t26.5 -3q30 0 30 -31v-61zM526 670h432l-221 598z" />
    <glyph glyph-name="aogonek" unicode="&#x105;" horiz-adv-x="1267" 
d="M1237 84q0 -29 -31 -29q-61 0 -90 -2h-2q-82 -13 -140.5 -65t-58.5 -127q0 -74 44 -121t120 -47q44 0 109.5 26.5t68.5 26.5q18 0 21 -25l2 -81q0 -23 -18 -33q-112 -72 -226 -72q-80 0 -144 29.5t-101.5 75.5t-57.5 97.5t-20 100.5q0 129 102 217l12 107
q-9 -21 -21 -41.5t-38 -48.5t-58.5 -48.5t-83.5 -35.5t-110 -15t-119 17.5t-121 59t-108.5 102t-77 154.5t-29.5 208q0 110 26 201t71 152.5t107 103.5t131 61t145 19q196 0 331 -119q24 10 44.5 19t39 19.5t30.5 16.5t28 17t21 14.5t22 15.5t18 13q4 4 8 4h7q2 0 2 -4v-668
q1 -41 6 -71.5t17 -60t36.5 -47.5t60.5 -22q25 -2 25 -26v-68zM805 700q-6 36 -19.5 69t-38.5 67.5t-68.5 55.5t-100.5 21q-72 0 -123 -27.5t-78 -76t-39 -105t-12 -124.5q0 -195 77.5 -310.5t204.5 -115.5q43 0 78.5 14t56.5 33.5t36 39.5t21 34l5 14v411z" />
    <glyph glyph-name="Cacute" unicode="&#x106;" horiz-adv-x="1531" 
d="M633 1696q95 122 137.5 194t81.5 174q7 24 35 27q14 2 39 2q64 0 103.5 -26t39.5 -78q0 -59 -33.5 -115t-86 -98t-106 -71.5t-104.5 -47.5q-4 -2 -14 -2q-6 0 -18 4zM1495 492q2 -1 5.5 -3t5 -3l4.5 -3l4.5 -3t3.5 -3t2.5 -4t1.5 -4.5t1 -5.5t-1 -6.5t-2 -7.5
q-28 -69 -66.5 -131t-99.5 -125.5t-133 -109t-172.5 -74.5t-214.5 -29q-181 0 -326 58.5t-240 162.5t-145.5 244.5t-50.5 306.5q0 77 10.5 152.5t36 156.5t64.5 152.5t99.5 135.5t136.5 110t180.5 73t227.5 27q105 0 203.5 -25.5t185.5 -75.5t149.5 -134.5t86.5 -193.5
l2 -12q0 -32 -35 -41l-262 -92q-20 -4 -27 -4q-12 0 -18.5 5.5t-5.5 14.5l4 31l2 37q0 59 -15 113.5t-47.5 105t-94 81t-144.5 30.5q-71 0 -130.5 -25t-101 -68.5t-72.5 -98.5t-49.5 -119t-27 -125t-8.5 -121q0 -203 46.5 -350.5t147.5 -233.5t250 -86q87 0 161.5 21.5
t125 53.5t93.5 79t68 88.5t48 91.5q12 26 35 26q13 0 26 -8z" />
    <glyph glyph-name="cacute" unicode="&#x107;" horiz-adv-x="1052" 
d="M377 1184q95 122 137.5 194t81.5 174q7 24 35 27q14 2 39 2q64 0 103.5 -26t39.5 -78q0 -59 -33.5 -115t-86 -98t-106 -71.5t-104.5 -47.5q-4 -2 -14 -2q-6 0 -18 4zM967 276q23 -18 12 -43q-103 -221 -373 -249q-18 -2 -55 -2q-112 0 -209 49.5t-160.5 130t-95.5 185.5
t-23 214q8 99 42.5 181t85.5 138t116 95t133.5 56.5t139.5 17.5l38 -2q90 -6 159 -32.5t111 -67t66 -85t35 -96.5l2 -8q0 -23 -24 -29l-236 -61q-12 -4 -16 -4q-9 0 -14 4t-3 10l2 22q6 89 -36 137t-132 48q-91 0 -142.5 -72.5t-61.5 -185.5q-2 -27 -2 -78q0 -63 9 -119
t29.5 -107t52 -87.5t79.5 -58t108 -21.5q6 0 19 1t20 1q62 6 123.5 43.5t103.5 103.5q11 14 25 14q9 0 18 -6z" />
    <glyph glyph-name="Cdotaccent" unicode="&#x10a;" horiz-adv-x="1531" 
d="M786 2028q51 0 103 -52q51 -51 51 -102q0 -54 -51 -102q-52 -52 -103 -52q-50 0 -102 52q-51 48 -51 102q0 51 51 102q52 52 102 52zM1495 492q2 -1 5.5 -3t5 -3l4.5 -3l4.5 -3t3.5 -3t2.5 -4t1.5 -4.5t1 -5.5t-1 -6.5t-2 -7.5q-28 -69 -66.5 -131t-99.5 -125.5
t-133 -109t-172.5 -74.5t-214.5 -29q-181 0 -326 58.5t-240 162.5t-145.5 244.5t-50.5 306.5q0 77 10.5 152.5t36 156.5t64.5 152.5t99.5 135.5t136.5 110t180.5 73t227.5 27q105 0 203.5 -25.5t185.5 -75.5t149.5 -134.5t86.5 -193.5l2 -12q0 -32 -35 -41l-262 -92
q-20 -4 -27 -4q-12 0 -18.5 5.5t-5.5 14.5l4 31l2 37q0 59 -15 113.5t-47.5 105t-94 81t-144.5 30.5q-71 0 -130.5 -25t-101 -68.5t-72.5 -98.5t-49.5 -119t-27 -125t-8.5 -121q0 -203 46.5 -350.5t147.5 -233.5t250 -86q87 0 161.5 21.5t125 53.5t93.5 79t68 88.5t48 91.5
q12 26 35 26q13 0 26 -8z" />
    <glyph glyph-name="cdotaccent" unicode="&#x10b;" horiz-adv-x="1052" 
d="M530 1516q51 0 103 -52q51 -51 51 -102q0 -54 -51 -102q-52 -52 -103 -52q-50 0 -102 52q-51 48 -51 102q0 51 51 102q52 52 102 52zM967 276q23 -18 12 -43q-103 -221 -373 -249q-18 -2 -55 -2q-112 0 -209 49.5t-160.5 130t-95.5 185.5t-23 214q8 99 42.5 181t85.5 138
t116 95t133.5 56.5t139.5 17.5l38 -2q90 -6 159 -32.5t111 -67t66 -85t35 -96.5l2 -8q0 -23 -24 -29l-236 -61q-12 -4 -16 -4q-9 0 -14 4t-3 10l2 22q6 89 -36 137t-132 48q-91 0 -142.5 -72.5t-61.5 -185.5q-2 -27 -2 -78q0 -63 9 -119t29.5 -107t52 -87.5t79.5 -58
t108 -21.5q6 0 19 1t20 1q62 6 123.5 43.5t103.5 103.5q11 14 25 14q9 0 18 -6z" />
    <glyph glyph-name="Ccaron" unicode="&#x10c;" horiz-adv-x="1531" 
d="M416 1868q-22 11 -25 37q-4 24 -4 39q0 62 27 102.5t78 40.5q90 0 166 -70.5t128 -171.5q52 101 128.5 171.5t166.5 70.5q51 0 78 -40.5t27 -102.5q0 -15 -4 -39q-3 -26 -25 -37q-106 -40 -178.5 -82t-192.5 -137q-121 95 -193 137t-177 82zM1495 492q2 -1 5.5 -3t5 -3
l4.5 -3l4.5 -3t3.5 -3t2.5 -4t1.5 -4.5t1 -5.5t-1 -6.5t-2 -7.5q-28 -69 -66.5 -131t-99.5 -125.5t-133 -109t-172.5 -74.5t-214.5 -29q-181 0 -326 58.5t-240 162.5t-145.5 244.5t-50.5 306.5q0 77 10.5 152.5t36 156.5t64.5 152.5t99.5 135.5t136.5 110t180.5 73t227.5 27
q105 0 203.5 -25.5t185.5 -75.5t149.5 -134.5t86.5 -193.5l2 -12q0 -32 -35 -41l-262 -92q-20 -4 -27 -4q-12 0 -18.5 5.5t-5.5 14.5l4 31l2 37q0 59 -15 113.5t-47.5 105t-94 81t-144.5 30.5q-71 0 -130.5 -25t-101 -68.5t-72.5 -98.5t-49.5 -119t-27 -125t-8.5 -121
q0 -203 46.5 -350.5t147.5 -233.5t250 -86q87 0 161.5 21.5t125 53.5t93.5 79t68 88.5t48 91.5q12 26 35 26q13 0 26 -8z" />
    <glyph glyph-name="ccaron" unicode="&#x10d;" horiz-adv-x="1052" 
d="M160 1356q-22 11 -25 37q-4 24 -4 39q0 62 27 102.5t78 40.5q90 0 166 -70.5t128 -171.5q52 101 128.5 171.5t166.5 70.5q51 0 78 -40.5t27 -102.5q0 -15 -4 -39q-3 -26 -25 -37q-106 -40 -178.5 -82t-192.5 -137q-121 95 -193 137t-177 82zM731 668q-12 -4 -16 -4
q-9 0 -14 4t-3 10l2 22q6 89 -36 137t-132 48q-91 0 -142.5 -72.5t-61.5 -185.5q-2 -27 -2 -78q0 -63 9 -119t29.5 -107t52 -87.5t79.5 -58t108 -21.5q6 0 19 1t20 1q62 6 123.5 43.5t103.5 103.5q11 14 25 14q9 0 18 -6l54 -37q23 -18 12 -43q-103 -221 -373 -249
q-18 -2 -55 -2q-112 0 -209 49.5t-160.5 130t-95.5 185.5t-23 214q8 99 42.5 181t85.5 138t116 95t133.5 56.5t139.5 17.5l38 -2q90 -6 159 -32.5t111 -67t66 -85t35 -96.5l2 -8q0 -23 -24 -29z" />
    <glyph glyph-name="Dcaron" unicode="&#x10e;" horiz-adv-x="1617" 
d="M285 1868q-22 11 -25 37q-4 24 -4 39q0 63 26.5 103t77.5 40q91 0 167 -70.5t128 -171.5q52 101 128.5 171.5t166.5 70.5q51 0 78 -40.5t27 -102.5q0 -15 -4 -39q-3 -27 -25 -37q-106 -40 -178.5 -82t-192.5 -137q-121 95 -193 137t-177 82zM723 1536q177 0 327.5 -52
t260.5 -148.5t172.5 -242t62.5 -323.5q0 -131 -27.5 -244.5t-87.5 -211t-149 -167t-217 -108.5t-285 -39h-688q-31 0 -31 31v61q0 31 31 31h14q138 8 138 194v902q0 194 -150 194h-2q-31 0 -31 31v61q0 31 31 31h631zM569 328q0 -41 1.5 -64t9.5 -51.5t24 -43.5t45 -25.5
t72 -10.5q147 0 248 42t159 127t82.5 198t24.5 270q0 306 -148 474.5t-421 168.5h-97v-1085z" />
    <glyph glyph-name="dcaron" unicode="&#x10f;" horiz-adv-x="1492" 
d="M1511 1577q43 -43 43 -113q0 -26 -6 -61q-16 -74 -91.5 -167.5t-149.5 -153.5t-99 -60q-14 0 -82 31q73 56 118.5 122.5t45.5 114.5q0 29 -18 47l-80 80q-39 39 -39 80t39 80l80 80q39 39 80 39t80 -39zM1092 379q1 -41 6 -71.5t17 -60t36.5 -47.5t60.5 -22q25 -2 25 -26
v-70q0 -27 -31 -27q-94 0 -169 -12.5t-111.5 -25.5t-96.5 -40q-8 -4 -16 -4h-6q-2 0 -2 7l22 182q-9 -21 -21 -41.5t-38 -48.5t-58.5 -48.5t-83.5 -35.5t-110 -15t-119 17.5t-121 59t-108.5 102t-77 154.5t-29.5 208q0 110 26 201t71 152.5t107 103.5t131 61t145 19
q153 0 264 -97v131q0 40 -1.5 67t-8.5 60t-19.5 53.5t-35.5 36.5t-56 19q-25 3 -25 27v69q0 17 31 27q236 79 385 190q4 4 8 4h7q2 0 2 -4v-1255zM805 662q-11 102 -70.5 167.5t-156.5 65.5q-252 0 -252 -315q0 -195 77.5 -310.5t204.5 -115.5q43 0 78.5 18t56.5 43.5t36 51
t21 43.5l5 18v334z" />
    <glyph glyph-name="Dcroat" unicode="&#x110;" horiz-adv-x="1617" 
d="M723 1536q177 0 327.5 -52t260.5 -148.5t172.5 -242t62.5 -323.5q0 -131 -27.5 -244.5t-87.5 -211t-149 -167t-217 -108.5t-285 -39h-688q-31 0 -31 31v61q0 31 31 31h14q138 8 138 194v304h-152q-31 0 -31 30v178q0 31 31 31h152v359q0 194 -150 194h-2q-31 0 -31 31v61
q0 31 31 31h631zM569 328q0 -41 1.5 -64t9.5 -51.5t24 -43.5t45 -25.5t72 -10.5q147 0 248 42t159 127t82.5 198t24.5 270q0 306 -148 474.5t-421 168.5h-97v-553h435q30 0 30 -31v-178q0 -30 -30 -30h-435v-293z" />
    <glyph glyph-name="dcroat" unicode="&#x111;" horiz-adv-x="1257" 
d="M1092 379q1 -41 6 -71.5t17 -60t36.5 -47.5t60.5 -22q25 -2 25 -26v-68q0 -29 -31 -29q-94 0 -169 -12.5t-111.5 -25.5t-96.5 -40q-8 -4 -16 -4h-6q-2 0 -2 7l22 182q-9 -21 -21 -41.5t-38 -48.5t-58.5 -48.5t-83.5 -35.5t-110 -15t-119 17.5t-121 59t-108.5 102
t-77 154.5t-29.5 208q0 110 26 201t71 152.5t107 103.5t131 61t145 19q153 0 264 -97v121h-131q-31 0 -31 31v82q0 31 31 31h121q-24 94 -111 102q-25 3 -25 27v69q0 17 31 27q236 79 385 190q4 4 8 4h7q2 0 2 -4v-415h94q31 0 31 -31v-82q0 -31 -31 -31h-94v-696zM805 664
q-11 100 -70.5 165.5t-156.5 65.5q-252 0 -252 -315q0 -195 77.5 -310.5t204.5 -115.5q43 0 78.5 18t56.5 43.5t36 51t21 43.5l5 18v336z" />
    <glyph glyph-name="Emacron" unicode="&#x112;" horiz-adv-x="1546" 
d="M514 1761q-31 0 -31 31v123q0 31 31 31h547q31 0 31 -31v-123q0 -31 -31 -31h-547zM1487 438q18 -9 18 -26q0 -8 -6 -17l-192 -405q-6 -19 -25 -19q-9 0 -18 9l-11 10q-12 10 -41 10h-1120q-31 0 -31 31v61q0 31 31 31h2q150 0 150 194v900q0 194 -150 194h-2
q-31 0 -31 31v61q0 33 31 33h1026q27 0 39 10l12 10q7 7 17 7q16 0 26 -17l162 -278q6 -9 6 -19q0 -14 -16 -24l-86 -47q-10 -7 -18 -7q-16 0 -25 19l-6 10q-60 103 -133 147t-195 44h-344v-482h193q186 0 194 138v14q0 31 31 31h61q31 0 31 -31v-465q0 -31 -31 -31h-61
q-31 0 -31 31v12q-8 137 -194 137h-181v-405q0 -190 142 -195h133q47 0 79 1.5t75.5 8.5t76 19t73 34.5t75 55t73.5 80.5t76 109l6 12q13 16 27 16q4 0 16 -4z" />
    <glyph glyph-name="emacron" unicode="&#x113;" horiz-adv-x="1054" 
d="M854 1280q0 -31 -31 -31h-549q-30 0 -30 31v123q0 31 30 31h549q31 0 31 -31v-123zM358 367q39 -95 118 -158.5t190 -63.5q70 0 140 38.5t122 113.5q5 8 16 8q16 0 82 -39q8 -5 8 -16q0 -15 -12 -35q-131 -240 -412 -240q-124 0 -228.5 43.5t-174 118.5t-108 174.5
t-38.5 210.5q0 137 41.5 241t112.5 164.5t155 90t179 29.5q78 0 147.5 -26t118.5 -68.5t85 -95t53.5 -105.5t17.5 -101q0 -19 -19 -24zM664 659q0 98 -47.5 162t-118.5 64q-83 0 -133 -66t-50 -168q0 -99 19 -157z" />
    <glyph glyph-name="Edotaccent" unicode="&#x116;" horiz-adv-x="1546" 
d="M786 1720q-52 0 -104 52q-51 51 -51 102q0 48 51 102q52 52 104 52q51 0 103 -52q51 -54 51 -102q0 -51 -51 -102q-52 -52 -103 -52zM1487 438q18 -9 18 -26q0 -8 -6 -17l-192 -405q-6 -19 -25 -19q-9 0 -18 9l-11 10q-12 10 -41 10h-1120q-31 0 -31 31v61q0 31 31 31h2
q150 0 150 194v900q0 194 -150 194h-2q-31 0 -31 31v61q0 33 31 33h1026q27 0 39 10l12 10q7 7 17 7q16 0 26 -17l162 -278q6 -9 6 -19q0 -14 -16 -24l-86 -47q-10 -7 -18 -7q-16 0 -25 19l-6 10q-60 103 -133 147t-195 44h-344v-482h193q186 0 194 138v14q0 31 31 31h61
q31 0 31 -31v-465q0 -31 -31 -31h-61q-31 0 -31 31v12q-8 137 -194 137h-181v-405q0 -190 142 -195h133q47 0 79 1.5t75.5 8.5t76 19t73 34.5t75 55t73.5 80.5t76 109l6 12q13 16 27 16q4 0 16 -4z" />
    <glyph glyph-name="edotaccent" unicode="&#x117;" horiz-adv-x="1054" 
d="M547 1516q50 0 102 -52q51 -51 51 -102q0 -54 -51 -102q-52 -52 -102 -52q-51 0 -103 52q-51 48 -51 102q0 51 51 102q52 52 103 52zM358 367q39 -95 118 -158.5t190 -63.5q70 0 140 38.5t122 113.5q5 8 16 8q16 0 82 -39q8 -5 8 -16q0 -15 -12 -35q-131 -240 -412 -240
q-124 0 -228.5 43.5t-174 118.5t-108 174.5t-38.5 210.5q0 137 41.5 241t112.5 164.5t155 90t179 29.5q78 0 147.5 -26t118.5 -68.5t85 -95t53.5 -105.5t17.5 -101q0 -19 -19 -24zM664 659q0 98 -47.5 162t-118.5 64q-83 0 -133 -66t-50 -168q0 -99 19 -157z" />
    <glyph glyph-name="Eogonek" unicode="&#x118;" horiz-adv-x="1546" 
d="M1253 -10q-12 10 -39 10q-82 -14 -138 -66t-56 -127q0 -74 43.5 -120.5t118.5 -46.5q45 0 110 26.5t70 26.5q18 0 18 -25l4 -82q0 -22 -18 -32q-112 -72 -225 -72q-80 0 -144.5 29.5t-102 75.5t-57.5 97.5t-20 100.5q0 129 96 215h-821q-31 0 -31 31v61q0 31 31 31h2
q150 0 150 194v900q0 194 -150 194h-2q-31 0 -31 31v61q0 33 31 33h1026q27 0 39 10l12 10q7 7 17 7q16 0 26 -17l162 -278q6 -9 6 -19q0 -14 -16 -24l-86 -47q-10 -7 -18 -7q-16 0 -25 19l-6 10q-60 103 -133 147t-195 44h-344v-482h193q186 0 194 138v14q0 31 31 31h61
q31 0 31 -31v-465q0 -31 -31 -31h-61q-31 0 -31 31v12q-8 137 -194 137h-181v-405q0 -190 142 -195h133q47 0 79 1.5t75.5 8.5t76 19t73 34.5t75 55t73.5 80.5t76 109l6 12q13 16 27 16q4 0 16 -4l66 -39q18 -9 18 -24q0 -10 -6 -19l-192 -405q-6 -19 -25 -19q-9 0 -18 9z
" />
    <glyph glyph-name="eogonek" unicode="&#x119;" horiz-adv-x="1054" 
d="M358 367q39 -95 118 -158.5t190 -63.5q70 0 140 38.5t122 113.5q5 8 16 8q16 0 82 -39q8 -5 8 -16q0 -15 -12 -35q-52 -96 -125 -152q-2 -4 -10 -8q-63 -45 -154 -67q-57 -54 -57 -127q0 -74 44 -121t120 -47q44 0 109.5 26.5t68.5 26.5q17 0 20 -25l2 -81q0 -23 -18 -33
q-112 -72 -225 -72q-80 0 -144.5 29.5t-102 75.5t-57.5 97.5t-20 100.5q0 82 39 146q-207 32 -329 182.5t-122 355.5q0 137 41.5 241t112.5 164.5t155 90t179 29.5q78 0 147.5 -26t118.5 -68.5t85 -95t53.5 -105.5t17.5 -101q0 -19 -19 -24zM664 659q0 98 -47.5 162
t-118.5 64q-83 0 -133 -66t-50 -168q0 -99 19 -157z" />
    <glyph glyph-name="Ecaron" unicode="&#x11a;" horiz-adv-x="1546" 
d="M416 1868q-21 9 -27 37q-2 12 -2 39q0 62 27 102.5t78 40.5q90 0 166 -70.5t128 -171.5q50 100 126.5 171t166.5 71q51 0 78 -40.5t27 -102.5q0 -27 -2 -39q-3 -27 -27 -37q-105 -40 -177 -82t-192 -137q-119 94 -192 136.5t-178 82.5zM1487 438q18 -9 18 -26
q0 -8 -6 -17l-192 -405q-6 -19 -25 -19q-9 0 -18 9l-11 10q-12 10 -41 10h-1120q-31 0 -31 31v61q0 31 31 31h2q150 0 150 194v900q0 194 -150 194h-2q-31 0 -31 31v61q0 33 31 33h1026q27 0 39 10l12 10q7 7 17 7q16 0 26 -17l162 -278q6 -9 6 -19q0 -14 -16 -24l-86 -47
q-10 -7 -18 -7q-16 0 -25 19l-6 10q-60 103 -133 147t-195 44h-344v-482h193q186 0 194 138v14q0 31 31 31h61q31 0 31 -31v-465q0 -31 -31 -31h-61q-31 0 -31 31v12q-8 137 -194 137h-181v-405q0 -190 142 -195h133q47 0 79 1.5t75.5 8.5t76 19t73 34.5t75 55t73.5 80.5
t76 109l6 12q13 16 27 16q4 0 16 -4z" />
    <glyph glyph-name="ecaron" unicode="&#x11b;" horiz-adv-x="1054" 
d="M176 1356q-21 11 -24 37q-5 30 -5 39q0 62 27 102.5t78 40.5q90 0 166.5 -70.5t128.5 -171.5q52 101 128.5 171.5t166.5 70.5q51 0 77.5 -40t26.5 -103q0 -15 -4 -39q-3 -26 -24 -37q-106 -40 -178.5 -82t-192.5 -137q-120 95 -192.5 137t-178.5 82zM358 367
q39 -95 118 -158.5t190 -63.5q70 0 140 38.5t122 113.5q5 8 16 8q16 0 82 -39q8 -5 8 -16q0 -15 -12 -35q-131 -240 -412 -240q-124 0 -228.5 43.5t-174 118.5t-108 174.5t-38.5 210.5q0 137 41.5 241t112.5 164.5t155 90t179 29.5q78 0 147.5 -26t118.5 -68.5t85 -95
t53.5 -105.5t17.5 -101q0 -19 -19 -24zM664 659q0 98 -47.5 162t-118.5 64q-83 0 -133 -66t-50 -168q0 -99 19 -157z" />
    <glyph glyph-name="Gbreve" unicode="&#x11e;" horiz-adv-x="1581" 
d="M616 2032q30 0 33 -31q24 -133 146 -133q121 0 145 133q6 37 41 31l119 -15q39 -7 33 -41q-15 -114 -113 -194t-225 -80t-225 80t-113 194v6q0 29 32 35l119 15h8zM1509 762q31 0 31 -31v-61q0 -31 -31 -31h-16q-29 0 -41 -16t-12 -52v-221q-20 -55 -70 -121
q-200 -249 -557 -249q-165 0 -304.5 59t-235 162t-148.5 245t-53 306q0 76 10.5 152t36 156.5t64.5 152t99 136t136 110.5t180.5 73t226.5 27q105 0 203.5 -25.5t185.5 -75.5t150 -134.5t88 -193.5l2 -14q0 -30 -37 -39l-262 -92q-10 -4 -25 -4q-12 0 -18.5 5.5t-5.5 14.5
l4 31l2 37q0 59 -15 113.5t-47.5 105t-94.5 81t-146 30.5q-70 0 -129.5 -25t-100.5 -68.5t-72.5 -98.5t-49.5 -119t-26.5 -125t-8.5 -121q0 -123 27 -239t79.5 -214t139.5 -157.5t196 -59.5q42 0 81 6.5t74.5 20t57 39t21.5 59.5v106q0 42 -4.5 76t-15.5 58t-21 41t-29.5 28
t-32 17.5t-38.5 9.5t-38 4t-40 2h-15q-30 0 -30 31v61q0 31 30 31h645z" />
    <glyph glyph-name="gbreve" unicode="&#x11f;" horiz-adv-x="1069" 
d="M840 1505q38 -7 32 -41q-15 -114 -112.5 -194t-224.5 -80t-225 80t-113 194v6q0 29 32 35l119 15h8q30 0 33 -31q24 -133 146 -133q121 0 145 133q6 37 41 31zM1036 1087q27 0 27 -30q7 -97 -33.5 -153t-111.5 -58q49 -82 49 -189q0 -168 -123 -279.5t-328 -111.5
q-141 0 -248 58q-26 -20 -26 -52q0 -34 21.5 -53.5t87.5 -33t190 -19.5q81 -4 142.5 -12.5t127.5 -29t108 -52t69.5 -85t27.5 -124.5q0 -80 -44.5 -141t-119.5 -95t-162 -50.5t-184 -16.5q-129 0 -231.5 26t-168 83.5t-65.5 140.5q0 123 123 192q-105 66 -105 186
q0 67 34.5 117t92.5 74q-120 111 -120 278q2 167 123.5 279.5t326.5 112.5q165 0 283 -78l10 -4q12 -4 18 -4q40 0 37 53v6q0 26 23 31l141 32zM516 928q-56 0 -97 -25t-62.5 -66.5t-31.5 -86.5t-10 -93q0 -49 10 -93.5t31.5 -86t62.5 -66.5t97 -24q56 0 94.5 24.5t57.5 67
t26.5 85.5t7.5 93t-7.5 93.5t-26.5 86t-57.5 67t-94.5 24.5zM508 -299q150 0 231.5 28t81.5 76q0 32 -20.5 53.5t-66.5 34.5t-100.5 19t-139.5 10q-106 6 -191 25q-57 -39 -57 -109q0 -56 61 -96.5t201 -40.5z" />
    <glyph glyph-name="Gdotaccent" unicode="&#x120;" horiz-adv-x="1581" 
d="M795 2028q50 0 102 -52q51 -51 51 -102q0 -54 -51 -102q-52 -52 -102 -52q-51 0 -103 52q-51 48 -51 102q0 51 51 102q52 52 103 52zM1509 762q31 0 31 -31v-61q0 -31 -31 -31h-16q-29 0 -41 -16t-12 -52v-221q-20 -55 -70 -121q-200 -249 -557 -249q-165 0 -304.5 59
t-235 162t-148.5 245t-53 306q0 76 10.5 152t36 156.5t64.5 152t99 136t136 110.5t180.5 73t226.5 27q105 0 203.5 -25.5t185.5 -75.5t150 -134.5t88 -193.5l2 -14q0 -30 -37 -39l-262 -92q-10 -4 -25 -4q-12 0 -18.5 5.5t-5.5 14.5l4 31l2 37q0 59 -15 113.5t-47.5 105
t-94.5 81t-146 30.5q-70 0 -129.5 -25t-100.5 -68.5t-72.5 -98.5t-49.5 -119t-26.5 -125t-8.5 -121q0 -123 27 -239t79.5 -214t139.5 -157.5t196 -59.5q42 0 81 6.5t74.5 20t57 39t21.5 59.5v106q0 42 -4.5 76t-15.5 58t-21 41t-29.5 28t-32 17.5t-38.5 9.5t-38 4t-40 2h-15
q-30 0 -30 31v61q0 31 30 31h645z" />
    <glyph glyph-name="gdotaccent" unicode="&#x121;" horiz-adv-x="1069" 
d="M535 1208q-51 0 -103 52q-51 48 -51 102q0 51 51 102q52 52 103 52q50 0 102 -52q51 -51 51 -102q0 -54 -51 -102q-52 -52 -102 -52zM1036 1087q27 0 27 -30q7 -97 -33.5 -153t-111.5 -58q49 -82 49 -189q0 -168 -123 -279.5t-328 -111.5q-141 0 -248 58q-26 -20 -26 -52
q0 -34 21.5 -53.5t87.5 -33t190 -19.5q81 -4 142.5 -12.5t127.5 -29t108 -52t69.5 -85t27.5 -124.5q0 -80 -44.5 -141t-119.5 -95t-162 -50.5t-184 -16.5q-129 0 -231.5 26t-168 83.5t-65.5 140.5q0 123 123 192q-105 66 -105 186q0 67 34.5 117t92.5 74q-120 111 -120 278
q2 167 123.5 279.5t326.5 112.5q165 0 283 -78l10 -4q12 -4 18 -4q40 0 37 53v6q0 26 23 31l141 32zM516 928q-56 0 -97 -25t-62.5 -66.5t-31.5 -86.5t-10 -93q0 -49 10 -93.5t31.5 -86t62.5 -66.5t97 -24q56 0 94.5 24.5t57.5 67t26.5 85.5t7.5 93t-7.5 93.5t-26.5 86
t-57.5 67t-94.5 24.5zM508 -299q150 0 231.5 28t81.5 76q0 32 -20.5 53.5t-66.5 34.5t-100.5 19t-139.5 10q-106 6 -191 25q-57 -39 -57 -109q0 -56 61 -96.5t201 -40.5z" />
    <glyph glyph-name="uni0122" unicode="&#x122;" horiz-adv-x="1581" 
d="M1509 762q31 0 31 -31v-61q0 -31 -31 -31h-16q-29 0 -41 -16t-12 -52v-221q-20 -55 -70 -121q-200 -249 -557 -249q-165 0 -304.5 59t-235 162t-148.5 245t-53 306q0 76 10.5 152t36 156.5t64.5 152t99 136t136 110.5t180.5 73t226.5 27q105 0 203.5 -25.5t185.5 -75.5
t150 -134.5t88 -193.5l2 -14q0 -30 -37 -39l-262 -92q-10 -4 -25 -4q-12 0 -18.5 5.5t-5.5 14.5l4 31l2 37q0 59 -15 113.5t-47.5 105t-94.5 81t-146 30.5q-70 0 -129.5 -25t-100.5 -68.5t-72.5 -98.5t-49.5 -119t-26.5 -125t-8.5 -121q0 -123 27 -239t79.5 -214
t139.5 -157.5t196 -59.5q42 0 81 6.5t74.5 20t57 39t21.5 59.5v106q0 42 -4.5 76t-15.5 58t-21 41t-29.5 28t-32 17.5t-38.5 9.5t-38 4t-40 2h-15q-30 0 -30 31v61q0 31 30 31h645zM952 -195q43 -43 43 -114q0 -26 -6 -60q-16 -74 -91.5 -167.5t-149.5 -153.5t-99 -60
q-14 0 -82 31q72 56 117 123t45 115q0 31 -16 47l-80 80q-39 39 -39 80q0 40 39 79l80 80q36 39 80 39q37 0 79 -39z" />
    <glyph glyph-name="uni0123" unicode="&#x123;" horiz-adv-x="1069" 
d="M752 1702q43 -43 43 -113q0 -21 -7 -61q-16 -74 -91 -167.5t-149 -153.5t-99 -60q-14 0 -82 31q73 56 117 122.5t44 116.5q0 32 -16 45l-80 80q-39 39 -39 80q0 44 39 80l80 80q36 39 80 39q41 0 80 -39zM1036 1087q27 0 27 -30q7 -97 -33.5 -153t-111.5 -58
q49 -82 49 -189q0 -168 -123 -279.5t-328 -111.5q-141 0 -248 58q-26 -23 -26 -52q0 -34 21.5 -53.5t87.5 -33t190 -19.5q81 -4 142.5 -12.5t127.5 -29t108 -52t69.5 -85t27.5 -124.5q0 -80 -44.5 -141t-119.5 -95t-162 -50.5t-184 -16.5q-129 0 -231.5 26t-168 83.5
t-65.5 140.5q0 123 123 192q-105 66 -105 186q0 67 34.5 117t92.5 74q-120 111 -120 278q2 167 123.5 279.5t326.5 112.5q165 0 283 -78l10 -4q12 -4 18 -4q40 0 37 53v6q0 26 23 31l141 32zM516 928q-56 0 -97 -25t-62.5 -66.5t-31.5 -86.5t-10 -93t10 -93t31.5 -87
t62.5 -67t97 -25q56 1 94.5 26t57.5 67.5t26.5 85.5t7.5 93t-7.5 93.5t-26.5 86t-57.5 67t-94.5 24.5zM508 -299q150 0 231.5 28t81.5 76q0 32 -20.5 53.5t-66.5 34.5t-100.5 19t-139.5 10q-106 6 -191 25q-57 -39 -57 -109q0 -56 61 -96.5t201 -40.5z" />
    <glyph glyph-name="Hbar" unicode="&#x126;" horiz-adv-x="1880" 
d="M1776 1413q-140 -8 -140 -194v-31h138q30 0 30 -31v-102q0 -31 -30 -31h-138v-707q0 -186 140 -194h12q31 0 31 -31v-61q0 -31 -31 -31h-631q-31 0 -31 31v61q0 31 31 31h14q138 8 138 194v390h-699v-390q0 -186 138 -194h14q31 0 31 -31v-61q0 -31 -31 -31h-631
q-31 0 -31 31v61q0 31 31 31h12q140 8 140 194v707h-191q-31 0 -31 31v102q0 31 31 31h191v31q0 186 -140 194h-12q-31 0 -31 31v61q0 31 31 31h631q31 0 31 -31v-61q0 -31 -31 -31h-14q-138 -8 -138 -194v-31h699v31q0 186 -138 194h-14q-31 0 -31 31v61q0 31 31 31h631
q31 0 31 -31v-61q0 -31 -31 -31h-12zM610 868h699v156h-699v-156z" />
    <glyph glyph-name="hbar" unicode="&#x127;" horiz-adv-x="1394" 
d="M1343 123q31 0 31 -31v-61q0 -31 -31 -31h-557q-30 0 -30 31v61q0 31 30 31h7q55 0 81.5 53t24.5 141v310v24v39t-1.5 37t-3.5 34.5t-7 30.5t-12.5 26t-18.5 22t-25.5 16.5t-34.5 10t-44 3.5q-77 0 -149.5 -44.5t-100.5 -110.5v-398q0 -87 39 -140.5t112 -53.5h4
q31 0 31 -31v-61q0 -31 -31 -31h-596q-30 0 -30 31v61q0 31 30 31h5q73 0 112 54t37 140v758h-104q-31 0 -31 31v82q0 31 31 31h92q-24 94 -109 102q-24 2 -24 27v69q0 11 6.5 16.5t21.5 10.5q234 78 385 190q8 4 11 4h4q2 0 2 -4v-415h205q30 0 30 -31v-82q0 -31 -30 -31
h-205v-227q16 31 43.5 63t69 65t101.5 54t126 21q85 0 148 -20.5t100.5 -54t60 -84t30.5 -101t9 -115.5v-359q0 -87 38.5 -140.5t110.5 -53.5h6z" />
    <glyph glyph-name="Imacron" unicode="&#x12a;" horiz-adv-x="833" 
d="M145 1761q-30 0 -30 31v123q0 31 30 31h549q31 0 31 -31v-123q0 -31 -31 -31h-549zM582 317q0 -186 137 -194h12q31 0 31 -31v-61q0 -31 -31 -31h-629q-30 0 -30 31v61q0 31 30 31h15q137 8 137 194v902q0 186 -137 194h-15q-30 0 -30 31v61q0 31 30 31h629q31 0 31 -31
v-61q0 -31 -31 -31h-12q-137 -8 -137 -194v-902z" />
    <glyph glyph-name="imacron" unicode="&#x12b;" horiz-adv-x="716" 
d="M84 1249q-31 0 -31 31v123q0 31 31 31h547q31 0 31 -31v-123q0 -31 -31 -31h-547zM655 123q31 0 31 -31v-61q0 -15 -10 -23t-25 -8h-579q-15 0 -25 8t-10 23v61q0 31 31 31h4q73 0 111 53.5t36 140.5v218q0 43 -3.5 72.5t-14.5 64.5t-37 55.5t-66 24.5q-24 2 -24 26v70
q0 11 6.5 16t23.5 10q259 87 377 209q4 4 8 4h5q4 0 6 -2v-768q0 -87 38.5 -140.5t110.5 -53.5h6z" />
    <glyph glyph-name="Iogonek" unicode="&#x12e;" horiz-adv-x="833" 
d="M762 31q0 -22 -17 -29l-12 -4q-83 -11 -142 -64.5t-59 -128.5q0 -74 44 -120.5t120 -46.5q45 0 110.5 26.5t70.5 26.5q15 0 18 -25l4 -82q0 -21 -18 -33q-110 -71 -228 -71q-80 0 -144 29.5t-101.5 75.5t-57.5 97.5t-20 100.5q0 128 100 217h-328q-30 0 -30 31v61
q0 31 30 31h15q137 8 137 194v902q0 186 -137 194h-15q-30 0 -30 31v61q0 31 30 31h629q31 0 31 -31v-61q0 -31 -31 -31h-12q-137 -8 -137 -194v-902q0 -186 137 -194h12q31 0 31 -31v-61z" />
    <glyph glyph-name="iogonek" unicode="&#x12f;" horiz-adv-x="716" 
d="M356 1208q-53 0 -102 52q-51 48 -51 102q0 51 51 102q49 52 102 52q51 0 103 -52q51 -51 51 -102q0 -54 -51 -102q-52 -52 -103 -52zM641 -2q-82 -13 -140.5 -65.5t-58.5 -127.5q0 -74 44 -120.5t120 -46.5q44 0 109.5 26.5t68.5 26.5q18 0 21 -25l2 -82q0 -22 -19 -33
q-110 -71 -225 -71q-80 0 -144 29.5t-101.5 75.5t-57.5 97.5t-20 100.5q0 131 100 217h-268q-15 0 -25 8t-10 23v61q0 31 31 31h4q73 0 111 53.5t36 140.5v218q0 43 -3.5 72.5t-14.5 64.5t-37 55.5t-66 24.5q-24 2 -24 26v70q0 11 6.5 16t23.5 10q259 87 377 209q4 4 8 4h5
q4 0 6 -2v-768q0 -87 38.5 -140.5t110.5 -53.5h6q31 0 31 -31v-61q0 -31 -37 -31z" />
    <glyph glyph-name="Idotaccent" unicode="&#x130;" horiz-adv-x="833" 
d="M418 1720q-51 0 -103 52q-51 48 -51 102q0 51 51 102q52 52 103 52q50 0 102 -52q51 -51 51 -102q0 -54 -51 -102q-52 -52 -102 -52zM582 317q0 -186 137 -194h12q31 0 31 -31v-61q0 -31 -31 -31h-629q-30 0 -30 31v61q0 31 30 31h15q137 8 137 194v902q0 186 -137 194
h-15q-30 0 -30 31v61q0 31 30 31h629q31 0 31 -31v-61q0 -31 -31 -31h-12q-137 -8 -137 -194v-902z" />
    <glyph glyph-name="dotlessi" unicode="&#x131;" horiz-adv-x="716" 
d="M655 123q31 0 31 -31v-61q0 -15 -10 -23t-25 -8h-579q-15 0 -25 8t-10 23v61q0 31 31 31h4q73 0 111 53.5t36 140.5v218q0 43 -3.5 72.5t-14.5 64.5t-37 55.5t-66 24.5q-24 2 -24 26v70q0 11 6.5 16t23.5 10q259 87 377 209q4 4 8 4h5q4 0 6 -2v-768q0 -87 38.5 -140.5
t110.5 -53.5h6z" />
    <glyph glyph-name="IJ" unicode="&#x132;" horiz-adv-x="1888" 
d="M731 1536q31 0 31 -31v-61q0 -31 -31 -31h-12q-137 -8 -137 -194v-902q0 -186 137 -194h12q31 0 31 -31v-61q0 -31 -31 -31h-629q-30 0 -30 31v61q0 31 30 31h15q137 8 137 194v902q0 186 -137 194h-15q-30 0 -30 31v61q0 31 30 31h629zM1806 1536q31 0 31 -31v-61
q0 -31 -31 -31h-12q-137 -8 -137 -194v-773q0 -469 -471 -469q-77 0 -142 23.5t-104.5 57.5t-67 73.5t-38.5 70.5t-11 50q0 32 33 49l203 109q8 4 14 4q10 0 17 -10t6 -27q-4 -50 -4 -78q0 -51 9.5 -91t35.5 -68.5t67 -28.5q125 0 125 151v957q0 186 -137 194h-14
q-31 0 -31 31v61q0 31 31 31h628z" />
    <glyph glyph-name="ij" unicode="&#x133;" horiz-adv-x="1316" 
d="M356 1208q-53 0 -102 52q-51 48 -51 102q0 51 51 102q49 52 102 52q51 0 103 -52q51 -51 51 -102q0 -54 -51 -102q-52 -52 -103 -52zM1059 1208q-51 0 -103 52q-51 51 -51 102q0 48 51 102q52 52 103 52q52 0 104 -52q51 -54 51 -102q0 -51 -51 -102q-52 -52 -104 -52z
M1202 1090q1 0 6 -5v-958q0 -58 -5 -111.5t-18 -111.5t-34 -106.5t-55 -93t-78 -75.5t-105.5 -49t-136.5 -18q-71 0 -130.5 17t-95.5 42t-61 54t-35 51t-10 36q0 26 23 43l145 105q8 4 13 4q21 0 24 -29q0 -41 6.5 -75.5t21.5 -66t44.5 -49.5t69.5 -18q30 0 52 11t36 34
t22.5 48t12.5 65.5t5 73t1 82.5v545q0 43 -3.5 72.5t-14.5 64.5t-37 55.5t-66 24.5q-25 2 -25 26v70q0 11 7 16t24 10q274 92 383 209q8 4 10 4zM72 0q-15 0 -25 8t-10 23v61q0 31 31 31h4q73 0 111 53.5t36 140.5v218q0 43 -3.5 72.5t-14.5 64.5t-37 55.5t-66 24.5
q-24 2 -24 26v70q0 11 6.5 16t23.5 10q259 87 377 209q4 4 8 4h5q4 0 6 -2v-768q0 -87 38.5 -140.5t110.5 -53.5h6q31 0 31 -31v-61q0 -31 -37 -31h-577z" />
    <glyph glyph-name="uni0136" unicode="&#x136;" horiz-adv-x="1634" 
d="M1587 123q31 0 31 -31v-61q0 -31 -31 -31h-629q-30 0 -30 31v61q0 31 30 31h13q52 3 81 29t29 67q0 46 -37 98l-299 422l-174 -188v-234q0 -186 138 -194h12q31 0 31 -31v-61q0 -31 -31 -31h-629q-31 0 -31 31v61q0 31 31 31h14q138 8 138 194v902q0 186 -135 194h-17
q-31 0 -31 31v61q0 31 31 31h631q31 0 31 -31v-61q0 -31 -31 -31h-14q-138 -8 -138 -196v-404l402 447l63 69q21 28 21 49q0 37 -41 37h-43q-11 0 -19 8.5t-8 22.5v61q0 13 9 22t22 9h518q28 0 31 -31v-61q0 -14 -8 -22.5t-19 -8.5h-24q-62 0 -108 -27t-120 -108l-301 -326
l426 -637q13 -19 37 -58t36 -55t33 -38.5t44 -31.5t53 -11h12zM999 -195q43 -43 43 -112q0 -28 -6 -62q-16 -74 -91.5 -167.5t-149.5 -153.5t-99 -60q-14 0 -82 31q73 56 117.5 123t44.5 117q0 32 -16 45l-80 80q-39 39 -39 80q0 43 39 79l80 80q39 39 80 39t80 -39z" />
    <glyph glyph-name="uni0137" unicode="&#x137;" horiz-adv-x="1292" 
d="M1251 123q27 0 27 -31v-61q0 -31 -31 -31h-502q-30 0 -30 31v63q0 29 26 29h31q22 0 38.5 8.5t16.5 22.5t-16 30l-270 293l-43 -39v-121q0 -124 18.5 -159t91.5 -35q31 0 31 -31v-61q0 -31 -31 -31h-547q-30 0 -30 31v61q0 31 30 31q73 0 112.5 54t37.5 140v768
q0 40 -1.5 67t-8.5 60t-20 53.5t-36.5 36.5t-56.5 19q-25 3 -22 27v69q0 11 6.5 16.5t21.5 10.5q234 78 385 190l8 4h7q2 0 4 -4v-1016l250 228q16 13 16 28q0 27 -41 27h-61q-13 0 -20.5 8.5t-6.5 22.5v61q0 31 31 31h454q31 0 31 -31v-61q0 -31 -27 -31h-24
q-39 0 -75 -16.5t-62.5 -37.5t-94.5 -79l-157 -141l438 -441q37 -37 56 -50t40 -13h6zM809 -195q43 -43 43 -112q0 -28 -6 -62q-15 -74 -90.5 -167.5t-150 -153.5t-99.5 -60q-12 0 -80 31q73 56 117.5 123t44.5 117q0 29 -19 45l-80 80q-38 41 -38 80q0 41 38 79l80 80
q39 39 80 39q44 0 80 -39z" />
    <glyph glyph-name="Lacute" unicode="&#x139;" horiz-adv-x="1452" 
d="M279 1696q94 121 135.5 192.5t81.5 175.5q10 24 36 27q14 2 39 2q63 0 103.5 -26.5t40.5 -77.5q0 -59 -33.5 -115t-86 -98t-106 -71.5t-104.5 -47.5q-4 -2 -14 -2q-7 0 -19 4zM1393 438q18 -9 18 -26q0 -8 -6 -17l-193 -405q-6 -19 -24 -19q-10 0 -19 9l-10 10
q-12 10 -41 10h-1026q-31 0 -31 31v61q0 31 31 31h2q150 0 150 194v900q0 194 -150 194h-2q-31 0 -31 31v61q0 33 31 33h621q16 0 27.5 -9.5t11.5 -23.5v-61q0 -12 -21 -21.5t-37 -9.5h-125v-1071q0 -190 142 -195h80q53 0 90 3.5t92 20.5t99.5 48.5t99.5 91t106 144.5l6 12
q13 16 27 16q4 0 16 -4z" />
    <glyph glyph-name="lacute" unicode="&#x13a;" horiz-adv-x="710" 
d="M195 1706q95 122 137.5 194.5t81.5 174.5q7 23 35 26q14 2 38 2q64 0 104 -26t40 -78q0 -59 -33.5 -116t-86 -98.5t-106 -71t-104.5 -46.5q-4 -2 -14 -2q-13 0 -19 4zM498 317q0 -87 39 -140.5t112 -53.5q31 0 31 -31v-61q0 -31 -31 -31h-588q-30 0 -30 31v61q0 31 30 31
q73 0 112.5 54t37.5 140v768q0 40 -1.5 67t-8.5 60t-20 53.5t-36.5 36.5t-56.5 19q-25 3 -22 27v69q0 11 6.5 16.5t21.5 10.5q234 78 385 190l8 4h7q2 0 4 -4v-1317z" />
    <glyph glyph-name="uni013B" unicode="&#x13b;" horiz-adv-x="1452" 
d="M1393 438q18 -9 18 -26q0 -8 -6 -17l-193 -405q-6 -19 -24 -19q-10 0 -19 9l-10 10q-12 10 -41 10h-1026q-31 0 -31 31v61q0 31 31 31h2q150 0 150 194v900q0 194 -150 194h-2q-31 0 -31 31v61q0 33 31 33h621q16 0 27.5 -9.5t11.5 -23.5v-61q0 -12 -21 -21.5t-37 -9.5
h-125v-1071q0 -190 142 -195h80q53 0 90 3.5t92 20.5t99.5 48.5t99.5 91t106 144.5l6 12q13 16 27 16q4 0 16 -4zM877 -195q43 -40 43 -114q0 -20 -7 -60q-15 -74 -90 -167.5t-149.5 -153.5t-100.5 -60q-11 0 -79 31q72 56 116.5 123t44.5 115q0 29 -18 47l-80 80
q-39 42 -39 80q0 37 39 79l80 80q42 39 80 39q41 0 80 -39z" />
    <glyph glyph-name="uni013C" unicode="&#x13c;" horiz-adv-x="710" 
d="M498 317q0 -87 39 -140.5t112 -53.5q31 0 31 -31v-61q0 -31 -31 -31h-588q-30 0 -30 31v61q0 31 30 31q73 0 112.5 54t37.5 140v768q0 40 -1.5 67t-8.5 60t-20 53.5t-36.5 36.5t-56.5 19q-25 3 -22 27v69q0 11 6.5 16.5t21.5 10.5q234 78 385 190l8 4h7q2 0 4 -4v-1317z
M510 -195q43 -43 43 -112q0 -28 -6 -62q-15 -74 -90.5 -167.5t-150 -153.5t-99.5 -60q-12 0 -80 31q73 56 117.5 123t44.5 117q0 29 -19 45l-80 80q-38 41 -38 80q0 41 38 79l80 80q39 39 80 39q44 0 80 -39z" />
    <glyph glyph-name="Lcaron" unicode="&#x13d;" horiz-adv-x="1452" 
d="M1393 438q18 -9 18 -26q0 -8 -6 -17l-193 -405q-6 -19 -24 -19q-10 0 -19 9l-10 10q-12 10 -41 10h-1026q-31 0 -31 31v61q0 31 31 31h2q150 0 150 194v900q0 194 -150 194h-2q-31 0 -31 31v61q0 33 31 33h621q16 0 27.5 -9.5t11.5 -23.5v-61q0 -12 -21 -21.5t-37 -9.5
h-125v-1071q0 -190 142 -195h80q53 0 90 3.5t92 20.5t99.5 48.5t99.5 91t106 144.5l6 12q13 16 27 16q4 0 16 -4zM813 1030q95 122 137.5 194.5t81.5 174.5q7 23 37 26q12 2 39 2q62 0 101.5 -26.5t39.5 -77.5q0 -59 -33.5 -115t-85.5 -98t-105 -71.5t-103 -47.5
q-6 -2 -15 -2q-4 0 -20 4z" />
    <glyph glyph-name="lcaron" unicode="&#x13e;" horiz-adv-x="710" 
d="M498 317q0 -87 39 -140.5t112 -53.5q31 0 31 -31v-61q0 -31 -31 -31h-588q-30 0 -30 31v61q0 31 30 31q73 0 112.5 54t37.5 140v768q0 40 -1.5 67t-8.5 60t-20 53.5t-36.5 36.5t-56.5 19q-25 3 -22 27v69q0 11 6.5 16.5t21.5 10.5q234 78 385 190l8 4h7q2 0 4 -4v-1317z
" />
    <glyph glyph-name="Ldot" unicode="&#x13f;" horiz-adv-x="1452" 
d="M1393 438q18 -9 18 -26q0 -8 -6 -17l-193 -405q-6 -19 -24 -19q-10 0 -19 9l-10 10q-12 10 -41 10h-1026q-31 0 -31 31v61q0 31 31 31h2q150 0 150 194v900q0 194 -150 194h-2q-31 0 -31 31v61q0 33 31 33h621q16 0 27.5 -9.5t11.5 -23.5v-61q0 -12 -21 -21.5t-37 -9.5
h-125v-1071q0 -190 142 -195h80q53 0 90 3.5t92 20.5t99.5 48.5t99.5 91t106 144.5l6 12q13 16 27 16q4 0 16 -4zM793 758q-39 39 -39 80q0 38 39 80l79 79q40 37 80 37q41 0 80 -39l80 -80q39 -36 39 -79q0 -42 -39 -78l-80 -82q-37 -37 -80 -37q-40 0 -80 37z" />
    <glyph glyph-name="ldot" unicode="&#x140;" horiz-adv-x="972" 
d="M498 317q0 -87 39 -140.5t112 -53.5q31 0 31 -31v-61q0 -31 -31 -31h-588q-30 0 -30 31v61q0 31 30 31q73 0 112.5 54t37.5 140v768q0 40 -1.5 67t-8.5 60t-20 53.5t-36.5 36.5t-56.5 19q-25 3 -22 27v69q0 11 6.5 16.5t21.5 10.5q234 78 385 190l8 4h7q2 0 4 -4v-1317z
M913 977q37 -40 37 -80t-37 -80l-82 -80q-39 -39 -77 -39q-41 0 -80 39l-80 80q-39 39 -39 80t39 80l80 80q36 39 78 39q43 0 79 -39z" />
    <glyph glyph-name="Lslash" unicode="&#x141;" horiz-adv-x="1452" 
d="M1393 438q18 -9 18 -26q0 -8 -6 -17l-193 -405q-6 -19 -24 -19q-10 0 -19 9l-10 10q-12 10 -41 10h-1026q-31 0 -31 31v61q0 31 31 31h2q150 0 150 194v345l-183 -70q-2 0 -6 -1t-6 -1q-22 0 -22 26l-2 164q0 27 22 35l197 74v328q0 194 -150 194h-2q-31 0 -31 31v61
q0 33 31 33h621q16 0 27.5 -9.5t11.5 -23.5v-61q0 -12 -21 -21.5t-37 -9.5h-125v-399l242 92q4 2 12 2q23 0 23 -27l2 -164q0 -25 -23 -34l-256 -97v-444q0 -190 142 -195h80q53 0 90 3.5t92 20.5t99.5 48.5t99.5 91t106 144.5l6 12q13 16 27 16q4 0 16 -4z" />
    <glyph glyph-name="lslash" unicode="&#x142;" horiz-adv-x="911" 
d="M868 915q0 -26 -22 -34l-254 -95v-469q0 -87 39 -140.5t112 -53.5q31 0 31 -31v-61q0 -31 -31 -31h-587q-31 0 -31 31v61q0 31 31 31q73 0 112 54t37 140v361l-223 -84q-8 -4 -12 -4q-23 0 -23 28l-2 164q0 26 23 35l237 88v180q0 40 -1.5 67t-8.5 60t-19.5 53.5
t-35.5 36.5t-56 19q-24 2 -24 27v69q0 11 6.5 16.5t21.5 10.5q234 78 385 190q8 4 11 4h4q2 0 4 -4v-620l239 90q4 2 13 2q22 0 22 -27z" />
    <glyph glyph-name="Nacute" unicode="&#x143;" horiz-adv-x="1824" 
d="M782 1696q95 120 137 192t82 176q10 24 37 27q12 2 39 2q63 0 103.5 -26.5t40.5 -77.5q0 -59 -33.5 -115t-86 -98t-106 -71.5t-104.5 -47.5q-6 -2 -14 -2q-7 0 -19 4zM1774 1536q30 0 30 -31v-61q0 -31 -30 -31q-73 0 -112.5 -53.5t-37.5 -140.5v-1188q0 -31 -31 -31
h-141q-22 0 -37 18l-969 1115v-816q0 -86 39.5 -140t112.5 -54q31 0 31 -31v-61q0 -31 -31 -31h-506q-31 0 -31 31v61q0 31 31 31q73 0 111.5 53.5t38.5 140.5v1045q-60 51 -129 51q-31 0 -31 31v61q0 31 31 31h354q22 0 37 -18l915 -1045v746q0 88 -39 141t-112 53
q-31 0 -31 31v61q0 31 31 31h506z" />
    <glyph glyph-name="nacute" unicode="&#x144;" horiz-adv-x="1398" 
d="M547 1184q95 120 137 192t82 176q10 24 37 27q12 2 39 2q63 0 103 -26.5t40 -77.5q0 -59 -33.5 -115t-86 -98t-106 -71.5t-104.5 -47.5q-4 -2 -14 -2q-6 0 -18 4zM1348 123q30 0 30 -31v-61q0 -31 -30 -31h-557q-31 0 -31 31v61q0 31 33 31q56 0 82 52.5t24 141.5v310v20
v41t-1.5 38.5t-5.5 38.5t-10.5 33t-17.5 30t-26 22t-37 15.5t-49 4.5q-73 0 -147 -54t-101 -122v-377q0 -87 38.5 -140.5t110.5 -53.5h4q31 0 31 -31v-61q0 -31 -31 -31h-596q-30 0 -30 31v61q0 31 30 31h5q72 0 110.5 53.5t38.5 140.5v258q0 50 -3.5 83t-14.5 70t-37 58
t-66 25q-24 2 -24 27v69q0 21 30 27q131 21 241.5 66t162.5 83q8 4 10 4h4q4 0 4 -2l-37 -270q146 236 355 236q85 0 148.5 -23t101 -59t60 -90t30.5 -106.5t8 -117.5v-338q0 -87 38.5 -140.5t110.5 -53.5h11z" />
    <glyph glyph-name="uni0145" unicode="&#x145;" horiz-adv-x="1824" 
d="M1774 1536q30 0 30 -31v-61q0 -31 -30 -31q-73 0 -112.5 -53.5t-37.5 -140.5v-1188q0 -31 -31 -31h-141q-22 0 -37 18l-969 1115v-816q0 -86 39.5 -140t112.5 -54q31 0 31 -31v-61q0 -31 -31 -31h-506q-31 0 -31 31v61q0 31 31 31q73 0 111.5 53.5t38.5 140.5v1045
q-60 51 -129 51q-31 0 -31 31v61q0 31 31 31h354q22 0 37 -18l915 -1045v746q0 88 -39 141t-112 53q-31 0 -31 31v61q0 31 31 31h506zM1094 -195q43 -43 43 -112q0 -22 -7 -62q-12 -57 -60.5 -127.5t-104 -124.5t-106 -91.5t-68.5 -37.5q-12 0 -80 31q72 56 116.5 123
t44.5 117q0 30 -18 45l-80 80q-39 42 -39 80q0 40 39 79l80 80q39 39 80 39q44 0 80 -39z" />
    <glyph glyph-name="uni0146" unicode="&#x146;" horiz-adv-x="1398" 
d="M1348 123q30 0 30 -31v-61q0 -31 -30 -31h-557q-31 0 -31 31v61q0 31 33 31q56 0 82 52.5t24 141.5v310v20v41t-1.5 38.5t-5.5 38.5t-10.5 33t-17.5 30t-26 22t-37 15.5t-49 4.5q-73 0 -147 -54t-101 -122v-377q0 -87 38.5 -140.5t110.5 -53.5h4q31 0 31 -31v-61
q0 -31 -31 -31h-596q-30 0 -30 31v61q0 31 30 31h5q72 0 110.5 53.5t38.5 140.5v258q0 50 -3.5 83t-14.5 70t-37 58t-66 25q-24 2 -24 27v69q0 21 30 27q131 21 241.5 66t162.5 83q8 4 10 4h4q4 0 4 -2l-37 -270q146 236 355 236q85 0 148.5 -23t101 -59t60 -90t30.5 -106.5
t8 -117.5v-338q0 -87 38.5 -140.5t110.5 -53.5h11zM858 -195q45 -42 45 -112q0 -31 -8 -62q-15 -74 -90 -167.5t-149 -153.5t-99 -60q-14 0 -82 31q73 56 117.5 123t44.5 117q0 29 -16 45l-80 80q-39 39 -39 80q0 43 39 79l80 80q36 39 77 39q44 0 80 -39z" />
    <glyph glyph-name="Ncaron" unicode="&#x147;" horiz-adv-x="1824" 
d="M567 1868q-20 9 -26 37q-2 12 -2 39q0 63 26.5 103t77.5 40q90 0 166.5 -70.5t128.5 -171.5q50 100 126.5 171t166.5 71q51 0 77.5 -40t26.5 -103q0 -27 -2 -39q-3 -27 -26 -37q-105 -40 -177 -82t-192 -137q-119 94 -192 136t-179 83zM1774 1536q30 0 30 -31v-61
q0 -31 -30 -31q-73 0 -112.5 -53.5t-37.5 -140.5v-1188q0 -31 -31 -31h-141q-22 0 -37 18l-969 1115v-816q0 -86 39.5 -140t112.5 -54q31 0 31 -31v-61q0 -31 -31 -31h-506q-31 0 -31 31v61q0 31 31 31q73 0 111.5 53.5t38.5 140.5v1045q-60 51 -129 51q-31 0 -31 31v61
q0 31 31 31h354q22 0 37 -18l915 -1045v746q0 88 -39 141t-112 53q-31 0 -31 31v61q0 31 31 31h506z" />
    <glyph glyph-name="ncaron" unicode="&#x148;" horiz-adv-x="1398" 
d="M332 1356q-21 9 -27 37q0 6 -1 19.5t-1 19.5q0 62 27 102.5t78 40.5q90 0 166 -70.5t128 -171.5q52 101 127.5 171.5t165.5 70.5q51 0 78 -40.5t27 -102.5q0 -27 -2 -39q-3 -27 -27 -37q-105 -40 -177 -82t-192 -137q-121 95 -193 137t-177 82zM1348 123q30 0 30 -31v-61
q0 -31 -30 -31h-557q-31 0 -31 31v61q0 31 33 31q56 0 82 52.5t24 141.5v310v20v41t-1.5 38.5t-5.5 38.5t-10.5 33t-17.5 30t-26 22t-37 15.5t-49 4.5q-73 0 -147 -54t-101 -122v-377q0 -87 38.5 -140.5t110.5 -53.5h4q31 0 31 -31v-61q0 -31 -31 -31h-596q-30 0 -30 31v61
q0 31 30 31h5q72 0 110.5 53.5t38.5 140.5v258q0 50 -3.5 83t-14.5 70t-37 58t-66 25q-24 2 -24 27v69q0 21 30 27q131 21 241.5 66t162.5 83q8 4 10 4h4q4 0 4 -2l-37 -270q146 236 355 236q85 0 148.5 -23t101 -59t60 -90t30.5 -106.5t8 -117.5v-338q0 -87 38.5 -140.5
t110.5 -53.5h11z" />
    <glyph glyph-name="Eng" unicode="&#x14a;" horiz-adv-x="1818" 
d="M1774 1536q30 0 30 -31v-61q0 -31 -30 -31q-73 0 -112.5 -53.5t-37.5 -140.5v-1092q0 -84 -10 -157t-39 -150.5t-75 -132.5t-125 -90t-183 -35q-71 0 -130.5 17t-95.5 42t-61 54t-35 51t-10 36q0 26 23 43l145 105q12 4 14 4q23 0 23 -29q0 -41 6.5 -75.5t21.5 -66
t44.5 -49.5t70.5 -18q89 0 140 91t51 223v47l-953 1096v-816q0 -86 39.5 -140t112.5 -54q31 0 31 -31v-61q0 -31 -31 -31h-506q-31 0 -31 31v61q0 31 31 31q73 0 111.5 53.5t38.5 140.5v1045q-60 51 -129 51q-31 0 -31 31v61q0 31 31 31h354q22 0 37 -18l915 -1045v746
q0 88 -39 141t-112 53q-31 0 -31 31v61q0 31 31 31h506z" />
    <glyph glyph-name="eng" unicode="&#x14b;" horiz-adv-x="1269" 
d="M1188 127q0 -58 -5 -111.5t-18 -111.5t-34 -106.5t-55 -93t-78 -75.5t-105.5 -49t-136.5 -18q-71 0 -130.5 17t-95.5 42t-61 54t-35 51t-10 36q0 26 22 43l146 105q8 4 14 4q20 0 23 -29q0 -41 6.5 -75.5t21.5 -66t44 -49.5t69 -18q30 0 53 11t36.5 34t22.5 48.5
t12.5 65.5t4.5 73t0 82v637v20v41t-1.5 38.5t-5.5 38.5t-10.5 33t-17.5 30t-26 22t-37 15.5t-49 4.5q-73 0 -147 -53.5t-101 -120.5v-379q0 -87 38.5 -140.5t110.5 -53.5h4q31 0 31 -31v-61q0 -31 -31 -31h-596q-30 0 -30 31v61q0 31 30 31h5q72 0 110.5 53.5t38.5 140.5
v258q0 40 -1.5 67t-8.5 60t-19.5 53.5t-35.5 36.5t-56 19q-24 2 -24 27v69q0 21 30 27q131 21 241.5 66t162.5 83q2 1 5 4t5 3h4q4 0 4 -5l-37 -268q148 234 355 234q85 0 148.5 -23t101 -59t60 -90t30.5 -106.5t8 -117.5v-528z" />
    <glyph glyph-name="Omacron" unicode="&#x14c;" horiz-adv-x="1683" 
d="M1147 1792q0 -31 -31 -31h-547q-30 0 -30 31v123q0 31 30 31h547q31 0 31 -31v-123zM674 1544q75 17 155 17q271 0 487.5 -178t276.5 -457q19 -90 19 -170q0 -181 -76 -342t-214.5 -273.5t-315.5 -150.5q-87 -17 -154 -17q-178 0 -337.5 79.5t-272.5 224.5t-152 329
q-18 86 -18 170q0 181 75 343t213 275t314 150zM713 1370q-91 -19 -158 -66t-105 -114t-55.5 -142.5t-17.5 -162.5q0 -103 22 -213q22 -100 60 -188t95 -163.5t139 -120t179 -44.5q39 0 97 10q91 19 158.5 66t105.5 113.5t56 141.5t18 162q0 90 -25 211q-21 100 -59 189
t-95.5 165.5t-140 121t-180.5 44.5q-39 0 -94 -10z" />
    <glyph glyph-name="omacron" unicode="&#x14d;" horiz-adv-x="1175" 
d="M893 1280q0 -31 -31 -31h-547q-30 0 -30 31v123q0 31 30 31h547q31 0 31 -31v-123zM369 1006q101 43 206 43q155 0 289.5 -87t200.5 -237q49 -110 49 -223q0 -156 -82 -287t-225 -195q-99 -45 -207 -45q-156 0 -290 87t-201 237q-48 115 -48 225q0 155 82 287t226 195z
M430 866q-125 -54 -125 -215q0 -109 57 -239q54 -118 133 -195.5t169 -77.5q35 0 81 19q123 55 123 215q0 112 -57 239q-51 117 -130.5 195t-168.5 78q-39 0 -82 -19z" />
    <glyph glyph-name="Ohungarumlaut" unicode="&#x150;" horiz-adv-x="1683" 
d="M592 1683q24 81 24 211q0 70 -10 158l-2 6q0 18 21 33q67 51 131 51q36 0 59 -21.5t23 -64.5q0 -74 -39.5 -185t-93.5 -169q-8 -11 -29 -14zM963 1683q22 74 22 211q0 92 -10 158v6q0 19 20 33q67 51 131 51q36 0 59 -21.5t23 -64.5q0 -74 -39.5 -185t-93.5 -169
q-9 -11 -31 -14zM674 1544q75 17 155 17q271 0 487.5 -178t276.5 -457q19 -90 19 -170q0 -181 -76 -342t-214.5 -273.5t-315.5 -150.5q-87 -17 -154 -17q-178 0 -337.5 79.5t-272.5 224.5t-152 329q-18 86 -18 170q0 181 75 343t213 275t314 150zM713 1370q-91 -19 -158 -66
t-105 -114t-55.5 -142.5t-17.5 -162.5q0 -103 22 -213q22 -100 60 -188t95 -163.5t139 -120t179 -44.5q39 0 97 10q91 19 158.5 66t105.5 113.5t56 141.5t18 162q0 90 -25 211q-21 100 -59 189t-95.5 165.5t-140 121t-180.5 44.5q-39 0 -94 -10z" />
    <glyph glyph-name="ohungarumlaut" unicode="&#x151;" horiz-adv-x="1175" 
d="M338 1171q24 81 24 211q0 78 -12 158v6q0 18 21 33q67 51 131 51q36 0 59 -21.5t23 -64.5q0 -74 -39.5 -185t-93.5 -169q-8 -11 -29 -14zM709 1171q22 74 22 211q0 92 -10 158v6q0 18 18 33q71 51 133 51q36 0 58 -21t22 -65q0 -75 -38.5 -185.5t-92.5 -168.5
q-9 -11 -30 -14zM369 1006q101 43 206 43q155 0 289.5 -87t200.5 -237q49 -110 49 -223q0 -156 -82 -287t-225 -195q-99 -45 -207 -45q-156 0 -290 87t-201 237q-48 115 -48 225q0 155 82 287t226 195zM430 866q-125 -54 -125 -215q0 -109 57 -239q54 -118 133 -195.5
t169 -77.5q35 0 81 19q123 55 123 215q0 112 -57 239q-51 117 -130.5 195t-168.5 78q-39 0 -82 -19z" />
    <glyph glyph-name="OE" unicode="&#x152;" horiz-adv-x="2537" 
d="M2480 438q17 -11 17 -26q0 -2 -5 -17l-192 -405q-10 -19 -25 -19q-9 0 -18 9l-12 10q-12 10 -39 10h-1157l-43 -10q-72 -17 -154 -17q-178 0 -337.5 79.5t-272.5 224.5t-152 329q-18 82 -18 170q0 181 75 343t213 275t314 150q90 17 155 17q96 0 191 -25h1091q27 0 39 10
l11 10q11 7 18 7q15 0 25 -17l163 -278q7 -11 7 -19q0 -15 -19 -24l-84 -47q-14 -7 -18 -7q-15 0 -25 19l-8 10q-59 102 -131.5 146.5t-194.5 44.5h-344v-482h193q187 0 192 140v12q0 31 31 31h64q30 0 30 -31v-465q0 -31 -30 -31h-64q-31 0 -31 31v12q-5 137 -192 137h-180
v-405q0 -190 141 -195h133q47 0 79 1.5t75 8.5t75.5 19t73 34.5t75 55t73.5 80.5t77 109l7 12q10 16 24 16q7 0 19 -4zM399 672q22 -101 60 -189t95 -163.5t139 -119.5t179 -44q53 0 97 10q91 19 158.5 66t105.5 113.5t56 141.5t18 162q0 88 -25 209q-21 101 -59 190
t-95.5 165.5t-140 121.5t-180.5 45q-45 0 -94 -12q-91 -19 -158 -66t-105 -113.5t-55.5 -141.5t-17.5 -162q0 -106 22 -213z" />
    <glyph glyph-name="oe" unicode="&#x153;" horiz-adv-x="1777" 
d="M1081 367q39 -96 117.5 -159t190.5 -63q70 0 140 38.5t120 113.5q8 8 18 8q16 0 82 -39q8 -5 8 -16q0 -15 -12 -35q-131 -240 -412 -240q-229 0 -381 142q-63 -60 -145 -97q-99 -45 -207 -45q-156 0 -290 87t-201 237q-48 115 -48 225q0 155 82 287t226 195
q101 43 206 43q198 0 351 -134q132 132 346 132q78 0 147.5 -26t118.5 -68.5t85 -95t53.5 -105.5t17.5 -101q0 -19 -19 -24zM745 158q123 55 123 215q0 112 -57 239q-51 117 -130.5 195t-168.5 78q-39 0 -82 -19q-125 -54 -125 -215q0 -109 57 -239q54 -118 133 -195.5
t169 -77.5q35 0 81 19zM1386 659q0 98 -47 162t-118 64q-83 0 -133 -66t-50 -168q0 -99 19 -157z" />
    <glyph glyph-name="Racute" unicode="&#x154;" horiz-adv-x="1634" 
d="M557 1696q95 122 137.5 194t81.5 174q7 24 37 27q12 2 39 2q62 0 101.5 -26t39.5 -76q0 -59 -33.5 -116t-85.5 -99t-105 -71.5t-103 -47.5q-6 -2 -15 -2q-4 0 -20 4zM1587 123q31 0 31 -31v-61q0 -31 -31 -31h-629q-30 0 -30 31v61q0 31 30 31h13q49 3 74.5 30t25.5 70
q0 45 -27 94l-186 349q-72 -7 -133 -7h-154v-342q0 -186 138 -194h12q31 0 31 -31v-61q0 -31 -31 -31h-629q-31 0 -31 31v61q0 31 31 31h14q138 8 138 194v902q0 194 -148 194h-2q-31 0 -31 31v61q0 31 31 31h752q121 0 225 -35t173.5 -94t109 -137.5t39.5 -165.5
q0 -112 -59.5 -208.5t-184.5 -156.5l223 -422q21 -39 31.5 -57.5t31.5 -49t39 -45.5t45 -27.5t58 -14.5h10zM690 805q199 0 297 78t98 221q0 142 -88 225.5t-241 83.5h-185v-608h119z" />
    <glyph glyph-name="racute" unicode="&#x155;" horiz-adv-x="1085" 
d="M459 1184q95 122 137.5 194t81.5 174q7 24 35 27q14 2 39 2q64 0 103.5 -26t39.5 -78q0 -59 -33.5 -115t-86 -98t-106 -71.5t-104.5 -47.5q-4 -2 -12 -2q-5 0 -21 4zM473 809q54 116 151.5 179t209.5 63q100 0 165.5 -55.5t65.5 -155.5q0 -55 -10 -86t-43 -45l-193 -78
q-6 -4 -18 -4q-19 0 -19 18q0 7 4 19q19 46 19 102q0 53 -26 79.5t-70 26.5q-65 0 -122.5 -56t-82.5 -122v-377q0 -87 38.5 -140.5t110.5 -53.5h4q31 0 31 -31v-61q0 -31 -31 -31h-596q-30 0 -30 31v61q0 31 30 31h5q72 0 110.5 53.5t38.5 140.5v258q0 50 -3.5 83t-14.5 70
t-37 58t-66 25q-24 2 -24 27v69q0 21 30 27q131 21 241.5 66t162.5 83q8 4 10 4h4q4 0 4 -2z" />
    <glyph glyph-name="uni0156" unicode="&#x156;" horiz-adv-x="1634" 
d="M1587 123q31 0 31 -31v-61q0 -31 -31 -31h-629q-30 0 -30 31v61q0 31 30 31h13q49 3 74.5 30t25.5 70q0 45 -27 94l-186 349q-72 -7 -133 -7h-154v-342q0 -186 138 -194h12q31 0 31 -31v-61q0 -31 -31 -31h-629q-31 0 -31 31v61q0 31 31 31h14q138 8 138 194v902
q0 194 -148 194h-2q-31 0 -31 31v61q0 31 31 31h752q121 0 225 -35t173.5 -94t109 -137.5t39.5 -165.5q0 -112 -59.5 -208.5t-184.5 -156.5l223 -422q21 -39 31.5 -57.5t31.5 -49t39 -45.5t45 -27.5t58 -14.5h10zM690 805q199 0 297 78t98 221q0 142 -88 225.5t-241 83.5
h-185v-608h119zM999 -195q43 -43 43 -112q0 -28 -6 -62q-16 -74 -91.5 -167.5t-149.5 -153.5t-99 -60q-14 0 -82 31q73 56 117.5 123t44.5 117q0 32 -16 45l-80 80q-39 39 -39 80q0 43 39 79l80 80q39 39 80 39t80 -39z" />
    <glyph glyph-name="uni0157" unicode="&#x157;" horiz-adv-x="1085" 
d="M473 809q54 116 151.5 179t209.5 63q100 0 165.5 -55.5t65.5 -155.5q0 -55 -10 -86t-43 -45l-193 -78q-6 -4 -18 -4q-19 0 -19 18q0 7 4 19q19 46 19 102q0 53 -26 79.5t-70 26.5q-65 0 -122.5 -56t-82.5 -122v-377q0 -87 38.5 -140.5t110.5 -53.5h4q31 0 31 -31v-61
q0 -31 -31 -31h-596q-30 0 -30 31v61q0 31 30 31h5q72 0 110.5 53.5t38.5 140.5v258q0 50 -3.5 83t-14.5 70t-37 58t-66 25q-24 2 -24 27v69q0 21 30 27q131 21 241.5 66t162.5 83q8 4 10 4h4q4 0 4 -2zM512 -195q43 -43 43 -112q0 -28 -6 -62q-16 -74 -91.5 -167.5
t-149.5 -153.5t-99 -60q-14 0 -82 31q73 56 117.5 123t44.5 117q0 31 -17 45l-79 80q-39 39 -39 80q0 43 39 79l79 80q36 39 80 39q41 0 80 -39z" />
    <glyph glyph-name="Rcaron" unicode="&#x158;" horiz-adv-x="1634" 
d="M342 1868q-24 10 -27 37q-2 12 -2 39q0 62 27 102.5t78 40.5q90 0 165.5 -70.5t127.5 -171.5q52 101 128.5 171.5t166.5 70.5q51 0 77.5 -40t26.5 -103q0 -6 -1 -19.5t-1 -19.5q-6 -28 -27 -37q-105 -40 -177 -82t-193 -137q-120 95 -192 137t-177 82zM1587 123
q31 0 31 -31v-61q0 -31 -31 -31h-629q-30 0 -30 31v61q0 31 30 31h13q49 3 74.5 30t25.5 70q0 45 -27 94l-186 349q-72 -7 -133 -7h-154v-342q0 -186 138 -194h12q31 0 31 -31v-61q0 -31 -31 -31h-629q-31 0 -31 31v61q0 31 31 31h14q138 8 138 194v902q0 194 -148 194h-2
q-31 0 -31 31v61q0 31 31 31h752q121 0 225 -35t173.5 -94t109 -137.5t39.5 -165.5q0 -112 -59.5 -208.5t-184.5 -156.5l223 -422q21 -39 31.5 -57.5t31.5 -49t39 -45.5t45 -27.5t58 -14.5h10zM690 805q199 0 297 78t98 221q0 142 -88 225.5t-241 83.5h-185v-608h119z" />
    <glyph glyph-name="rcaron" unicode="&#x159;" horiz-adv-x="1085" 
d="M242 1356q-22 11 -25 37q-4 24 -4 39q0 62 27 102.5t77 40.5q91 0 167 -70.5t128 -171.5q52 101 128.5 171.5t166.5 70.5q51 0 78 -40.5t27 -102.5q0 -15 -4 -39q-3 -27 -25 -37q-106 -40 -178.5 -82t-192.5 -137q-121 95 -193 137t-177 82zM473 809q54 116 151.5 179
t209.5 63q100 0 165.5 -55.5t65.5 -155.5q0 -55 -10 -86t-43 -45l-193 -78q-6 -4 -18 -4q-19 0 -19 18q0 7 4 19q19 46 19 102q0 53 -26 79.5t-70 26.5q-65 0 -122.5 -56t-82.5 -122v-377q0 -87 38.5 -140.5t110.5 -53.5h4q31 0 31 -31v-61q0 -31 -31 -31h-596q-30 0 -30 31
v61q0 31 30 31h5q72 0 110.5 53.5t38.5 140.5v258q0 50 -3.5 83t-14.5 70t-37 58t-66 25q-24 2 -24 27v69q0 21 30 27q131 21 241.5 66t162.5 83q8 4 10 4h4q4 0 4 -2z" />
    <glyph glyph-name="Sacute" unicode="&#x15a;" horiz-adv-x="1480" 
d="M614 1696q95 123 137.5 195t79.5 173q10 24 37 27q14 2 39 2q63 0 103.5 -26.5t40.5 -77.5q0 -59 -33.5 -115t-86 -98t-106 -71.5t-104.5 -47.5q-4 -2 -14 -2q-7 0 -19 4zM1268 1051q-18 -7 -25 -7q-19 0 -35 23q-124 154 -255.5 229.5t-243.5 75.5q-42 0 -78 -8
t-69.5 -26t-53 -54.5t-19.5 -87.5q0 -45 27 -84t76 -67.5t100.5 -49t118.5 -39.5q57 -17 94.5 -28.5t91.5 -29.5t90.5 -33.5t83 -36.5t78 -43t66.5 -49t57 -57t41 -64.5t28 -75.5t9 -86q0 -207 -159.5 -338t-436.5 -131q-184 0 -334 75q-18 7 -26 7q-12 0 -16.5 -11.5
t1.5 -31.5q4 -10 4 -25q0 -26 -32 -23h-103q-36 0 -51 29l-248 465q-8 11 -8 25q0 21 22 34l91 52q11 8 24 8q19 0 35 -25q135 -207 303 -311.5t350 -104.5q130 0 203.5 59t73.5 154q0 31 -6.5 58t-17 48.5t-29.5 40.5t-37 33t-46.5 28t-51 23.5t-58 21t-61 18.5t-64.5 18
t-65 19q-136 40 -237 90t-158.5 98.5t-91.5 105t-45 103t-11 100.5q0 171 140 271t378 100q100 0 198.5 -31.5t151.5 -62.5l12 -4q12 0 12.5 15.5t-4.5 38t-5 26.5q0 30 36 30h74q37 0 51 -35l144 -366q8 -20 8 -29q0 -17 -23 -31z" />
    <glyph glyph-name="sacute" unicode="&#x15b;" horiz-adv-x="1110" 
d="M422 1184q95 122 137.5 194t81.5 174q7 24 35 27q14 2 39 2q64 0 103.5 -26t39.5 -78q0 -59 -33.5 -115t-86 -98t-106 -71.5t-104.5 -47.5q-4 -2 -14 -2q-6 0 -18 4zM922 705q-8 -5 -17 -5q-14 0 -26 15q-85 108 -184.5 159.5t-182.5 51.5q-61 0 -102 -25.5t-41 -79.5
q0 -32 18.5 -57.5t55.5 -43.5t70.5 -29.5t84.5 -24.5q178 -44 255 -79q206 -95 206 -278q0 -147 -117 -240.5t-313 -93.5q-130 0 -238 54q-12 6 -18 6q-9 0 -12 -8.5t1 -22.5q5 -15 5 -16q0 -20 -25 -17h-74q-23 0 -35 21l-176 330q-6 9 -6 18q0 15 17 25l63 36q15 5 19 5
q12 0 22 -17q183 -276 465 -276q197 0 197 116q0 17 -5.5 32.5t-18.5 29t-25.5 24.5t-35.5 21.5t-39 18t-45.5 17t-45.5 14.5t-48.5 14.5t-46.5 13.5q-98 29 -169.5 62.5t-113.5 66.5t-67 72t-33 74t-8 79q0 125 95.5 203t254.5 78q83 0 157 -21.5t116 -44.5q4 -4 8 -4
q17 0 2 43q0 3 -1 7.5t-1 6.5q0 21 27 21h53q26 0 35 -23l102 -260q6 -12 6 -20q0 -15 -16 -23z" />
    <glyph glyph-name="Scedilla" unicode="&#x15e;" horiz-adv-x="1480" 
d="M1268 1051q-18 -7 -25 -7q-19 0 -35 23q-124 154 -255.5 229.5t-243.5 75.5q-42 0 -78 -8t-69.5 -26t-53 -54.5t-19.5 -87.5q0 -45 27 -84t76 -67.5t100.5 -49t118.5 -39.5q57 -17 94.5 -28.5t91.5 -29.5t90.5 -33.5t83 -36.5t78 -43t66.5 -49t57 -57t41 -64.5t28 -75.5
t9 -86q0 -197 -145 -326t-398 -141l-90 -109q49 17 94 17q92 0 162 -53t70 -154q0 -92 -73.5 -151.5t-192.5 -59.5q-102 0 -205 43q-41 17 -41 116q0 29 33 19q97 -33 174 -33q98 0 98 66q0 51 -43 76.5t-117 25.5q-20 0 -58.5 -6t-55.5 -6q-21 0 -21 16q0 10 6 19l107 178
q-126 15 -234 69q-18 7 -26 7q-12 0 -16.5 -11.5t1.5 -31.5q4 -10 4 -25q0 -26 -32 -23h-103q-36 0 -51 29l-248 465q-8 11 -8 25q0 21 22 34l91 52q11 8 24 8q19 0 35 -25q135 -207 303 -311.5t350 -104.5q130 0 203.5 59t73.5 154q0 31 -6.5 58t-17 48.5t-29.5 40.5
t-37 33t-46.5 28t-51 23.5t-58 21t-61 18.5t-64.5 18t-65 19q-136 40 -237 90t-158.5 98.5t-91.5 105t-45 103t-11 100.5q0 171 140 271t378 100q100 0 198.5 -31.5t151.5 -62.5l12 -4q23 0 5 61q-2 6 -2 19q0 30 36 30h74q37 0 51 -35l144 -366q8 -20 8 -29q0 -17 -23 -31z
" />
    <glyph glyph-name="scedilla" unicode="&#x15f;" horiz-adv-x="1110" 
d="M922 705q-8 -5 -17 -5q-14 0 -26 15q-85 108 -184.5 159.5t-182.5 51.5q-61 0 -102 -25.5t-41 -79.5q0 -32 18.5 -57.5t55.5 -43.5t70.5 -29.5t84.5 -24.5q178 -44 255 -79q206 -95 206 -278q0 -144 -113.5 -237.5t-306.5 -94.5l-82 -102q43 16 92 16q93 0 162.5 -52.5
t69.5 -153.5q0 -92 -74 -151.5t-193 -59.5q-99 0 -202 43q-43 17 -43 116q0 13 9.5 18.5t24.5 0.5q97 -33 172 -33q99 0 99 66q0 51 -42.5 76.5t-115.5 25.5q-21 0 -60 -6t-57 -6t-18 18q0 5 4 17l109 182q-48 14 -103 37q-12 6 -18 6q-9 0 -12 -8.5t1 -22.5q5 -15 5 -16
q0 -20 -25 -17h-74q-23 0 -35 21l-176 330q-6 9 -6 18q0 15 17 25l63 36q15 5 19 5q12 0 22 -17q183 -276 465 -276q197 0 197 116q0 17 -5.5 32.5t-18.5 29t-25.5 24.5t-35.5 21.5t-39 18t-45.5 17t-45.5 14.5t-48.5 14.5t-46.5 13.5q-98 29 -169.5 62.5t-113.5 66.5
t-67 72t-33 74t-8 79q0 125 95.5 203t254.5 78q83 0 157 -21.5t116 -44.5q4 -4 8 -4q17 0 2 43q0 3 -1 7.5t-1 6.5q0 21 27 21h53q26 0 35 -23l102 -260q6 -12 6 -20q0 -15 -16 -23z" />
    <glyph glyph-name="Scaron" unicode="&#x160;" horiz-adv-x="1480" 
d="M397 1868q-21 9 -24 37q-4 24 -4 39q0 63 26.5 103t77.5 40q90 0 166.5 -70.5t128.5 -171.5q52 101 128 171.5t167 70.5q50 0 77 -40.5t27 -102.5q0 -15 -4 -39q-3 -26 -24 -37q-106 -40 -178.5 -82t-192.5 -137q-120 95 -192.5 137t-178.5 82zM1268 1051q-18 -7 -25 -7
q-19 0 -35 23q-124 154 -255.5 229.5t-243.5 75.5q-42 0 -78 -8t-69.5 -26t-53 -54.5t-19.5 -87.5q0 -45 27 -84t76 -67.5t100.5 -49t118.5 -39.5q57 -17 94.5 -28.5t91.5 -29.5t90.5 -33.5t83 -36.5t78 -43t66.5 -49t57 -57t41 -64.5t28 -75.5t9 -86q0 -207 -159.5 -338
t-436.5 -131q-184 0 -334 75q-18 7 -26 7q-12 0 -16.5 -11.5t1.5 -31.5q4 -10 4 -25q0 -26 -32 -23h-103q-36 0 -51 29l-248 465q-8 11 -8 25q0 21 22 34l91 52q11 8 24 8q19 0 35 -25q135 -207 303 -311.5t350 -104.5q130 0 203.5 59t73.5 154q0 31 -6.5 58t-17 48.5
t-29.5 40.5t-37 33t-46.5 28t-51 23.5t-58 21t-61 18.5t-64.5 18t-65 19q-136 40 -237 90t-158.5 98.5t-91.5 105t-45 103t-11 100.5q0 171 140 271t378 100q100 0 198.5 -31.5t151.5 -62.5l12 -4q23 0 5 61q-2 6 -2 19q0 30 36 30h74q37 0 51 -35l144 -366q8 -20 8 -29
q0 -17 -23 -31z" />
    <glyph glyph-name="scaron" unicode="&#x161;" horiz-adv-x="1110" 
d="M205 1356q-22 11 -25 37q-4 24 -4 39q0 62 27 102.5t78 40.5q90 0 166 -70.5t128 -171.5q52 101 128.5 171.5t166.5 70.5q51 0 78 -40.5t27 -102.5q0 -15 -4 -39q-3 -26 -25 -37q-106 -40 -178.5 -82t-192.5 -137q-121 95 -193 137t-177 82zM922 705q-8 -5 -17 -5
q-14 0 -26 15q-85 108 -184.5 159.5t-182.5 51.5q-61 0 -102 -25.5t-41 -79.5q0 -32 18.5 -57.5t55.5 -43.5t70.5 -29.5t84.5 -24.5q178 -44 255 -79q206 -95 206 -278q0 -147 -117 -240.5t-313 -93.5q-130 0 -238 54q-12 6 -18 6q-9 0 -12 -8.5t1 -22.5q5 -15 5 -16
q0 -20 -25 -17h-74q-23 0 -35 21l-176 330q-6 9 -6 18q0 15 17 25l63 36q15 5 19 5q12 0 22 -17q183 -276 465 -276q197 0 197 116q0 17 -5.5 32.5t-18.5 29t-25.5 24.5t-35.5 21.5t-39 18t-45.5 17t-45.5 14.5t-48.5 14.5t-46.5 13.5q-98 29 -169.5 62.5t-113.5 66.5
t-67 72t-33 74t-8 79q0 125 95.5 203t254.5 78q83 0 157 -21.5t116 -44.5q4 -4 8 -4q17 0 2 43q0 3 -1 7.5t-1 6.5q0 21 27 21h53q26 0 35 -23l102 -260q6 -12 6 -20q0 -15 -16 -23z" />
    <glyph glyph-name="uni0162" unicode="&#x162;" horiz-adv-x="1613" 
d="M1577 1247q6 -9 6 -18q0 -16 -18 -25l-86 -47q-12 -4 -17 -4q-13 0 -26 16l-6 13q-112 188 -367 188h-107v-1053q0 -186 140 -194h14q31 0 31 -31v-61q0 -31 -31 -31h-221l-101 -123q46 17 93 17q93 0 162 -53t69 -154q0 -92 -73.5 -151.5t-192.5 -59.5q-100 0 -205 43
q-41 17 -41 116q0 13 9.5 18.5t23.5 0.5q101 -33 174 -33q98 0 98 66q0 51 -42 76.5t-115 25.5q-21 0 -60 -6t-57 -6q-21 0 -21 16q0 10 6 19l113 188h-250q-30 0 -30 31v61q0 31 30 31h13q139 8 139 194v1053h-101q-256 0 -368 -188l-6 -13q-10 -16 -25 -16q-6 0 -18 4
l-86 47q-17 10 -17 25q0 9 6 18l162 299q10 19 27 19q10 0 16 -9l12 -10q12 -10 39 -10h1047q29 0 41 10l10 10q9 9 19 9q15 0 24 -19z" />
    <glyph glyph-name="uni0163" unicode="&#x163;" horiz-adv-x="839" 
d="M813 147q6 -9 6 -18q0 -13 -16 -23l-62 -38q-126 -78 -241 -91l-84 -100q49 17 94 17q92 0 161.5 -53t69.5 -154q0 -92 -73.5 -151.5t-192.5 -59.5q-102 0 -205 43q-41 17 -41 116q0 29 33 19q101 -33 174 -33q99 0 99 66q0 51 -42.5 76.5t-115.5 25.5q-21 0 -60.5 -6
t-56.5 -6q-20 0 -20 16q0 10 6 19l108 182q-137 60 -137 295v379q0 31 -0.5 48.5t-3.5 45.5t-8.5 45t-16.5 37t-26.5 31t-39 18.5t-54.5 7.5t-31 31v61q0 31 31 31h149v137q0 26 19 37q153 85 249 170q8 4 11 4h2q6 0 6 -4v-344h274q31 0 31 -31v-88q0 -31 -31 -31h-274
v-585q0 -139 86 -139q51 0 145 59h2q9 6 19 6q13 0 24 -14z" />
    <glyph glyph-name="Tcaron" unicode="&#x164;" horiz-adv-x="1613" 
d="M426 1868q-21 9 -27 37q0 6 -1 19.5t-1 19.5q0 62 27 102.5t78 40.5q90 0 166.5 -70.5t128.5 -171.5q52 101 128 171.5t167 70.5q50 0 76 -40.5t26 -102.5q0 -27 -2 -39q-3 -27 -27 -37q-104 -40 -176 -82t-192 -137q-120 95 -192.5 137t-178.5 82zM1577 1247q6 -9 6 -18
q0 -16 -18 -25l-86 -47q-12 -4 -17 -4q-13 0 -26 16l-6 13q-112 188 -367 188h-107v-1053q0 -186 140 -194h14q31 0 31 -31v-61q0 -31 -31 -31h-631q-30 0 -30 31v61q0 31 30 31h13q139 8 139 194v1053h-101q-256 0 -368 -188l-6 -13q-10 -16 -25 -16q-6 0 -18 4l-86 47
q-17 10 -17 25q0 9 6 18l162 299q10 19 27 19q10 0 16 -9l12 -10q12 -10 39 -10h1047q29 0 41 10l10 10q9 9 19 9q15 0 24 -19z" />
    <glyph glyph-name="tcaron" unicode="&#x165;" horiz-adv-x="839" 
d="M950 1683q43 -43 43 -112q0 -27 -6 -62q-15 -74 -90.5 -167.5t-150 -153.5t-99.5 -60q-15 0 -80 31q72 57 117 123.5t45 116.5q0 30 -18 45l-80 80q-39 42 -39 80q0 40 39 79l80 80q39 39 80 39q40 0 79 -39zM813 147q6 -9 6 -18q0 -12 -16 -25l-62 -36
q-150 -95 -288 -95q-105 0 -170.5 73.5t-65.5 242.5v379q0 31 -0.5 48.5t-3.5 45.5t-8.5 45t-16.5 37t-26.5 31t-39 18.5t-54.5 7.5t-31 31v61q0 31 31 31h149v137q0 26 19 37q151 85 249 168q6 6 11 6h2q6 0 6 -4v-344h274q31 0 31 -31v-88q0 -31 -31 -31h-274v-585
q0 -139 86 -139q51 0 145 59h2q9 6 19 6q13 0 24 -14z" />
    <glyph glyph-name="Tbar" unicode="&#x166;" horiz-adv-x="1613" 
d="M524 1761q-30 0 -30 31v123q0 31 30 31h547q31 0 31 -31v-123q0 -31 -31 -31h-547zM1577 1247q6 -9 6 -18q0 -16 -18 -25l-86 -47q-12 -4 -17 -4q-13 0 -26 16l-6 13q-112 188 -367 188h-107v-1053q0 -186 140 -194h14q31 0 31 -31v-61q0 -31 -31 -31h-631q-30 0 -30 31
v61q0 31 30 31h13q139 8 139 194v1053h-101q-256 0 -368 -188l-6 -13q-10 -16 -25 -16q-6 0 -18 4l-86 47q-17 10 -17 25q0 9 6 18l162 299q10 19 27 19q10 0 16 -9l12 -10q12 -10 39 -10h1047q29 0 41 10l10 10q9 9 19 9q15 0 24 -19z" />
    <glyph glyph-name="tbar" unicode="&#x167;" horiz-adv-x="839" 
d="M813 147q6 -9 6 -18q0 -13 -16 -23l-62 -38q-150 -95 -288 -95q-105 0 -170.5 73.5t-65.5 242.5v184h-80q-31 0 -31 31v123q0 30 31 30h80v11q0 31 -0.5 48.5t-3.5 45.5t-8.5 45t-16.5 37t-26.5 31t-39 18.5t-54.5 7.5t-31 31v61q0 31 31 31h149v137q0 26 19 37
q153 85 249 170q8 4 11 4h2q6 0 6 -4v-344h274q31 0 31 -31v-88q0 -31 -31 -31h-274v-217h180q31 0 31 -30v-123q0 -31 -31 -31h-180v-184q0 -139 86 -139q51 0 145 59h2q9 6 19 6q13 0 24 -14z" />
    <glyph glyph-name="Umacron" unicode="&#x16a;" horiz-adv-x="1654" 
d="M621 1761q-31 0 -31 31v123q0 31 31 31h546q31 0 31 -31v-123q0 -31 -31 -31h-546zM1604 1536q30 0 30 -31v-61q0 -31 -30 -31h-15q-137 -8 -137 -194v-656q0 -590 -586 -590q-303 0 -468 150.5t-165 419.5v676q0 186 -137 194h-14q-31 0 -31 31v61q0 31 31 31h629
q30 0 30 -31v-61q0 -31 -30 -31h-13q-137 -8 -137 -194v-635q0 -76 7 -133.5t30 -116t61.5 -96t106 -61t160.5 -23.5q86 0 149 31.5t99.5 91t53.5 135.5t17 172v635q0 186 -137 194h-12q-31 0 -31 31v61q0 31 31 31h508z" />
    <glyph glyph-name="umacron" unicode="&#x16b;" horiz-adv-x="1349" 
d="M414 1249q-31 0 -31 31v123q0 31 31 31h547q30 0 30 -31v-123q0 -31 -30 -31h-547zM1184 414q0 -50 3.5 -83t14.5 -70t37 -58t66 -25q25 -3 22 -26v-68q0 -29 -29 -29q-94 0 -169 -12.5t-111 -25.5t-96 -40q-8 -4 -17 -4h-6q-2 0 -2 7l33 258q-23 -47 -56.5 -90.5
t-79 -84.5t-107 -65.5t-128.5 -24.5q-85 0 -148.5 23t-101 59t-60 90t-30.5 106.5t-8 117.5v338q0 86 -39.5 140t-112.5 54h-8q-31 0 -31 31v61q0 31 31 31h416q31 0 31 -31v-596v-17v-47t3 -44t8 -43.5t16 -35.5t26 -30.5t39 -18t55 -7.5q74 0 148.5 53.5t101.5 120.5v379
q0 86 -39.5 140t-110.5 54h-4q-30 0 -30 31v61q0 31 30 31h412q31 0 31 -31v-579z" />
    <glyph glyph-name="Uring" unicode="&#x16e;" horiz-adv-x="1654" 
d="M895 1505q-114 0 -198.5 76.5t-84.5 179.5t84.5 179.5t198.5 76.5t197.5 -76.5t83.5 -179.5t-83.5 -179.5t-197.5 -76.5zM895 1874q-52 0 -88.5 -33t-36.5 -80t36 -79.5t89 -32.5q51 0 87 32.5t36 79.5t-36 80t-87 33zM1604 1536q30 0 30 -31v-61q0 -31 -30 -31h-15
q-137 -8 -137 -194v-656q0 -590 -586 -590q-303 0 -468 150.5t-165 419.5v676q0 186 -137 194h-14q-31 0 -31 31v61q0 31 31 31h629q30 0 30 -31v-61q0 -31 -30 -31h-13q-137 -8 -137 -194v-635q0 -76 7 -133.5t30 -116t61.5 -96t106 -61t160.5 -23.5q86 0 149 31.5t99.5 91
t53.5 135.5t17 172v635q0 186 -137 194h-12q-31 0 -31 31v61q0 31 31 31h508z" />
    <glyph glyph-name="uring" unicode="&#x16f;" horiz-adv-x="1349" 
d="M614 1061q-114 0 -198 76.5t-84 179.5t84 179.5t198 76.5t197.5 -76.5t83.5 -179.5t-83.5 -179.5t-197.5 -76.5zM614 1430q-52 0 -88.5 -33t-36.5 -80q0 -46 36.5 -79.5t88.5 -33.5q51 0 87 33.5t36 79.5q0 47 -36 80t-87 33zM1184 414q0 -50 3.5 -83t14.5 -70t37 -58
t66 -25q25 -3 22 -26v-68q0 -29 -29 -29q-94 0 -169 -12.5t-111 -25.5t-96 -40q-8 -4 -17 -4h-6q-2 0 -2 7l33 258q-23 -47 -56.5 -90.5t-79 -84.5t-107 -65.5t-128.5 -24.5q-85 0 -148.5 23t-101 59t-60 90t-30.5 106.5t-8 117.5v338q0 86 -39.5 140t-112.5 54h-8
q-31 0 -31 31v61q0 31 31 31h416q31 0 31 -31v-596v-17v-47t3 -44t8 -43.5t16 -35.5t26 -30.5t39 -18t55 -7.5q74 0 148.5 53.5t101.5 120.5v379q0 86 -39.5 140t-110.5 54h-4q-30 0 -30 31v61q0 31 30 31h412q31 0 31 -31v-579z" />
    <glyph glyph-name="Uhungarumlaut" unicode="&#x170;" horiz-adv-x="1654" 
d="M643 1683q23 77 23 211q0 85 -11 158v6q0 18 21 33q67 51 131 51q36 0 59 -21.5t23 -64.5q0 -74 -39.5 -185t-93.5 -169q-9 -11 -31 -14zM1014 1683q22 86 22 211q0 92 -10 158v6q0 20 18 33q67 51 134 51q36 0 57.5 -21t21.5 -65q0 -75 -38.5 -185.5t-92.5 -168.5
q-8 -10 -30 -14zM1604 1536q30 0 30 -31v-61q0 -31 -30 -31h-15q-137 -8 -137 -194v-656q0 -590 -586 -590q-303 0 -468 150.5t-165 419.5v676q0 186 -137 194h-14q-31 0 -31 31v61q0 31 31 31h629q30 0 30 -31v-61q0 -31 -30 -31h-13q-137 -8 -137 -194v-635
q0 -76 7 -133.5t30 -116t61.5 -96t106 -61t160.5 -23.5q86 0 149 31.5t99.5 91t53.5 135.5t17 172v635q0 186 -137 194h-12q-31 0 -31 31v61q0 31 31 31h508z" />
    <glyph glyph-name="uhungarumlaut" unicode="&#x171;" horiz-adv-x="1349" 
d="M436 1171q25 84 25 211q0 70 -10 158l-2 6q0 19 20 33q67 51 133 51q36 0 58 -21t22 -65q0 -74 -39 -184.5t-92 -169.5q-11 -11 -31 -14zM807 1171q24 81 24 211q0 78 -12 158v6q0 18 21 33q67 51 131 51q36 0 59 -21.5t23 -64.5q0 -74 -39.5 -185t-93.5 -169
q-9 -11 -31 -14zM1184 414q0 -50 3.5 -83t14.5 -70t37 -58t66 -25q25 -3 22 -26v-68q0 -29 -29 -29q-94 0 -169 -12.5t-111 -25.5t-96 -40q-8 -4 -17 -4h-6q-2 0 -2 7l33 258q-23 -47 -56.5 -90.5t-79 -84.5t-107 -65.5t-128.5 -24.5q-85 0 -148.5 23t-101 59t-60 90
t-30.5 106.5t-8 117.5v338q0 86 -39.5 140t-112.5 54h-8q-31 0 -31 31v61q0 31 31 31h416q31 0 31 -31v-596v-17v-47t3 -44t8 -43.5t16 -35.5t26 -30.5t39 -18t55 -7.5q74 0 148.5 53.5t101.5 120.5v379q0 86 -39.5 140t-110.5 54h-4q-30 0 -30 31v61q0 31 30 31h412
q31 0 31 -31v-579z" />
    <glyph glyph-name="Uogonek" unicode="&#x172;" horiz-adv-x="1654" 
d="M1604 1536q30 0 30 -31v-61q0 -31 -30 -31h-15q-137 -8 -137 -194v-656q0 -475 -381 -567q-65 -55 -65 -135q0 -74 43 -121t118 -47q45 0 110.5 26.5t70.5 26.5q18 0 18 -25l4 -81q0 -21 -18 -33q-112 -72 -226 -72q-80 0 -144 29.5t-101.5 75.5t-57.5 97.5t-20 100.5
q0 74 33 135q-289 7 -446 157.5t-157 412.5v676q0 186 -137 194h-14q-31 0 -31 31v61q0 31 31 31h629q30 0 30 -31v-61q0 -31 -30 -31h-13q-137 -8 -137 -194v-635q0 -76 7 -133.5t30 -116t61.5 -96t106 -61t160.5 -23.5q86 0 149 31.5t99.5 91t53.5 135.5t17 172v635
q0 186 -137 194h-12q-31 0 -31 31v61q0 31 31 31h508z" />
    <glyph glyph-name="uogonek" unicode="&#x173;" horiz-adv-x="1349" 
d="M1327 84q0 -29 -29 -29h-69l-8 -2q-84 -13 -141.5 -65t-57.5 -127q0 -74 44 -121t120 -47q44 0 109.5 26.5t68.5 26.5q18 0 18 -25l4 -81q0 -23 -18 -33q-112 -72 -225 -72q-80 0 -144.5 29.5t-102 75.5t-57.5 97.5t-20 100.5q0 121 86 203l25 197q-23 -47 -56.5 -90.5
t-79 -84.5t-107 -65.5t-128.5 -24.5q-85 0 -148.5 23t-101 59t-60 90t-30.5 106.5t-8 117.5v338q0 86 -39.5 140t-112.5 54h-8q-31 0 -31 31v61q0 31 31 31h416q31 0 31 -31v-596v-17v-47t3 -44t8 -43.5t16 -35.5t26 -30.5t39 -18t55 -7.5q74 0 148.5 53.5t101.5 120.5v379
q0 86 -39.5 140t-110.5 54h-4q-30 0 -30 31v61q0 31 30 31h412q31 0 31 -31v-579q0 -50 3.5 -83t14.5 -70t37 -58t66 -25q25 -3 22 -26v-68z" />
    <glyph glyph-name="Wcircumflex" unicode="&#x174;" horiz-adv-x="2471" 
d="M932 1649q-51 0 -78 40.5t-27 102.5q0 15 4 39q3 27 25 37q106 40 178.5 82t192.5 137q121 -95 193 -137t177 -82q22 -11 25 -37q4 -24 4 -39q0 -63 -26.5 -103t-77.5 -40q-91 0 -167 70t-128 171q-51 -100 -128 -170.5t-167 -70.5zM2431 1542q31 0 31 -31v-61
q0 -31 -31 -31q-26 0 -47 -11.5t-33.5 -24.5t-28 -46t-21.5 -50.5t-22 -63.5l-421 -1198q-9 -25 -35 -25h-246q-26 0 -35 25l-303 823l-289 -823q-9 -25 -35 -25h-247q-26 0 -35 25l-440 1198q-40 109 -59 139q-36 57 -93 57q-31 0 -31 31v61q0 31 31 31h629q13 0 21.5 -8.5
t8.5 -22.5v-61q0 -31 -30 -31q-65 0 -112.5 -41t-47.5 -102q0 -23 10 -53l336 -934l279 841l-35 93q-40 109 -59 139q-36 57 -91 57q-30 0 -30 31v61q0 31 30 31h627q31 0 31 -31v-61q0 -31 -31 -31h-53q-41 0 -76 -32.5t-35 -88.5q0 -33 12 -63l338 -946l310 934q8 24 8 51
q0 62 -47 103.5t-111 41.5q-31 0 -31 31v61q0 31 31 31h508z" />
    <glyph glyph-name="wcircumflex" unicode="&#x175;" horiz-adv-x="1908" 
d="M659 1137q-51 0 -77.5 40t-26.5 103q0 15 4 39q3 26 25 37q105 40 177 82t193 137q120 -95 192.5 -137t178.5 -82q22 -11 25 -37q4 -24 4 -39q0 -62 -27 -102.5t-78 -40.5q-90 0 -167 70.5t-128 170.5q-51 -100 -128 -170.5t-167 -70.5zM1866 1024q30 0 30 -31v-61
q0 -14 -8.5 -22.5t-21.5 -8.5h-31q-33 0 -59 -26.5t-60 -100.5l-325 -751q-9 -23 -35 -23h-109q-24 0 -37 23l-270 626l-270 -626q-9 -23 -35 -23h-109q-24 0 -37 23l-323 749q-33 77 -56.5 103t-62.5 26h-4q-31 0 -31 31v61q0 31 31 31h473q31 0 31 -31v-61q0 -31 -31 -31
h-4q-70 0 -70 -59q0 -47 43 -135l164 -383l176 436q27 64 27 98q0 43 -43 43h-45q-27 3 -27 31v61q0 31 29 31h491q31 0 31 -31v-61q0 -31 -31 -31h-24q-70 0 -70 -59q0 -44 41 -135l166 -383l176 436q27 64 27 98q0 43 -43 43h-41q-31 0 -31 31v61q0 31 31 31h377z" />
    <glyph glyph-name="Ycircumflex" unicode="&#x176;" horiz-adv-x="1626" 
d="M631 1649q-51 0 -78 40.5t-27 102.5q0 27 2 39q3 27 27 37q105 40 177 82t192 137q119 -94 192 -136.5t178 -82.5q24 -10 27 -37q2 -12 2 -39q0 -63 -26.5 -103t-77.5 -40q-90 0 -167 70.5t-128 170.5q-49 -100 -126 -170.5t-167 -70.5zM1575 1542q31 0 31 -31v-61
q0 -31 -31 -31q-140 0 -256 -196l-315 -541q-11 -16 -11 -39v-326q0 -186 137 -194h15q31 0 31 -31v-61q0 -31 -31 -31h-631q-31 0 -31 31v61q0 31 31 31h12q140 8 140 194v316q0 17 -13 37l-368 553q-73 109 -122.5 152.5t-111.5 43.5q-31 0 -31 31v61q0 31 31 31h711
q14 0 22.5 -9t8.5 -22v-61q0 -31 -31 -31q-62 0 -103 -23.5t-41 -72.5q0 -43 35 -100l240 -389l221 389q45 80 45 129q0 67 -94 67q-31 0 -31 31v61q0 13 9 22t22 9h510z" />
    <glyph glyph-name="ycircumflex" unicode="&#x177;" horiz-adv-x="1183" 
d="M309 1137q-51 0 -77.5 40t-26.5 103q0 6 1 19.5t1 19.5q6 28 26 37q106 40 178.5 82t192.5 137q120 -95 192 -137t177 -82q23 -10 26 -37q2 -12 2 -39q0 -62 -26 -102.5t-76 -40.5q-91 0 -167 70t-128 171q-51 -100 -128 -170.5t-167 -70.5zM1141 1024q30 0 30 -31v-61
q0 -31 -30 -31h-29q-33 0 -59 -26.5t-60 -100.5l-594 -1196q-13 -26 -41 -14l-104 53q-29 13 -16 41l229 492l-301 622q-37 79 -59 104t-60 25h-4q-31 0 -31 31v61q0 31 31 31h473q31 0 31 -31v-61q0 -31 -31 -31h-4q-66 0 -66 -53q0 -37 48 -139l137 -299l147 303
q51 100 51 145q0 43 -47 43h-37q-30 0 -30 31v61q0 31 30 31h396z" />
    <glyph glyph-name="Ydieresis" unicode="&#x178;" horiz-adv-x="1626" 
d="M690 1720q-52 0 -104 52q-51 51 -51 102q0 48 51 102q52 52 104 52q51 0 103 -52q51 -54 51 -102q0 -51 -51 -102q-52 -52 -103 -52zM1165 1720q-50 0 -102 52q-51 48 -51 102q0 51 51 102q52 52 102 52q54 0 103 -52q51 -51 51 -102q0 -54 -51 -102q-49 -52 -103 -52z
M1575 1542q31 0 31 -31v-61q0 -31 -31 -31q-140 0 -256 -196l-315 -541q-11 -16 -11 -39v-326q0 -186 137 -194h15q31 0 31 -31v-61q0 -31 -31 -31h-631q-31 0 -31 31v61q0 31 31 31h12q140 8 140 194v316q0 17 -13 37l-368 553q-73 109 -122.5 152.5t-111.5 43.5
q-31 0 -31 31v61q0 31 31 31h711q14 0 22.5 -9t8.5 -22v-61q0 -31 -31 -31q-62 0 -103 -23.5t-41 -72.5q0 -43 35 -100l240 -389l221 389q45 80 45 129q0 67 -94 67q-31 0 -31 31v61q0 13 9 22t22 9h510z" />
    <glyph glyph-name="Zacute" unicode="&#x179;" horiz-adv-x="1525" 
d="M690 1696q95 122 137.5 194t81.5 174q7 24 35 27q14 2 39 2q64 0 103.5 -26t39.5 -78q0 -59 -33.5 -115t-86 -98t-105.5 -71.5t-104 -47.5q-4 -2 -15 -2q-6 0 -18 4zM1470 352q17 -10 17 -24q0 -10 -6 -19l-164 -319q-10 -17 -25 -17q-8 0 -18 7l-10 10q-12 10 -39 10
h-1164q-30 0 -30 31v135l936 1204h-349q-245 0 -366 -211l-8 -10q-10 -19 -25 -19q-7 0 -18 7l-86 47q-17 10 -17 24q0 10 6 19l162 319q14 17 27 17q7 0 18 -7l11 -10q12 -10 38 -10h1082q26 0 26 -18q0 -5 -8 -21l-1009 -1317l276 6q283 4 416 46t190 143l8 12
q10 16 25 16q6 0 18 -4z" />
    <glyph glyph-name="zacute" unicode="&#x17a;" horiz-adv-x="1114" 
d="M485 1184q96 123 138.5 195t81.5 173q7 24 34 27q14 2 39 2q64 0 104 -26t40 -78q0 -59 -33.5 -115t-86 -98t-106 -71.5t-104.5 -47.5q-4 -2 -14 -2q-7 0 -19 4zM1077 303q17 -9 17 -24q0 -7 -4 -19l-160 -270q-10 -17 -25 -17q-5 0 -16 7l-12 10q-10 10 -37 10h-789
q-31 0 -31 31v88q0 11 7 22l645 752l-197 -10q-104 -4 -177 -46t-130 -130l-8 -15q-8 -16 -25 -16q-6 0 -18 4l-70 41q-10 5 -14 16l-2 8q0 7 6 19l168 268q15 19 26 19q8 0 17 -9l8 -8q10 -10 37 -10h758q26 0 26 -18q0 -11 -8 -19l-721 -850l158 4q159 5 234 22
q159 38 227 154l6 11q10 16 24 16q5 0 17 -4z" />
    <glyph glyph-name="Zdotaccent" unicode="&#x17b;" horiz-adv-x="1525" 
d="M844 1720q-51 0 -103 52q-51 48 -51 102q0 51 51 102q52 52 103 52q50 0 102 -52q51 -51 51 -102q0 -54 -51 -102q-52 -52 -102 -52zM1470 352q17 -10 17 -24q0 -10 -6 -19l-164 -319q-10 -17 -25 -17q-8 0 -18 7l-10 10q-12 10 -39 10h-1164q-30 0 -30 31v135l936 1204
h-349q-245 0 -366 -211l-8 -10q-10 -19 -25 -19q-7 0 -18 7l-86 47q-17 10 -17 24q0 10 6 19l162 319q14 17 27 17q7 0 18 -7l11 -10q12 -10 38 -10h1082q26 0 26 -18q0 -5 -8 -21l-1009 -1317l276 6q283 4 416 46t190 143l8 12q10 16 25 16q6 0 18 -4z" />
    <glyph glyph-name="zdotaccent" unicode="&#x17c;" horiz-adv-x="1114" 
d="M639 1208q-50 0 -102 52q-52 49 -52 102q0 50 52 102t102 52t102 -52t52 -102q0 -53 -52 -102q-52 -52 -102 -52zM1077 303q17 -9 17 -24q0 -7 -4 -19l-160 -270q-10 -17 -25 -17q-5 0 -16 7l-12 10q-10 10 -37 10h-789q-31 0 -31 31v88q0 11 7 22l645 752l-197 -10
q-104 -4 -177 -46t-130 -130l-8 -15q-8 -16 -25 -16q-6 0 -18 4l-70 41q-10 5 -14 16l-2 8q0 7 6 19l168 268q15 19 26 19q8 0 17 -9l8 -8q10 -10 37 -10h758q26 0 26 -18q0 -11 -8 -19l-721 -850l158 4q159 5 234 22q159 38 227 154l6 11q10 16 24 16q5 0 17 -4z" />
    <glyph glyph-name="Zcaron" unicode="&#x17d;" horiz-adv-x="1525" 
d="M473 1868q-21 11 -24 37q-5 30 -5 39q0 62 27 102.5t78 40.5q90 0 166.5 -70.5t128.5 -171.5q52 101 128.5 171.5t166.5 70.5q51 0 77.5 -40t26.5 -103q0 -15 -4 -39q-3 -26 -25 -37q-105 -40 -177 -82t-193 -137q-120 95 -192.5 137t-178.5 82zM1470 352q17 -10 17 -24
q0 -10 -6 -19l-164 -319q-10 -17 -25 -17q-8 0 -18 7l-10 10q-12 10 -39 10h-1164q-30 0 -30 31v135l936 1204h-349q-245 0 -366 -211l-8 -10q-10 -19 -25 -19q-7 0 -18 7l-86 47q-17 10 -17 24q0 10 6 19l162 319q14 17 27 17q7 0 18 -7l11 -10q12 -10 38 -10h1082
q26 0 26 -18q0 -5 -8 -21l-1009 -1317l276 6q283 4 416 46t190 143l8 12q10 16 25 16q6 0 18 -4z" />
    <glyph glyph-name="zcaron" unicode="&#x17e;" horiz-adv-x="1114" 
d="M268 1356q-21 11 -24 37q-4 24 -4 39q0 63 26.5 103t77.5 40q90 0 166.5 -70.5t128.5 -171.5q52 101 128.5 171.5t166.5 70.5q51 0 77.5 -40t26.5 -103q0 -15 -4 -39q-3 -26 -24 -37q-106 -40 -178.5 -82t-192.5 -137q-120 95 -192.5 137t-178.5 82zM1077 303
q17 -9 17 -24q0 -7 -4 -19l-160 -270q-10 -17 -25 -17q-5 0 -16 7l-12 10q-10 10 -37 10h-789q-31 0 -31 31v88q0 11 7 22l645 752l-197 -10q-104 -4 -177 -46t-130 -130l-8 -15q-8 -16 -25 -16q-6 0 -18 4l-70 41q-10 5 -14 16l-2 8q0 7 6 19l168 268q15 19 26 19
q8 0 17 -9l8 -8q10 -10 37 -10h758q26 0 26 -18q0 -11 -8 -19l-721 -850l158 4q159 5 234 22q159 38 227 154l6 11q10 16 24 16q5 0 17 -4z" />
    <glyph glyph-name="florin" unicode="&#x192;" horiz-adv-x="1044" 
d="M207 1040q0 79 18.5 161t57.5 161t93.5 140t134 98.5t171.5 37.5q157 0 239.5 -60t82.5 -157q0 -45 -23 -102q-12 -29 -51 -39l-215 -47l-4 -2q-11 0 -14.5 14.5t3.5 28.5q39 69 39 135q0 55 -28 86t-68 31q-50 0 -86 -45q-65 -81 -65 -322v-135h274q31 0 31 -31v-88
q0 -31 -31 -31h-272v-1157q0 -13 -8.5 -21.5t-22.5 -8.5h-227q-31 0 -31 30v951q0 32 -0.5 48.5t-3 45.5t-8 45t-16.5 36.5t-26.5 31.5t-40 18.5t-55.5 7.5q-30 0 -30 31v61q0 31 30 31h154z" />
    <glyph glyph-name="uni0218" unicode="&#x218;" horiz-adv-x="1480" 
d="M1268 1051q-18 -7 -25 -7q-19 0 -35 23q-124 154 -255.5 229.5t-243.5 75.5q-42 0 -78 -8t-69.5 -26t-53 -54.5t-19.5 -87.5q0 -45 27 -84t76 -67.5t100.5 -49t118.5 -39.5q57 -17 94.5 -28.5t91.5 -29.5t90.5 -33.5t83 -36.5t78 -43t66.5 -49t57 -57t41 -64.5t28 -75.5
t9 -86q0 -207 -159.5 -338t-436.5 -131q-184 0 -334 75q-18 7 -26 7q-12 0 -16.5 -11.5t1.5 -31.5q4 -10 4 -25q0 -26 -32 -23h-103q-36 0 -51 29l-248 465q-8 11 -8 25q0 21 22 34l91 52q11 8 24 8q19 0 35 -25q135 -207 303 -311.5t350 -104.5q130 0 203.5 59t73.5 154
q0 31 -6.5 58t-17 48.5t-29.5 40.5t-37 33t-46.5 28t-51 23.5t-58 21t-61 18.5t-64.5 18t-65 19q-136 40 -237 90t-158.5 98.5t-91.5 105t-45 103t-11 100.5q0 171 140 271t378 100q100 0 198.5 -31.5t151.5 -62.5l12 -4q23 0 5 61q-2 6 -2 19q0 30 36 30h74q37 0 51 -35
l144 -366q8 -20 8 -29q0 -17 -23 -31zM983 -195q43 -43 43 -112q0 -28 -6 -62q-16 -74 -91.5 -167.5t-149.5 -153.5t-99 -60q-14 0 -82 31q73 57 118.5 123.5t45.5 116.5q0 29 -19 45l-79 80q-39 39 -39 80q0 43 39 79l79 80q39 39 80 39t80 -39z" />
    <glyph glyph-name="uni0219" unicode="&#x219;" horiz-adv-x="1110" 
d="M922 705q-8 -5 -17 -5q-14 0 -26 15q-85 108 -184.5 159.5t-182.5 51.5q-61 0 -102 -25.5t-41 -79.5q0 -32 18.5 -57.5t55.5 -43.5t70.5 -29.5t84.5 -24.5q178 -44 255 -79q206 -95 206 -278q0 -147 -117 -240.5t-313 -93.5q-130 0 -238 54q-12 6 -18 6q-9 0 -12 -8.5
t1 -22.5q5 -15 5 -16q0 -20 -25 -17h-74q-23 0 -35 21l-176 330q-6 9 -6 18q0 15 17 25l63 36q15 5 19 5q12 0 22 -17q183 -276 465 -276q197 0 197 116q0 17 -5.5 32.5t-18.5 29t-25.5 24.5t-35.5 21.5t-39 18t-45.5 17t-45.5 14.5t-48.5 14.5t-46.5 13.5
q-98 29 -169.5 62.5t-113.5 66.5t-67 72t-33 74t-8 79q0 125 95.5 203t254.5 78q83 0 157 -21.5t116 -44.5q4 -4 8 -4q17 0 2 43q0 3 -1 7.5t-1 6.5q0 21 27 21h53q26 0 35 -23l102 -260q6 -12 6 -20q0 -15 -16 -23zM723 -195q43 -46 43 -114q0 -26 -6 -60
q-16 -74 -91.5 -167.5t-149.5 -153.5t-99 -60q-14 0 -82 31q72 56 117 123t45 115q0 30 -17 47l-80 80q-38 38 -38 80q0 41 38 79l80 80q37 37 80 37q41 0 80 -39z" />
    <glyph glyph-name="uni021A" unicode="&#x21a;" horiz-adv-x="1613" 
d="M1577 1247q6 -9 6 -18q0 -16 -18 -25l-86 -47q-12 -4 -17 -4q-13 0 -26 16l-6 13q-112 188 -367 188h-107v-1053q0 -186 140 -194h14q31 0 31 -31v-61q0 -31 -31 -31h-631q-30 0 -30 31v61q0 31 30 31h13q139 8 139 194v1053h-101q-256 0 -368 -188l-6 -13
q-10 -16 -25 -16q-6 0 -18 4l-86 47q-17 10 -17 25q0 9 6 18l162 299q10 19 27 19q10 0 16 -9l12 -10q12 -10 39 -10h1047q29 0 41 10l10 10q9 9 19 9q15 0 24 -19zM954 -195q43 -43 43 -112q0 -31 -8 -62q-15 -74 -90 -167.5t-149 -153.5t-99 -60q-14 0 -82 31
q73 56 117.5 123t44.5 117q0 29 -16 45l-80 80q-39 39 -39 80q0 43 39 79l80 80q36 39 78 39q43 0 79 -39z" />
    <glyph glyph-name="uni021B" unicode="&#x21b;" horiz-adv-x="839" 
d="M813 147q6 -9 6 -18q0 -13 -16 -23l-62 -38q-150 -95 -288 -95q-105 0 -170.5 73.5t-65.5 242.5v379q0 31 -0.5 48.5t-3.5 45.5t-8.5 45t-16.5 37t-26.5 31t-39 18.5t-54.5 7.5t-31 31v61q0 31 31 31h149v137q0 26 19 37q153 85 249 170q8 4 11 4h2q6 0 6 -4v-344h274
q31 0 31 -31v-88q0 -31 -31 -31h-274v-585q0 -139 86 -139q51 0 145 59h2q9 6 19 6q13 0 24 -14zM582 -195q43 -43 43 -112q0 -22 -7 -62q-12 -57 -60.5 -127.5t-104 -124.5t-106 -91.5t-68.5 -37.5q-12 0 -80 31q72 56 116.5 123t44.5 115q0 29 -18 47l-80 80
q-39 42 -39 80q0 37 39 79l80 80q39 39 80 39q44 0 80 -39z" />
    <glyph glyph-name="circumflex" unicode="&#x2c6;" 
d="M977 1319q0 -6 1 -19.5t1 -19.5q0 -62 -27 -102.5t-78 -40.5q-90 0 -166 70t-128 171q-52 -101 -128 -171t-167 -70q-50 0 -76.5 40.5t-26.5 102.5q0 27 2 39q3 26 25 37q106 40 178.5 82t192.5 137q121 -95 193 -137t177 -82q21 -9 27 -37z" />
    <glyph glyph-name="caron" unicode="&#x2c7;" 
d="M874 1575q51 0 78 -40.5t27 -102.5q0 -6 -1 -19.5t-1 -19.5q-6 -28 -27 -37q-105 -40 -177 -82t-193 -137q-120 95 -192.5 137t-178.5 82q-22 11 -25 37q-2 12 -2 39q0 62 26.5 102.5t76.5 40.5q91 0 167 -70.5t128 -171.5q52 101 128 171.5t166 70.5z" />
    <glyph glyph-name="breve" unicode="&#x2d8;" 
d="M432 1520q27 0 33 -31q24 -133 145 -133q123 0 144 133q6 37 41 31l120 -15q36 -6 33 -41q-15 -114 -113.5 -194t-224.5 -80q-127 0 -225 80t-113 194l-2 6q0 28 35 35l119 15h8z" />
    <glyph glyph-name="dotaccent" unicode="&#x2d9;" 
d="M592 1516q52 0 104 -52q52 -55 52 -102q0 -50 -52 -102t-104 -52q-51 0 -103 52q-51 48 -51 102q0 51 51 102q52 52 103 52z" />
    <glyph glyph-name="ring" unicode="&#x2da;" 
d="M604 993q-114 0 -198 76.5t-84 179.5t84 179.5t198 76.5t197.5 -76.5t83.5 -179.5t-83.5 -179.5t-197.5 -76.5zM604 1137q51 0 87 32.5t36 79.5t-36 80t-87 33q-52 0 -88.5 -33t-36.5 -80t36 -79.5t89 -32.5z" />
    <glyph glyph-name="ogonek" unicode="&#x2db;" 
d="M698 74q9 -9 9 -19q0 -15 -25 -18q-83 -13 -141 -65.5t-58 -127.5q0 -74 44 -121t120 -47q44 0 109.5 27t68.5 27q19 0 19 -25l4 -82q0 -22 -19 -33q-110 -71 -225 -71q-80 0 -144 29.5t-101.5 75.5t-57.5 97.5t-20 100.5q0 71 30.5 128.5t74 91.5t95 57t89 31.5
t59.5 8.5q20 0 35 -18z" />
    <glyph glyph-name="tilde" unicode="&#x2dc;" 
d="M641 1374q23 -33 36.5 -45t29.5 -12q38 0 38 47q0 48 -30 86q21 24 52 43.5t60 19.5q31 0 68 -50t37 -107q0 -96 -60 -155.5t-141 -59.5q-29 0 -54.5 4.5t-46 15t-35 18.5t-30.5 25.5t-22.5 24.5t-20.5 26.5t-16 22.5q-23 33 -36.5 45t-29.5 12q-20 0 -29.5 -14.5
t-9.5 -32.5q0 -47 31 -86q-20 -24 -52 -43.5t-63 -19.5q-29 0 -65.5 49.5t-36.5 105.5q0 97 60 157t141 60q29 0 54.5 -4.5t46 -15t35 -18.5t30.5 -25.5t22.5 -24.5t20.5 -26.5t16 -22.5z" />
    <glyph glyph-name="hungarumlaut" unicode="&#x2dd;" 
d="M322 1171q22 74 22 211q0 92 -10 158v6q0 18 18 33q71 51 133 51q36 0 58 -21t22 -65q0 -75 -38.5 -185.5t-92.5 -168.5q-9 -11 -31 -14zM692 1171q23 90 23 211q0 70 -10 158v6q0 20 18 33q67 51 133 51q36 0 58 -21t22 -65q0 -74 -39 -184.5t-92 -169.5q-8 -10 -31 -14
z" />
    <glyph glyph-name="uni0326" unicode="&#x326;" horiz-adv-x="0" 
d="M768 -96q43 -43 43 -115q0 -24 -6 -59q-15 -74 -90.5 -167.5t-150 -153.5t-99.5 -60q-14 0 -80 30q72 56 117 123t45 115q0 28 -19 47l-79 80q-39 42 -39 80t39 80l79 80q42 39 80 39t80 -39z" />
    <glyph glyph-name="uni0394" unicode="&#x394;" horiz-adv-x="1265" 
d="M612 1432q10 20 21 20q13 0 20 -20l588 -1397q4 -8 4 -15q0 -20 -26 -20h-1172q-17 0 -23.5 10t1.5 25zM633 950l-316 -747h631z" />
    <glyph glyph-name="uni03A9" unicode="&#x3a9;" horiz-adv-x="1619" 
d="M1567 184q30 0 30 -30v-121q0 -31 -30 -31h-631q-31 0 -31 31v121q0 30 31 30q86 0 162 76.5t120 198.5t44 254q0 90 -14 169t-47.5 151.5t-84.5 124t-129.5 82t-177.5 30.5q-123 0 -213 -45.5t-140.5 -125.5t-74 -176t-23.5 -210q0 -132 44 -254t120 -198.5t162 -76.5
q31 0 31 -30v-121q0 -31 -31 -31h-631q-30 0 -30 31v121q0 30 30 30h213q-103 100 -164 236.5t-61 292.5q0 214 103 383t278 260.5t387 91.5q158 0 299 -54t245 -149t165 -233t61 -299q0 -156 -61 -292.5t-164 -236.5h213z" />
    <glyph glyph-name="uni03BC" unicode="&#x3bc;" horiz-adv-x="1368" 
d="M1182 414q0 -50 3.5 -83t14.5 -70t37 -58t66 -25q24 -2 24 -26v-68q0 -29 -31 -29q-94 0 -169 -12.5t-111 -25.5t-96 -40q-4 -4 -17 -4h-4q-4 0 -4 7l33 258q-23 -47 -56.5 -90.5t-79 -84.5t-107 -65.5t-128.5 -24.5q-10 0 -30 1t-29 1v-354q0 -31 -31 -31h-227
q-31 0 -31 31v1086q0 86 -39.5 140t-110.5 54h-10q-31 0 -31 31v61q0 31 31 31h418q31 0 31 -31v-596v-20v-41t1.5 -38.5t5.5 -38.5t10.5 -33t17.5 -30t26 -22t37 -15.5t49 -4.5q73 0 147 53.5t101 120.5v379q0 87 -38.5 140.5t-111.5 53.5h-4q-30 0 -30 31v61q0 31 30 31
h412q31 0 31 -31v-579z" />
    <glyph glyph-name="pi" unicode="&#x3c0;" horiz-adv-x="1427" 
d="M1366 1024q31 0 31 -31v-102q0 -31 -31 -31h-170v-543q0 -86 39.5 -140t112.5 -54h8q30 0 30 -31v-61q0 -31 -30 -31h-250q-58 0 -99.5 18.5t-64.5 51t-33 70t-10 81.5v629h-387v-533q0 -87 38.5 -140.5t111.5 -53.5h4q30 0 30 -31v-61q0 -31 -30 -31h-596q-31 0 -31 31
v61q0 31 31 31h6q72 0 109.5 53.5t37.5 140.5v543h-153q-31 0 -31 31v102q0 31 31 31h1296z" />
    <glyph glyph-name="Wgrave" unicode="&#x1e80;" horiz-adv-x="2471" 
d="M1303 1659q-16 -8 -33 -2q-51 18 -104.5 47.5t-106 71.5t-86 98t-33.5 115q0 52 39.5 78t103.5 26q25 0 39 -2q28 -3 35 -27q39 -102 81.5 -174t137.5 -194zM2431 1542q31 0 31 -31v-61q0 -31 -31 -31q-26 0 -47 -11.5t-33.5 -24.5t-28 -46t-21.5 -50.5t-22 -63.5
l-421 -1198q-9 -25 -35 -25h-246q-26 0 -35 25l-303 823l-289 -823q-9 -25 -35 -25h-247q-26 0 -35 25l-440 1198q-40 109 -59 139q-36 57 -93 57q-31 0 -31 31v61q0 31 31 31h629q13 0 21.5 -8.5t8.5 -22.5v-61q0 -31 -30 -31q-65 0 -112.5 -41t-47.5 -102q0 -23 10 -53
l336 -934l279 841l-35 93q-40 109 -59 139q-36 57 -91 57q-30 0 -30 31v61q0 31 30 31h627q31 0 31 -31v-61q0 -31 -31 -31h-53q-41 0 -76 -32.5t-35 -88.5q0 -33 12 -63l338 -946l310 934q8 24 8 51q0 62 -47 103.5t-111 41.5q-31 0 -31 31v61q0 31 31 31h508z" />
    <glyph glyph-name="wgrave" unicode="&#x1e81;" horiz-adv-x="1908" 
d="M1030 1147q-16 -8 -33 -2q-51 18 -104 47.5t-105.5 71.5t-86 98t-33.5 115q0 52 39.5 78t103.5 26q25 0 39 -2q28 -3 35 -27q39 -102 81.5 -174t137.5 -194zM1866 1024q30 0 30 -31v-61q0 -14 -8.5 -22.5t-21.5 -8.5h-31q-33 0 -59 -26.5t-60 -100.5l-325 -751
q-9 -23 -35 -23h-109q-24 0 -37 23l-270 626l-270 -626q-9 -23 -35 -23h-109q-24 0 -37 23l-323 749q-33 77 -56.5 103t-62.5 26h-4q-31 0 -31 31v61q0 31 31 31h473q31 0 31 -31v-61q0 -31 -31 -31h-4q-70 0 -70 -59q0 -47 43 -135l164 -383l176 436q27 64 27 98
q0 43 -43 43h-45q-27 3 -27 31v61q0 31 29 31h491q31 0 31 -31v-61q0 -31 -31 -31h-24q-70 0 -70 -59q0 -44 41 -135l166 -383l176 436q27 64 27 98q0 43 -43 43h-41q-31 0 -31 31v61q0 31 31 31h377z" />
    <glyph glyph-name="Wacute" unicode="&#x1e82;" horiz-adv-x="2471" 
d="M1073 1696q95 122 137.5 194t81.5 174q7 24 35 27q14 2 39 2q64 0 103.5 -26t39.5 -78q0 -59 -33.5 -115t-86 -98t-105.5 -71.5t-104 -47.5q-4 -2 -15 -2q-6 0 -18 4zM2431 1542q31 0 31 -31v-61q0 -31 -31 -31q-26 0 -47 -11.5t-33.5 -24.5t-28 -46t-21.5 -50.5
t-22 -63.5l-421 -1198q-9 -25 -35 -25h-246q-26 0 -35 25l-303 823l-289 -823q-9 -25 -35 -25h-247q-26 0 -35 25l-440 1198q-40 109 -59 139q-36 57 -93 57q-31 0 -31 31v61q0 31 31 31h629q13 0 21.5 -8.5t8.5 -22.5v-61q0 -31 -30 -31q-65 0 -112.5 -41t-47.5 -102
q0 -23 10 -53l336 -934l279 841l-35 93q-40 109 -59 139q-36 57 -91 57q-30 0 -30 31v61q0 31 30 31h627q31 0 31 -31v-61q0 -31 -31 -31h-53q-41 0 -76 -32.5t-35 -88.5q0 -33 12 -63l338 -946l310 934q8 24 8 51q0 62 -47 103.5t-111 41.5q-31 0 -31 31v61q0 31 31 31h508
z" />
    <glyph glyph-name="wacute" unicode="&#x1e83;" horiz-adv-x="1908" 
d="M801 1184q95 122 137.5 194t81.5 174q7 24 35 27q14 2 39 2q64 0 103.5 -26t39.5 -78q0 -59 -33.5 -115t-86 -98t-106 -71.5t-104.5 -47.5q-4 -2 -14 -2q-7 0 -19 4zM1866 1024q30 0 30 -31v-61q0 -14 -8.5 -22.5t-21.5 -8.5h-31q-33 0 -59 -26.5t-60 -100.5l-325 -751
q-9 -23 -35 -23h-109q-24 0 -37 23l-270 626l-270 -626q-9 -23 -35 -23h-109q-24 0 -37 23l-323 749q-33 77 -56.5 103t-62.5 26h-4q-31 0 -31 31v61q0 31 31 31h473q31 0 31 -31v-61q0 -31 -31 -31h-4q-70 0 -70 -59q0 -47 43 -135l164 -383l176 436q27 64 27 98
q0 43 -43 43h-45q-27 3 -27 31v61q0 31 29 31h491q31 0 31 -31v-61q0 -31 -31 -31h-24q-70 0 -70 -59q0 -44 41 -135l166 -383l176 436q27 64 27 98q0 43 -43 43h-41q-31 0 -31 31v61q0 31 31 31h377z" />
    <glyph glyph-name="Wdieresis" unicode="&#x1e84;" horiz-adv-x="2471" 
d="M991 1720q-50 0 -102 52q-51 48 -51 102q0 51 51 102q52 52 102 52q51 0 103 -52q51 -51 51 -102q0 -54 -51 -102q-52 -52 -103 -52zM1468 1720q-53 0 -102 52q-51 48 -51 102q0 51 51 102q49 52 102 52q51 0 103 -52q51 -51 51 -102q0 -54 -51 -102q-52 -52 -103 -52z
M2431 1542q31 0 31 -31v-61q0 -31 -31 -31q-26 0 -47 -11.5t-33.5 -24.5t-28 -46t-21.5 -50.5t-22 -63.5l-421 -1198q-9 -25 -35 -25h-246q-26 0 -35 25l-303 823l-289 -823q-9 -25 -35 -25h-247q-26 0 -35 25l-440 1198q-40 109 -59 139q-36 57 -93 57q-31 0 -31 31v61
q0 31 31 31h629q13 0 21.5 -8.5t8.5 -22.5v-61q0 -31 -30 -31q-65 0 -112.5 -41t-47.5 -102q0 -23 10 -53l336 -934l279 841l-35 93q-40 109 -59 139q-36 57 -91 57q-30 0 -30 31v61q0 31 30 31h627q31 0 31 -31v-61q0 -31 -31 -31h-53q-41 0 -76 -32.5t-35 -88.5
q0 -33 12 -63l338 -946l310 934q8 24 8 51q0 62 -47 103.5t-111 41.5q-31 0 -31 31v61q0 31 31 31h508z" />
    <glyph glyph-name="wdieresis" unicode="&#x1e85;" horiz-adv-x="1908" 
d="M719 1208q-51 0 -103 52q-51 48 -51 102q0 51 51 102q52 52 103 52q50 0 102 -52q51 -51 51 -102q0 -54 -51 -102q-52 -52 -102 -52zM1196 1208q-53 0 -102 52q-52 49 -52 102q0 50 52 102q49 52 102 52q50 0 102 -52t52 -102q0 -53 -52 -102q-52 -52 -102 -52z
M1866 1024q30 0 30 -31v-61q0 -14 -8.5 -22.5t-21.5 -8.5h-31q-33 0 -59 -26.5t-60 -100.5l-325 -751q-9 -23 -35 -23h-109q-24 0 -37 23l-270 626l-270 -626q-9 -23 -35 -23h-109q-24 0 -37 23l-323 749q-33 77 -56.5 103t-62.5 26h-4q-31 0 -31 31v61q0 31 31 31h473
q31 0 31 -31v-61q0 -31 -31 -31h-4q-70 0 -70 -59q0 -47 43 -135l164 -383l176 436q27 64 27 98q0 43 -43 43h-45q-27 3 -27 31v61q0 31 29 31h491q31 0 31 -31v-61q0 -31 -31 -31h-24q-70 0 -70 -59q0 -44 41 -135l166 -383l176 436q27 64 27 98q0 43 -43 43h-41
q-31 0 -31 31v61q0 31 31 31h377z" />
    <glyph glyph-name="Ygrave" unicode="&#x1ef2;" horiz-adv-x="1626" 
d="M999 1659q-14 -8 -32 -2q-51 18 -104.5 47.5t-106 71.5t-86 98t-33.5 115q0 51 40 77.5t103 26.5q27 0 39 -2q27 -3 37 -27q40 -104 82 -176t137 -192zM1575 1542q31 0 31 -31v-61q0 -31 -31 -31q-140 0 -256 -196l-315 -541q-11 -16 -11 -39v-326q0 -186 137 -194h15
q31 0 31 -31v-61q0 -31 -31 -31h-631q-31 0 -31 31v61q0 31 31 31h12q140 8 140 194v316q0 17 -13 37l-368 553q-73 109 -122.5 152.5t-111.5 43.5q-31 0 -31 31v61q0 31 31 31h711q14 0 22.5 -9t8.5 -22v-61q0 -31 -31 -31q-62 0 -103 -23.5t-41 -72.5q0 -43 35 -100
l240 -389l221 389q45 80 45 129q0 67 -94 67q-31 0 -31 31v61q0 13 9 22t22 9h510z" />
    <glyph glyph-name="ygrave" unicode="&#x1ef3;" horiz-adv-x="1183" 
d="M680 1147q-16 -8 -35 -2q-50 18 -103 47.5t-105.5 71.5t-86 98t-33.5 115q0 51 40 77.5t102 26.5q27 0 41 -2q28 -3 35 -27q39 -102 81.5 -174t137.5 -194zM1141 1024q30 0 30 -31v-61q0 -31 -30 -31h-29q-33 0 -59 -26.5t-60 -100.5l-594 -1196q-13 -26 -41 -14l-104 53
q-29 13 -16 41l229 492l-301 622q-37 79 -59 104t-60 25h-4q-31 0 -31 31v61q0 31 31 31h473q31 0 31 -31v-61q0 -31 -31 -31h-4q-66 0 -66 -53q0 -37 48 -139l137 -299l147 303q51 100 51 145q0 43 -47 43h-37q-30 0 -30 31v61q0 31 30 31h396z" />
    <glyph glyph-name="endash" unicode="&#x2013;" horiz-adv-x="1009" 
d="M150 717q6 26 34 26h697q15 0 21.5 -9.5t2.5 -24.5l-45 -179q-6 -26 -35 -26h-694q-17 0 -24.5 9t-2.5 24z" />
    <glyph glyph-name="emdash" unicode="&#x2014;" horiz-adv-x="2076" 
d="M150 717q6 26 34 26h1762q17 0 24 -9.5t2 -24.5l-45 -179q-6 -26 -35 -26h-1761q-17 0 -24.5 9t-2.5 24z" />
    <glyph glyph-name="quoteleft" unicode="&#x2018;" horiz-adv-x="509" 
d="M84 1141q-43 43 -43 112q0 27 6 62q16 74 91.5 167.5t149.5 153.5t99 60q14 0 82 -31q-73 -56 -117.5 -123t-44.5 -117q0 -30 17 -47l79 -80q39 -36 39 -79q0 -41 -39 -80l-79 -80q-40 -37 -80 -37q-41 0 -80 39z" />
    <glyph glyph-name="quoteright" unicode="&#x2019;" horiz-adv-x="499" 
d="M416 1614q43 -46 43 -115q0 -25 -6 -59q-16 -74 -91.5 -167.5t-149.5 -153.5t-99 -60q-14 0 -82 31q72 56 117 122.5t45 114.5q0 30 -17 47l-80 80q-39 39 -39 80t39 80l80 80q40 37 80 37q41 0 80 -39z" />
    <glyph glyph-name="quotesinglbase" unicode="&#x201a;" horiz-adv-x="509" 
d="M426 240q43 -43 43 -113q0 -30 -8 -61q-15 -74 -90 -167.5t-149 -153.5t-99 -60q-16 0 -82 30q73 56 117.5 123t44.5 117q0 28 -17 45l-80 80q-38 38 -38 80q0 45 38 80l80 79q36 39 78 39q44 0 80 -39z" />
    <glyph glyph-name="quotedblleft" unicode="&#x201c;" horiz-adv-x="954" 
d="M82 1141q-43 43 -43 112q0 27 6 62q15 74 90.5 167.5t150 153.5t99.5 60q12 0 80 -31q-73 -56 -117.5 -123t-44.5 -117q0 -28 19 -47l79 -80q39 -39 39 -79q0 -38 -39 -80l-79 -80q-40 -37 -80 -37q-41 0 -80 39zM526 1141q-43 43 -43 112q0 27 6 62q16 74 91.5 167.5
t149.5 153.5t99 60q14 0 82 -31q-73 -57 -118 -123.5t-45 -116.5q0 -29 18 -47l80 -80q39 -36 39 -79q0 -42 -39 -78l-80 -82q-40 -37 -80 -37q-41 0 -80 39z" />
    <glyph glyph-name="quotedblright" unicode="&#x201d;" horiz-adv-x="964" 
d="M426 1614q43 -46 43 -115q0 -28 -8 -59q-15 -74 -90 -167.5t-149 -153.5t-99 -60q-14 0 -82 31q72 56 117 122.5t45 114.5q0 27 -17 47l-80 80q-38 38 -38 80t38 80l80 80q37 37 78 37q44 0 80 -39zM881 1612q43 -43 43 -113q0 -27 -6 -61q-15 -74 -90.5 -167.5
t-150 -153.5t-99.5 -60q-14 0 -80 30q72 59 116.5 125t44.5 115q0 29 -18 47l-80 80q-39 39 -39 80q0 38 39 80l80 80q40 37 80 37q41 0 80 -39z" />
    <glyph glyph-name="quotedblbase" unicode="&#x201e;" horiz-adv-x="987" 
d="M416 240q43 -43 43 -113q0 -26 -6 -61q-16 -74 -91.5 -167.5t-149.5 -153.5t-99 -60q-16 0 -82 30q73 56 117.5 123t44.5 117q0 31 -17 45l-80 80q-39 39 -39 80q0 44 39 80l80 79q39 39 80 39t80 -39zM862 240q43 -43 43 -113q0 -26 -6 -61q-16 -74 -91.5 -167.5
t-149.5 -153.5t-99 -60q-16 0 -82 30q73 56 118.5 123t45.5 115q0 29 -18 47l-80 80q-39 39 -39 80t39 80l80 79q39 39 79 39q41 0 80 -39z" />
    <glyph glyph-name="dagger" unicode="&#x2020;" 
d="M1120 840q0 -32 -33 -29l-358 25l33 -1106q0 -12 -8 -20.5t-23 -8.5h-201q-30 0 -30 31l30 1104l-358 -25h-2q-29 0 -29 29v151q0 32 31 29l358 -25l-28 451l-2 4q0 29 30 29h201q32 0 29 -33l-31 -451l358 25h5q28 0 28 -29v-151z" />
    <glyph glyph-name="daggerdbl" unicode="&#x2021;" 
d="M1092 455q28 0 28 -31v-150q0 -30 -33 -30l-358 24l33 -536v-2q0 -13 -8.5 -21t-22.5 -8h-201q-30 0 -30 31l30 536l-358 -24h-2q-29 0 -29 30v150q0 31 31 31l358 -25v406l-358 -25h-2q-29 0 -29 29v151q0 32 31 29l358 -25l-28 451l-2 4q0 29 30 29h201q32 0 29 -33
l-31 -451l358 25h5q28 0 28 -29v-151q0 -32 -33 -29l-358 25v-406l358 25h5z" />
    <glyph glyph-name="bullet" unicode="&#x2022;" 
d="M483 842q66 63 129 63t129 -63l129 -129q62 -62 62 -129q0 -65 -62 -127l-129 -129q-65 -62 -129 -62t-129 62l-129 129q-61 61 -61 129q0 66 61 127z" />
    <glyph glyph-name="ellipsis" unicode="&#x2026;" horiz-adv-x="1792" 
d="M1350 322q38 38 80 38q38 0 79 -38l80 -82q39 -39 39 -78q0 -41 -39 -80l-80 -80q-39 -39 -79 -39q-41 0 -80 39l-80 80q-39 36 -39 80q0 42 39 78zM285 319q36 39 77 39q44 0 80 -39l80 -79q39 -39 39 -80t-39 -80l-80 -80q-36 -39 -80 -39q-41 0 -77 39l-82 80
q-37 40 -37 80t37 80zM821 322q39 36 80 36t80 -39l80 -79q39 -36 39 -80q0 -41 -39 -80l-80 -80q-40 -37 -80 -37t-80 37l-80 80q-39 42 -39 80q0 41 39 80z" />
    </font>
</defs>
</svg>
